<?xml version="1.0" standalone="no"?>
<!DOCTYPE svg PUBLIC "-//W3C//DTD SVG 1.1//EN" "http://www.w3.org/Graphics/SVG/1.1/DTD/svg11.dtd" >
<svg>
<metadata>
Created by FontForge 20120731 at Thu Sep 22 17:34:45 2016
 By ,,,
Part of the digitally encoded machine readable outline data for producing the Typefaces provided is copyrighted (c) 2008 Linotype GmbH, www.linotype.com. All rights reserved. This software is the property of Linotype GmbH, and may not be reproduced, used, displayed, modified, disclosed or transferred without the express written approval of Linotype GmbH.  The digitally encoded machine readable software for producing the Typefaces licensed to you is copyrighted (c) 1992 Adobe Systems. All Rights Reserved. This software is the property of Adobe Systems Incorporated and its licensors, and may not be reproduced, used, displayed, modified, disclosed or transferred without the express written approval of Adobe. Linotype Didot is a trademark of Linotype GmbH and may be registered in certain jurisdictions. This typeface is original artwork of Adrian Frutiger and Linotype Design Studio. The design may be protected in certain jurisdictions.
</metadata>
<defs>
<font id="DidotLTPro-Roman" horiz-adv-x="278" >
  <font-face 
    font-family="DidotLTPro-Roman"
    font-weight="400"
    font-stretch="normal"
    units-per-em="1000"
    panose-1="0 0 5 0 0 0 0 0 0 0"
    ascent="719"
    descent="-281"
    x-height="429"
    cap-height="712"
    bbox="-162 -299 1084 941"
    underline-thickness="50"
    underline-position="-50"
    unicode-range="U+000D-FB04"
  />
<missing-glyph horiz-adv-x="485" 
d="M0 680h485v-680h-485v680zM47 47h391v585h-391v-585zM257 222h-46v16q0 50 11 75t45 57q29 27 38 43.5t9 35.5q0 33 -21 56.5t-51 23.5q-67 0 -77 -90l-48 8q7 66 41 98t87 32q52 0 85 -34t33 -90q0 -32 -12.5 -56.5t-47.5 -56.5q-33 -30 -39.5 -46t-6.5 -58v-14z
M263 111h-53v63h53v-63z" />
    <glyph glyph-name="IJ" unicode="IJ" horiz-adv-x="838" 
d="M33 0v14h111v684h-111v14h322v-14h-111v-684h111v-14h-322zM389 94q0 31 17.5 49t49.5 18q27 0 39 -14.5t12 -30.5q0 -14 -9 -35t-9 -40q0 -42 50 -42q65 0 65 97v602h-111v14h322v-14h-111v-515q0 -89 -39.5 -143.5t-126.5 -54.5q-65 0 -107 30t-42 79z" />
    <glyph glyph-name="ij" unicode="ij" horiz-adv-x="565" 
d="M93 662q0 22 15.5 37.5t37.5 15.5t37.5 -15.5t15.5 -37.5t-15.5 -37.5t-37.5 -15.5t-37.5 15.5t-15.5 37.5zM28 0v14h77v401h-77v14h163v-415h77v-14h-240zM362 662q0 22 15.5 37.5t37.5 15.5t37.5 -15.5t15.5 -37.5t-15.5 -37.5t-37.5 -15.5t-37.5 15.5t-15.5 37.5z
M297 415v14h163v-449q0 -60 -5 -100t-9.5 -53t-13.5 -31q-40 -82 -124 -82q-38 0 -74 24.5t-36 66.5q0 23 12.5 35.5t32.5 12.5q36 0 36 -35q0 -7 -3.5 -23t-3.5 -28q0 -19 12.5 -29t29.5 -10q60 0 60 99v588h-77z" />
    <glyph glyph-name="napostrophe" unicode="&#x22;n" horiz-adv-x="611" 
d="M25 0v14h77v401h-77v14h161v-107h2q54 118 172 118q69 0 109 -33.5t40 -100.5v-292h77v-14h-240v14h77v323q0 41 -19 65t-57 24q-65 0 -112 -53.5t-47 -132.5v-226h77v-14h-240zM-24 536l32 125q8 32 13 42t17 15q6 3 13 3q22 0 32 -20q3 -6 3 -11q0 -11 -8 -21l-89 -133
h-13z" />
    <glyph glyph-name="ij.sc" unicode="&#xe63a;&#xe643;" horiz-adv-x="665" 
d="M114 14v401h-72v14h230v-14h-72v-401h72v-14h-230v14h72zM561 415v-306q0 -35 -11 -59.5t-24.5 -36.5t-35 -18t-33.5 -7t-29 -1q-33 0 -64 17t-31 55q0 21 14 33t35 12q37 0 37 -37q0 -3 -4 -22t-4 -22q0 -22 31 -22q33 0 33 50v364h-73v14h233v-14h-74z" />
    <glyph glyph-name="f_f" unicode="ff" horiz-adv-x="606" 
d="M438 665q63 65 133 65q59 0 91.5 -30t32.5 -63q0 -21 -12 -36t-36 -15q-46 0 -46 32q0 12 9.5 31t9.5 30q0 37 -55 37q-44 0 -72.5 -37.5t-28.5 -110.5v-139h124v-14h-124v-401h91v-14h-254v14h77v401h-217v-401h70v-14h-233v14h77v401h-77v14h77v53q0 109 48 164
q70 84 174 84q42 0 83 -16t58 -49zM386 567q-32 7 -32 32q0 11 7 29t7 42q0 46 -73 46q-134 0 -134 -185v-102h217v53q0 41 8 85z" />
    <glyph glyph-name="fi" unicode="fi" horiz-adv-x="593" 
d="M28 415v14h77v53q0 109 48 164q71 84 174 84q33 0 65 -8.5t59.5 -35.5t27.5 -69q0 -22 -11.5 -37t-37.5 -15q-20 0 -33 9t-13 25q0 11 7 29t7 42q0 46 -73 46q-134 0 -134 -185v-102h303v-415h77v-14h-240v14h77v401h-217v-401h77v-14h-240v14h77v401h-77z" />
    <glyph glyph-name="fl" unicode="fl" horiz-adv-x="584" 
d="M28 0v14h77v401h-77v14h77v70q0 100 39 149q65 82 166 82q22 0 54 -4q27 -5 32 -5h85v-707h77v-14h-233v14h70v572q-17 0 -33 9.5t-16 30.5q0 14 10 28t10 29q0 16 -18.5 24.5t-39.5 8.5q-60 0 -88.5 -47.5t-28.5 -112.5v-127h100v-14h-100v-401h70v-14h-233z" />
    <glyph glyph-name="f_f_i" unicode="ffi" horiz-adv-x="896" 
d="M468 659q35 38 72 54.5t90 16.5q33 0 65 -8.5t59.5 -35.5t27.5 -69q0 -22 -11.5 -37t-37.5 -15q-20 0 -33 9t-13 25q0 11 7 29t7 42q0 46 -73 46q-134 0 -134 -185v-102h303v-415h77v-14h-240v14h77v401h-217v-401h77v-14h-240v14h77v401h-217v-401h70v-14h-233v14h77
v401h-77v14h77v53q0 109 48 164q71 84 174 84q40 0 82 -18.5t59 -52.5zM416 567q-32 7 -32 32q0 11 7 29t7 42q0 46 -73 46q-134 0 -134 -185v-102h217v53q0 43 8 85z" />
    <glyph glyph-name="f_f_l" unicode="ffl" horiz-adv-x="887" 
d="M467 660q70 70 146 70q22 0 54 -4q27 -5 32 -5h85v-707h77v-14h-233v14h70v572q-17 0 -33 9.5t-16 30.5q0 14 10 28t10 29q0 16 -18.5 24.5t-39.5 8.5q-60 0 -88.5 -47.5t-28.5 -112.5v-127h100v-14h-100v-401h70v-14h-233v14h77v401h-217v-401h70v-14h-233v14h77v401
h-77v14h77v53q0 109 48 164q71 84 174 84q38 0 80.5 -19t59.5 -51zM191 531v-102h217v39v14q0 43 8 85q-32 7 -32 32q0 11 7 29t7 42q0 46 -73 46q-134 0 -134 -185z" />
    <glyph glyph-name=".notdef" horiz-adv-x="485" 
d="M0 680h485v-680h-485v680zM47 47h391v585h-391v-585zM257 222h-46v16q0 50 11 75t45 57q29 27 38 43.5t9 35.5q0 33 -21 56.5t-51 23.5q-67 0 -77 -90l-48 8q7 66 41 98t87 32q52 0 85 -34t33 -90q0 -32 -12.5 -56.5t-47.5 -56.5q-33 -30 -39.5 -46t-6.5 -58v-14z
M263 111h-53v63h53v-63z" />
    <glyph glyph-name=".null" horiz-adv-x="500" 
 />
    <glyph glyph-name="nonmarkingreturn" horiz-adv-x="333" 
 />
    <glyph glyph-name="CR" unicode="&#xd;" horiz-adv-x="0" 
 />
    <glyph glyph-name="space" unicode=" " 
 />
    <glyph glyph-name="exclam" unicode="!" horiz-adv-x="314" 
d="M147 178l-31 413q-7 84 -7 92q0 21 13.5 34t34.5 13t34.5 -13t13.5 -34q0 -8 -7 -92l-31 -413h-20zM104 42q0 22 15.5 37.5t37.5 15.5t37.5 -15.5t15.5 -37.5t-15.5 -37.5t-37.5 -15.5t-37.5 15.5t-15.5 37.5z" />
    <glyph glyph-name="quotedbl" unicode="&#x22;" horiz-adv-x="444" 
d="M276 441l-15 220q-1 11 -1 31q0 38 25 38t25 -38q0 -20 -1 -31l-15 -220h-18zM150 441l-15 220q-1 11 -1 31q0 38 25 38t25 -38q0 -20 -1 -31l-15 -220h-18z" />
    <glyph glyph-name="numbersign" unicode="#" horiz-adv-x="556" 
d="M43 0l86 237h-133l7 18h133l72 198h-133l7 18h133l87 241h21l-87 -241h169l87 241h21l-87 -241h133l-7 -18h-133l-72 -198h133l-7 -18h-133l-86 -237h-21l86 237h-169l-86 -237h-21zM157 255h169l72 198h-169z" />
    <glyph glyph-name="dollar" unicode="$" horiz-adv-x="667" 
d="M75 0v215h11q12 -58 33.5 -100t43.5 -63.5t52.5 -33.5t51 -15t48.5 -3v325l-58 17q-83 24 -123.5 66.5t-40.5 109.5q0 91 61.5 150t157.5 59h3v61h14v-61q45 -2 86 -20.5t54 -18.5t18 3.5t12 17.5h14v-180h-12q-12 75 -55.5 126.5t-116.5 57.5v-283l83 -24
q171 -50 171 -185q0 -96 -69.5 -165t-184.5 -70v-70h-14v70q-61 1 -112 15q-71 22 -83 22q-22 0 -30 -23h-15zM291 441l24 -7v279h-3q-37 0 -72 -11t-64 -43.5t-29 -81.5q0 -58 39.5 -88t104.5 -48zM329 0q50 0 86.5 16t55 41t27 51t8.5 53q0 108 -125 145l-52 15v-321z" />
    <glyph glyph-name="percent" unicode="%" horiz-adv-x="778" 
d="M190 -5l380 732l18 -9l-380 -732zM222 397q-69 0 -120 51.5t-51 114.5q0 66 55 115t111 49q60 0 114 -49.5t54 -116.5q0 -63 -52 -113.5t-111 -50.5zM219 411q50 0 73 37t23 123q0 76 -25 109t-75 33q-94 0 -94 -145q0 -85 23 -121t75 -36zM393 152q0 66 55 115t111 49
q60 0 114 -49.5t54 -116.5q0 -63 -52 -113.5t-111 -50.5q-69 0 -120 51.5t-51 114.5zM463 157q0 -85 23 -121t75 -36q50 0 73 37t23 123q0 76 -25 109t-75 33q-94 0 -94 -145z" />
    <glyph glyph-name="ampersand" unicode="&#x26;" horiz-adv-x="778" 
d="M75 208q0 40 13 75.5t29.5 58.5t48 48t49.5 37t54 32q-33 68 -33 123q0 64 41.5 104.5t94.5 40.5q40 0 65.5 -25t25.5 -74q0 -87 -100 -142l174 -332q50 83 50 193q0 65 -9.5 95.5t-28 39.5t-58.5 9v14h190v-14q-50 0 -65 -27t-15 -97q0 -77 -13.5 -127t-43.5 -101
q22 -40 32.5 -57t26.5 -31.5t33 -14.5q49 0 49 95h14q0 -76 -35 -110.5t-81 -34.5q-39 0 -59.5 16t-46.5 59q-77 -75 -178 -75q-60 0 -106 24t-70 60.5t-36 71.5t-12 66zM358 498q43 25 67 52.5t24 76.5q0 37 -18 61.5t-55 24.5q-27 0 -46 -23t-19 -58q0 -40 47 -134z
M161 292q0 -60 27 -125t70 -109.5t85 -44.5q61 0 127 61l-195 374q-56 -29 -85 -65.5t-29 -90.5z" />
    <glyph glyph-name="quotesingle" unicode="'" 
d="M130 441l-15 220q-1 11 -1 31q0 38 25 38t25 -38q0 -20 -1 -31l-15 -220h-18z" />
    <glyph glyph-name="parenleft" unicode="(" 
d="M79 216q0 100 20.5 194.5t52 160t50.5 97.5t33 50l16 -10q-152 -222 -152 -492t152 -492l-16 -10q-14 18 -33 50t-50.5 97.5t-52 160t-20.5 194.5z" />
    <glyph glyph-name="parenright" unicode=")" 
d="M27 -276q152 222 152 492t-152 492l16 10q14 -18 33 -50t50.5 -97.5t52 -160t20.5 -194.5t-20.5 -194.5t-52 -160t-50.5 -97.5t-33 -50z" />
    <glyph glyph-name="asterisk" unicode="*" horiz-adv-x="444" 
d="M223 330q-21 0 -32 13t-11 30q0 6 18 49.5t21 101.5q-37 -24 -62.5 -54t-39 -45.5t-31.5 -15.5q-20 0 -31 12.5t-11 29.5q0 24 21 36q6 3 24.5 4.5t52.5 10t75 28.5q-42 20 -76 28.5t-52.5 10t-24.5 4.5q-21 12 -21 36q0 17 11 29.5t31 12.5q18 0 31.5 -15.5t39 -45.5
t62.5 -54q-2 43 -11.5 75t-18.5 49.5t-9 26.5q0 17 11 30t32 13t32 -13t11 -30q0 -6 -18 -49.5t-21 -101.5q37 24 62.5 54t39 45.5t31.5 15.5q20 0 31 -12.5t11 -29.5q0 -24 -21 -36q-6 -3 -24.5 -4.5t-52.5 -10t-75 -28.5q41 -20 75 -28.5t52.5 -10t24.5 -4.5
q21 -12 21 -36q0 -17 -11 -29.5t-31 -12.5q-18 0 -31.5 15.5t-39 45.5t-62.5 54q2 -43 12 -75t19 -49.5t9 -26.5q0 -17 -11 -30t-32 -13z" />
    <glyph glyph-name="plus" unicode="+" horiz-adv-x="600" 
d="M74 247v40h204v213h43v-213h205v-40h-205v-215h-43v215h-204z" />
    <glyph glyph-name="comma" unicode="," 
d="M67 43q0 23 18 40t43 17q37 0 60 -31t23 -72q0 -53 -37 -104.5t-76 -75.5l-9 12q94 67 94 133q0 33 -18 52q-17 -25 -43 -25q-21 0 -38 15t-17 39z" />
    <glyph glyph-name="hyphen" unicode="-" horiz-adv-x="370" 
d="M92 185v66h186v-66h-186z" />
    <glyph glyph-name="period" unicode="." 
d="M86 42q0 22 15.5 37.5t37.5 15.5t37.5 -15.5t15.5 -37.5t-15.5 -37.5t-37.5 -15.5t-37.5 15.5t-15.5 37.5z" />
    <glyph glyph-name="slash" unicode="/" horiz-adv-x="296" 
d="M3 0l270 718l20 -6l-270 -718z" />
    <glyph glyph-name="zero" unicode="0" horiz-adv-x="520" 
d="M260 -14q-68 0 -116.5 34t-72.5 92t-34.5 117.5t-10.5 127.5q0 67 10.5 126.5t34.5 117.5t72.5 92t116.5 34t116.5 -34t72.5 -92t34.5 -117.5t10.5 -126.5q0 -68 -10.5 -127.5t-34.5 -117.5t-72.5 -92t-116.5 -34zM260 0q80 0 107 80.5t27 276.5q0 195 -27 275.5
t-107 80.5t-107 -80.5t-27 -275.5q0 -196 27 -276.5t107 -80.5z" />
    <glyph glyph-name="one" unicode="1" horiz-adv-x="520" 
d="M124 0v14h111v634q-15 -11 -34 -22l-114 -65l-8 13q58 33 85.5 49t67 45t69.5 59h20v-713h111v-14h-308z" />
    <glyph glyph-name="two" unicode="2" horiz-adv-x="520" 
d="M12 0v14q87 73 138.5 122t101.5 109q111 135 111 286q0 182 -127 182q-51 0 -84 -23t-33 -62q0 -9 6.5 -28.5t6.5 -29.5q0 -16 -11.5 -25t-28.5 -9q-51 0 -51 51q0 54 57.5 97t137.5 43q108 0 164.5 -57.5t56.5 -138.5q0 -57 -25 -110.5t-54 -87t-82 -85.5l-184 -174h229
q57 0 84 27t33 80h11v-181h-457z" />
    <glyph glyph-name="three" unicode="3" horiz-adv-x="520" 
d="M28 142l14 3q3 -20 11 -39t26 -46t55.5 -43.5t88.5 -16.5q70 0 108 47t38 167q0 181 -134 181q-64 0 -118 -39l-9 16q40 20 94 34q83 22 115.5 68t32.5 120q0 119 -103 119q-58 0 -82 -24t-24 -46q0 -21 8.5 -41t8.5 -25q0 -32 -42 -32q-44 0 -44 43q0 16 9 37.5
t28.5 45.5t57.5 40t88 16q89 0 138 -48t49 -104q0 -39 -23.5 -71.5t-59 -51.5t-63.5 -29t-51 -15v-2q91 -5 156 -60.5t65 -141.5q0 -85 -68.5 -151.5t-172.5 -66.5q-91 0 -138.5 45t-58.5 111z" />
    <glyph glyph-name="four" unicode="4" horiz-adv-x="520" 
d="M31 175q113 247 206 393q48 75 74 108.5t40.5 42t36.5 8.5q41 0 41 -24q0 -8 -33 -40q-51 -49 -146 -160q-23 -27 -44.5 -56t-45 -68t-35.5 -59t-39.5 -69.5l-32.5 -58.5h263v267h86v-267h89v-17h-89v-161h89v-14h-264v14h89v161h-285z" />
    <glyph glyph-name="five" unicode="5" horiz-adv-x="520" 
d="M43 102q0 42 51 42q46 0 46 -40q0 -5 -0.5 -16t-0.5 -15q0 -42 23 -57.5t69 -15.5q69 0 101 53t32 193q0 91 -28.5 137.5t-101.5 46.5q-130 0 -166 -122l-11 3l63 416h33q26 -27 42 -41t48 -28t69 -14q42 0 71 17t68 66l11 -7q-60 -84 -98 -116t-95 -32q-33 0 -62 9.5
t-88 36.5l-38 -243l2 -2q48 71 157 71q103 0 162 -64t59 -150q0 -26 -6.5 -56t-24.5 -64t-44 -61t-70 -45t-98 -18q-49 0 -86 13t-55 32.5t-26 37.5t-8 33z" />
    <glyph glyph-name="six" unicode="6" horiz-adv-x="520" 
d="M263 -14q-99 0 -165 77t-66 238q0 178 85 302t210 124q68 0 100.5 -36.5t32.5 -80.5q0 -22 -15 -37t-39 -15q-46 0 -46 34q0 10 12 31t12 43q0 47 -63 47q-32 0 -59 -14.5t-45 -34t-34 -55t-24.5 -60t-17.5 -68t-11.5 -60t-7.5 -54.5l2 -2q20 36 59 57.5t85 21.5
q100 0 160 -70t60 -155q0 -91 -67 -162t-158 -71zM157 57q26 -57 106 -57q73 0 100 58q25 53 25 164q0 112 -32 163q-28 45 -90 45q-46 0 -78 -20t-47 -48t-15 -82q0 -155 31 -223z" />
    <glyph glyph-name="seven" unicode="7" horiz-adv-x="520" 
d="M110 19q0 9 4 17.5t7.5 12.5t15 14.5t16.5 15.5q79 77 116.5 131.5t75.5 133.5q75 156 88 288h-247q-94 0 -107 -105h-11v185h389q-12 -233 -151 -537q-30 -67 -52.5 -107t-40.5 -57t-28.5 -21t-28.5 -4q-16 0 -31 9t-15 24z" />
    <glyph glyph-name="eight" unicode="8" horiz-adv-x="520" 
d="M38 174q0 33 13 62t30 48t43 37t43.5 27t40.5 18q-69 32 -103.5 70t-34.5 111q0 76 61 128t138 52q72 0 127 -41.5t55 -107.5q0 -57 -34.5 -95t-99.5 -77q165 -76 165 -198q0 -91 -64.5 -156.5t-170.5 -65.5q-89 0 -149 53t-60 135zM303 413q73 42 73 144q0 34 -4 59
t-14.5 48.5t-33 36t-55.5 12.5q-59 0 -94.5 -37t-35.5 -96q0 -60 37 -95q26 -24 127 -72zM120 167q0 -73 33.5 -120t105.5 -47q61 0 102 54.5t41 114.5q0 24 -4.5 44t-16.5 36.5t-21 27.5t-30.5 24.5t-32 19.5t-38 19.5t-37.5 18.5q-61 -30 -81.5 -75.5t-20.5 -116.5z" />
    <glyph glyph-name="nine" unicode="9" horiz-adv-x="520" 
d="M52 104q0 59 56 59q22 0 33 -10.5t11 -24.5q0 -8 -12 -30t-12 -44q0 -24 22.5 -39t63.5 -15q85 0 127.5 77.5t42.5 270.5h-2q-9 -17 -23 -33t-46 -31.5t-71 -15.5q-96 0 -157 70.5t-61 155.5q0 94 71.5 163.5t156.5 69.5q44 0 82 -15.5t72 -51t53.5 -102.5t19.5 -160
q0 -76 -10.5 -139t-27.5 -104.5t-41 -73.5t-47 -49.5t-49.5 -28.5t-46 -14t-38.5 -3q-65 0 -116 33t-51 85zM249 282q16 0 34.5 5t43.5 18.5t41.5 45.5t16.5 79q0 176 -35 234q-28 49 -97 49q-74 0 -101.5 -54t-27.5 -164q0 -37 2 -63.5t9 -57t20 -49t37 -31t57 -12.5z" />
    <glyph glyph-name="colon" unicode=":" 
d="M139 334q-22 0 -37.5 15.5t-15.5 37.5t15.5 37.5t37.5 15.5t37.5 -15.5t15.5 -37.5t-15.5 -37.5t-37.5 -15.5zM86 42q0 22 15.5 37.5t37.5 15.5t37.5 -15.5t15.5 -37.5t-15.5 -37.5t-37.5 -15.5t-37.5 15.5t-15.5 37.5z" />
    <glyph glyph-name="semicolon" unicode=";" 
d="M139 334q-22 0 -37.5 15.5t-15.5 37.5t15.5 37.5t37.5 15.5t37.5 -15.5t15.5 -37.5t-15.5 -37.5t-37.5 -15.5zM67 43q0 23 18 40t43 17q37 0 60 -31t23 -72q0 -53 -37 -104.5t-76 -75.5l-9 12q94 67 94 133q0 33 -18 52q-17 -25 -43 -25q-21 0 -38 15t-17 39z" />
    <glyph glyph-name="less" unicode="&#x3c;" horiz-adv-x="593" 
d="M12 236v8l568 236v-20l-535 -220l535 -220v-20z" />
    <glyph glyph-name="equal" unicode="=" horiz-adv-x="593" 
d="M56 317v18h480v-18h-480zM56 145v18h480v-18h-480z" />
    <glyph glyph-name="greater" unicode="&#x3e;" horiz-adv-x="593" 
d="M12 0v20l536 220l-536 220v20l568 -236v-8z" />
    <glyph glyph-name="question" unicode="?" horiz-adv-x="407" 
d="M130 178v251h16q23 -49 67 -49q37 0 53 36.5t16 136.5q0 93 -16.5 128t-47.5 35q-21 0 -40.5 -10t-19.5 -30q0 -12 12 -31.5t12 -33.5q0 -15 -11.5 -25t-28.5 -10q-20 0 -33 10.5t-13 30.5q0 38 34 75.5t94 37.5q58 0 92.5 -46t34.5 -131q0 -81 -33 -134t-101 -53
q-40 0 -71 34v-222h-16zM84 42q0 22 15.5 37.5t37.5 15.5t37.5 -15.5t15.5 -37.5t-15.5 -37.5t-37.5 -15.5t-37.5 15.5t-15.5 37.5z" />
    <glyph glyph-name="at" unicode="@" horiz-adv-x="833" 
d="M41 340q0 161 123 275.5t295 114.5q148 0 240.5 -84.5t92.5 -211.5q0 -104 -63 -190t-139 -86q-81 0 -89 89q-40 -89 -123 -89q-59 0 -97.5 41.5t-38.5 101.5q0 92 69 165.5t144 73.5q82 0 97 -74l19 63h58l-68 -232q-10 -36 -10 -58q0 -32 17 -44t39 -12q55 0 110 79
t55 171q0 114 -83.5 194.5t-226.5 80.5q-109 0 -198 -54t-136.5 -138.5t-47.5 -177.5q0 -141 100 -235.5t255 -94.5q151 0 270 94l13 -18q-135 -98 -292 -98q-158 1 -271.5 98.5t-113.5 255.5zM315 282q0 -38 17 -69t57 -31q57 0 91 74q14 29 34 91t20 102q0 24 -18 45.5
t-50 21.5q-57 0 -104 -78t-47 -156z" />
    <glyph glyph-name="A" unicode="A" horiz-adv-x="741" 
d="M-1 0v14h88l270 716h24l272 -716h89v-14h-308v14h111l-105 278h-232l-105 -278h111v-14h-215zM214 306h220l-110 291z" />
    <glyph glyph-name="B" unicode="B" horiz-adv-x="667" 
d="M30 0v14h111v684h-111v14h175q20 0 62 2q11 0 31 0.5t29 0.5q69 0 119 -16.5t75 -44t36 -54t11 -54.5q0 -64 -52 -108.5t-125 -52.5v-2q82 -7 146 -54.5t64 -127.5q0 -93 -70.5 -149t-204.5 -56q-16 0 -56 2t-65 2h-175zM241 389h92q61 0 93 34t32 121q0 50 -12.5 83
t-36.5 48t-46.5 20.5t-53.5 5.5q-43 0 -68 -3v-309zM241 14q64 -4 68 -4q97 0 137 42t40 151q0 81 -34.5 126.5t-100.5 45.5h-110v-361z" />
    <glyph glyph-name="C" unicode="C" horiz-adv-x="722" 
d="M192 83q-115 115 -115 271q0 99 46 185.5t129 138.5t182 52q47 0 98 -19.5t66 -19.5q27 0 44 21h15v-200h-11q-10 44 -23.5 76t-38 63.5t-64.5 48t-95 16.5q-61 0 -105.5 -24t-68.5 -59t-38 -87.5t-17.5 -95t-3.5 -96.5q0 -83 11 -145t31 -101.5t50 -64t64 -34.5t77 -10
q37 0 67.5 7t52 17t39.5 29t28 33.5t20.5 41t15 42t12.5 44.5h11v-213h-15q-19 21 -44 21q-13 0 -72.5 -18t-112.5 -18q-136 0 -235 98z" />
    <glyph glyph-name="D" unicode="D" horiz-adv-x="815" 
d="M30 0v14h111v684h-111v14h186q18 0 56 2q10 0 28.5 0.5t27.5 0.5q106 0 176 -23q117 -38 175.5 -127.5t58.5 -208.5q0 -124 -56.5 -206.5t-149.5 -122.5q-46 -20 -85.5 -25.5t-115.5 -5.5q-20 0 -66 2t-65 2h-170zM241 14q46 -4 89 -4q81 0 139.5 22t96.5 86
q57 95 57 234q0 169 -68.5 259t-228.5 90q-10 0 -85 -3v-684z" />
    <glyph glyph-name="E" unicode="E" horiz-adv-x="704" 
d="M30 0v14h111v684h-111v14h572v-173h-11q-27 84 -66.5 121.5t-117.5 37.5h-166v-309h65q67 0 95.5 28.5t50.5 118.5h11v-311h-11q-7 32 -11 46.5t-14.5 38.5t-22.5 35.5t-33 20.5t-49 9h-81v-361h189q42 0 76 15.5t55 38.5t36.5 52.5t22 53.5t9.5 45h11v-219h-610z" />
    <glyph glyph-name="F" unicode="F" horiz-adv-x="667" 
d="M30 0v14h111v684h-111v14h572v-173h-11q-27 84 -66.5 121.5t-117.5 37.5h-166v-324h65q67 0 95.5 28.5t50.5 118.5h11v-311h-11q-7 32 -11 46.5t-14.5 38.5t-22.5 35.5t-33 20.5t-49 9h-81v-346h111v-14h-322z" />
    <glyph glyph-name="G" unicode="G" horiz-adv-x="796" 
d="M193 83q-116 116 -116 271q0 160 115 275q101 101 235 101q58 0 105 -19.5t65 -19.5q29 0 45 21h15v-200h-11q-4 25 -11 48t-23.5 53t-39 51.5t-60.5 36.5t-86 15t-86 -14t-63 -41t-42.5 -59.5t-26.5 -75.5t-12.5 -83.5t-3.5 -88.5q0 -228 88 -307q30 -27 62 -37.5
t83 -10.5q69 0 121 44.5t52 127.5v84h-129v14h305v-14h-80v-227h-12q-18 19 -40 19q-18 0 -46.5 -15.5t-72 -31t-98.5 -15.5q-134 0 -232 98z" />
    <glyph glyph-name="H" unicode="H" horiz-adv-x="815" 
d="M30 0v14h111v684h-111v14h322v-14h-111v-327h333v327h-111v14h322v-14h-111v-684h111v-14h-322v14h111v343h-333v-343h111v-14h-322z" />
    <glyph glyph-name="I" unicode="I" horiz-adv-x="388" 
d="M33 0v14h111v684h-111v14h322v-14h-111v-684h111v-14h-322z" />
    <glyph glyph-name="J" unicode="J" horiz-adv-x="463" 
d="M14 94q0 31 17.5 49t49.5 18q27 0 39 -14.5t12 -30.5q0 -14 -9 -35t-9 -40q0 -42 50 -42q65 0 65 97v602h-111v14h322v-14h-111v-515q0 -89 -39.5 -143.5t-126.5 -54.5q-65 0 -107 30t-42 79z" />
    <glyph glyph-name="K" unicode="K" horiz-adv-x="741" 
d="M30 0v14h111v684h-111v14h314v-14h-103v-318h10l302 318h-104v14h207v-14h-83l-254 -269l363 -415h66v-14h-289v14h90l-300 352h-8v-352h103v-14h-314z" />
    <glyph glyph-name="L" unicode="L" horiz-adv-x="685" 
d="M30 0v14h111v684h-111v14h322v-14h-111v-684h178q162 0 211 205h11v-219h-611z" />
    <glyph glyph-name="M" unicode="M" horiz-adv-x="870" 
d="M26 0v14h111v684h-111v14h225l185 -538h2l185 538h221v-14h-111v-684h111v-14h-322v14h111v678h-2l-239 -693l-238 686h-2v-671h111v-14h-237z" />
    <glyph glyph-name="N" unicode="N" horiz-adv-x="722" 
d="M21 0v14h111v684h-111v14h214l338 -545h2v531h-111v14h237v-14h-111v-712h-20l-421 671h-2v-643h111v-14h-237z" />
    <glyph glyph-name="O" unicode="O" horiz-adv-x="832" 
d="M68 357q0 77 31.5 147.5t81 119t112 77.5t123.5 29q88 0 167.5 -48t130 -135t50.5 -190q0 -93 -45.5 -178.5t-127 -139.5t-175.5 -54q-147 0 -247.5 111.5t-100.5 260.5zM183 357q0 -185 53.5 -271.5t179.5 -86.5t179.5 86.5t53.5 271.5q0 76 -9.5 135t-33.5 112.5
t-72 82.5t-118 29t-118 -29t-72 -82.5t-33.5 -112.5t-9.5 -135z" />
    <glyph glyph-name="P" unicode="P" horiz-adv-x="648" 
d="M30 0v14h111v684h-111v14h188q18 0 56 2q9 0 27.5 0.5t27.5 0.5q115 0 190 -52.5t75 -137.5q0 -86 -81.5 -137.5t-196.5 -51.5q-31 0 -75 8v-330h111v-14h-322zM241 358q42 -8 81 -8q75 0 116 44.5t41 130.5q0 101 -40.5 138.5t-139.5 37.5q-25 0 -58 -3v-340z" />
    <glyph glyph-name="Q" unicode="Q" horiz-adv-x="832" 
d="M324 -1q-113 30 -184.5 132t-71.5 226q0 75 30.5 145t79.5 119.5t112 79t126 29.5q88 0 167.5 -48t130 -135t50.5 -190q0 -93 -45.5 -178.5t-127 -139.5t-175.5 -54q-18 0 -38 3l-1 -3q25 -13 39 -19.5t40.5 -14t60.5 -10.5q51 -5 100 -62q30 -34 50 -44.5t69 -10.5v-14
q-88 2 -137.5 6.5t-84.5 21t-51 33t-46 56.5q-44 58 -93 72zM183 357q0 -185 53.5 -271.5t179.5 -86.5t179.5 86.5t53.5 271.5q0 76 -9.5 135t-33.5 112.5t-72 82.5t-118 29t-118 -29t-72 -82.5t-33.5 -112.5t-9.5 -135z" />
    <glyph glyph-name="R" unicode="R" horiz-adv-x="722" 
d="M30 0v14h111v684h-111v14h190q16 0 48 2q8 0 24 0.5t24 0.5q69 0 110.5 -8t77.5 -36q64 -50 64 -125q0 -19 -6.5 -39.5t-23 -46.5t-54.5 -46t-92 -27v-2q159 -22 186 -116q8 -29 12.5 -101t8.5 -91q16 -68 61 -68q30 0 52 21l9 -11q-33 -26 -88 -26q-76 0 -106.5 36.5
t-36.5 117.5l-7 91q-3 38 -15 65.5t-25.5 41t-35 21t-34.5 8.5t-32 1h-100v-361h111v-14h-322zM241 698v-309h92q61 0 93 34t32 121q0 50 -12.5 83t-36.5 48t-46.5 20.5t-53.5 5.5q-43 0 -68 -3z" />
    <glyph glyph-name="S" unicode="S" horiz-adv-x="667" 
d="M75 0v215h11q10 -45 25 -80t30 -57.5t37 -38.5t38 -23.5t41 -11.5t37 -4.5t35 -0.5q50 0 86.5 15.5t55 41.5t27 52t8.5 53q0 107 -134 148l-115 35q-83 25 -123.5 67t-40.5 109q0 91 61.5 150.5t157.5 59.5q53 0 99 -19.5t58 -19.5q13 0 18 3.5t12 17.5h14v-181h-12
q-13 79 -61 132t-128 53q-37 0 -72 -11t-64 -44t-29 -82q0 -31 12 -54t35.5 -39t44 -25t52.5 -19l121 -38q74 -24 106 -47q65 -49 65 -136q0 -97 -70 -166.5t-184 -69.5q-69 0 -126 15q-71 22 -83 22q-22 0 -30 -22h-15z" />
    <glyph glyph-name="T" unicode="T" horiz-adv-x="684" 
d="M181 0v14h111v684h-58q-27 0 -46 -4t-47.5 -18.5t-52 -51.5t-39.5 -95h-11v183h608v-183h-11q-16 58 -39.5 95t-52 51.5t-47.5 18.5t-46 4h-58v-684h111v-14h-322z" />
    <glyph glyph-name="U" unicode="U" horiz-adv-x="759" 
d="M21 698v14h322v-14h-111v-483q0 -116 41 -166t124 -50q117 0 173 75q23 30 32.5 61.5t9.5 97.5v465h-111v14h237v-14h-111v-485q0 -87 -46 -148q-60 -80 -202 -80q-121 0 -184 60t-63 180v473h-111z" />
    <glyph glyph-name="V" unicode="V" horiz-adv-x="722" 
d="M-12 698v14h309v-14h-111l222 -580l219 580h-109v14h216v-14h-90l-269 -713h-25l-272 713h-90z" />
    <glyph glyph-name="W" unicode="W" horiz-adv-x="1074" 
d="M-10 698v14h301v-14h-104l206 -580h2l133 369l-76 211h-84v14h300v-14h-109l206 -580h2l210 580h-107v14h214v-14h-90l-259 -713h-25l-172 480h-2l-174 -480h-27l-255 713h-90z" />
    <glyph glyph-name="X" unicode="X" horiz-adv-x="759" 
d="M28 0v14h96l200 334l-213 350h-83v14h298v-14h-96l160 -263l160 263h-96v14h208v-14h-96l-167 -277l249 -407h83v-14h-300v14h96l-195 320l-191 -320h96v-14h-209z" />
    <glyph glyph-name="Y" unicode="Y" horiz-adv-x="704" 
d="M203 0v14h111v287l-225 397h-91v14h306v-14h-100l200 -352l189 352h-101v14h214v-14h-97l-195 -365v-319h111v-14h-322z" />
    <glyph glyph-name="Z" unicode="Z" horiz-adv-x="648" 
d="M105 538v174h477l-419 -698h220q46 0 73 12.5t52 36.5q58 54 79 156h11v-219h-553l417 698h-155q-149 0 -191 -160h-11z" />
    <glyph glyph-name="bracketleft" unicode="[" 
d="M122 -280v992h125v-20h-105v-952h105v-20h-125z" />
    <glyph glyph-name="backslash" unicode="\" horiz-adv-x="296" 
d="M23 718l270 -718l-20 -6l-270 718z" />
    <glyph glyph-name="bracketright" unicode="]" 
d="M156 712v-992h-125v20h105v952h-105v20h125z" />
    <glyph glyph-name="asciicircum" unicode="^" horiz-adv-x="593" 
d="M119 305l173 407h9l172 -407h-21l-156 369l-155 -369h-22z" />
    <glyph glyph-name="underscore" unicode="_" horiz-adv-x="500" 
d="M0 -106v31h500v-31h-500z" />
    <glyph glyph-name="grave" unicode="`" 
d="M191 552l-171 122q-18 13 -18 27t10 24.5t24 10.5q13 0 21.5 -7t29.5 -33l118 -144h-14z" />
    <glyph glyph-name="a" unicode="a" horiz-adv-x="481" 
d="M470 22l8 -11q-33 -25 -75 -25q-46 0 -68 19.5t-31 58.5h-2q-31 -78 -132 -78q-129 0 -129 97q0 20 4.5 35.5t14 27t19 19.5t26.5 15t28 10.5t32.5 10t31.5 9.5q72 23 90.5 40.5t18.5 74.5q0 53 -15.5 78t-61.5 25q-76 0 -76 -49q0 -13 3 -33.5t3 -24.5
q0 -14 -10.5 -23.5t-28.5 -9.5q-30 0 -39.5 10.5t-9.5 32.5q0 47 41.5 79t114.5 32q86 0 124 -39t38 -99v-249q0 -49 35 -49q24 0 46 16zM303 145v100h-2q-2 -13 -33 -26l-75 -30q-66 -27 -66 -95q0 -88 74 -88q102 0 102 139z" />
    <glyph glyph-name="b" unicode="b" horiz-adv-x="593" 
d="M28 0v14h77v693h-77v14h163v-372h2q14 41 49.5 67t87.5 26q85 0 148 -67.5t63 -157.5q0 -92 -65 -161.5t-153 -69.5q-99 0 -132 101h-2v-87h-161zM441 229q0 100 -24.5 149.5t-90.5 49.5q-65 0 -100 -46q-21 -26 -28 -66.5t-7 -119.5q0 -196 131 -196q32 0 54.5 11
t35 28.5t19 49.5t8.5 62t2 78z" />
    <glyph glyph-name="c" unicode="c" horiz-adv-x="481" 
d="M431 113l15 -3q-6 -20 -12.5 -33t-24.5 -38t-52 -39t-81 -14q-41 0 -79.5 12.5t-73.5 37.5t-56.5 70.5t-21.5 105.5q0 97 68 163.5t165 66.5q62 0 112 -29t50 -85q0 -21 -14 -34.5t-38 -13.5q-20 0 -34 8t-14 25q0 10 7 34.5t7 32.5q0 22 -22 35t-54 13q-21 0 -36.5 -3
t-35 -15.5t-32 -35t-21 -64.5t-8.5 -101q0 -46 5.5 -81t19.5 -65.5t41 -46.5t66 -16q41 0 71.5 12t47 33.5t23 35t12.5 32.5z" />
    <glyph glyph-name="d" unicode="d" horiz-adv-x="593" 
d="M325 707v14h163v-707h77v-14h-161v87h-2q-33 -101 -132 -101q-88 0 -153 69.5t-65 161.5q0 90 63 157.5t148 67.5q52 0 87.5 -26t49.5 -67h2v358h-77zM152 229q0 -48 2 -78t8.5 -62t19 -49.5t35 -28.5t54.5 -11q131 0 131 196q0 79 -7 119.5t-28 66.5q-35 46 -100 46
q-66 0 -90.5 -49.5t-24.5 -149.5z" />
    <glyph glyph-name="e" unicode="e" horiz-adv-x="500" 
d="M454 248h-308q0 -6 -0.5 -21t-0.5 -26q0 -40 4.5 -70t17 -62.5t40.5 -50.5t70 -18q41 0 71.5 12t47 33.5t23 35t12.5 32.5l15 -3q-6 -20 -12.5 -33t-24.5 -38t-52 -39t-81 -14q-101 0 -166 62.5t-65 163.5q0 90 66 160t159 70q30 0 60.5 -10.5t59 -31.5t46.5 -60.5
t18 -91.5zM147 262h205q2 19 2 51q0 64 -23 89.5t-65 25.5q-62 0 -88 -45t-31 -121z" />
    <glyph glyph-name="f" unicode="f" horiz-adv-x="303" 
d="M-2 0v14h77v401h-77v14h77v53q0 109 45 166q28 36 67.5 59t80.5 23q59 0 91.5 -30t32.5 -63q0 -21 -12 -36t-36 -15q-46 0 -46 32q0 12 9.5 31t9.5 30q0 37 -55 37q-44 0 -72.5 -37.5t-28.5 -110.5v-139h124v-14h-124v-401h91v-14h-254z" />
    <glyph glyph-name="g" unicode="g" horiz-adv-x="519" 
d="M44 65q0 76 95 119q-58 40 -58 108q0 66 56.5 108t121.5 42q74 0 125 -51q31 51 86 51q54 0 54 -45q0 -17 -11 -26.5t-24 -9.5q-12 0 -20 8t-11 17t-9 17t-15 8q-19 0 -39 -28q37 -40 37 -94q0 -58 -53.5 -98.5t-124.5 -40.5q-46 0 -101 26q-21 -9 -33 -16t-25 -23.5
t-13 -36.5q0 -49 68 -49h158q72 0 112.5 -34.5t40.5 -104.5q0 -84 -68.5 -141t-157.5 -57q-78 0 -128.5 33.5t-50.5 86.5q0 48 34 82t83 52v2q-67 0 -98 22t-31 73zM356 295q0 27 -3 47t-12 41.5t-30 33t-52 11.5q-52 0 -77.5 -32t-25.5 -101q0 -65 22.5 -98t81.5 -33
q51 0 73.5 32t22.5 99zM302 -30h-108q-25 -15 -36.5 -24t-24.5 -32.5t-13 -55.5q0 -65 40.5 -94.5t94.5 -29.5q70 0 115.5 39.5t45.5 93.5q0 103 -114 103z" />
    <glyph glyph-name="h" unicode="h" horiz-adv-x="611" 
d="M25 0v14h77v693h-77v14h163v-393h2q16 40 57 76t113 36q69 0 109 -33.5t40 -100.5v-292h77v-14h-240v14h77v323q0 41 -19 65t-57 24q-65 0 -112 -53.5t-47 -132.5v-226h77v-14h-240z" />
    <glyph glyph-name="i" unicode="i" horiz-adv-x="296" 
d="M93 662q0 22 15.5 37.5t37.5 15.5t37.5 -15.5t15.5 -37.5t-15.5 -37.5t-37.5 -15.5t-37.5 15.5t-15.5 37.5zM28 0v14h77v401h-77v14h163v-415h77v-14h-240z" />
    <glyph glyph-name="j" unicode="j" horiz-adv-x="296" 
d="M93 662q0 22 15.5 37.5t37.5 15.5t37.5 -15.5t15.5 -37.5t-15.5 -37.5t-37.5 -15.5t-37.5 15.5t-15.5 37.5zM28 415v14h163v-449q0 -60 -5 -100t-9.5 -53t-13.5 -31q-40 -82 -124 -82q-38 0 -74 24.5t-36 66.5q0 23 12.5 35.5t32.5 12.5q36 0 36 -35q0 -7 -3.5 -23
t-3.5 -28q0 -19 12.5 -29t29.5 -10q60 0 60 99v588h-77z" />
    <glyph glyph-name="k" unicode="k" horiz-adv-x="537" 
d="M28 0v14h77v693h-77v14h163v-478h11l199 172h-71v14h155v-14h-60l-156 -134l221 -267h43v-14h-225v14h71l-177 215h-11v-215h55v-14h-218z" />
    <glyph glyph-name="l" unicode="l" horiz-adv-x="296" 
d="M28 0v14h77v693h-77v14h163v-707h77v-14h-240z" />
    <glyph glyph-name="m" unicode="m" horiz-adv-x="870" 
d="M20 0v14h77v401h-77v14h161v-105h2q41 116 156 116q53 0 90.5 -23t48.5 -72h2q15 41 52 68t95 27q146 0 146 -149v-277h77v-14h-240v14h77v340q0 34 -18.5 53t-50.5 19q-55 0 -97.5 -41t-42.5 -116v-255h77v-14h-240v14h77v326q0 42 -17.5 64t-48.5 22q-52 0 -97.5 -48
t-45.5 -142v-222h77v-14h-240z" />
    <glyph glyph-name="n" unicode="n" horiz-adv-x="611" 
d="M25 0v14h77v401h-77v14h161v-107h2q54 118 172 118q69 0 109 -33.5t40 -100.5v-292h77v-14h-240v14h77v323q0 41 -19 65t-57 24q-65 0 -112 -53.5t-47 -132.5v-226h77v-14h-240z" />
    <glyph glyph-name="o" unicode="o" horiz-adv-x="556" 
d="M45 214q0 95 74 161.5t159 66.5t159 -66.5t74 -161.5q0 -93 -71.5 -160.5t-161.5 -67.5t-161.5 67.5t-71.5 160.5zM145 214q0 -55 7.5 -94.5t19 -62.5t29.5 -36t35.5 -17t41.5 -4t41.5 4t35.5 17t29.5 36t19 62.5t7.5 94.5q0 117 -32 165.5t-101 48.5t-101 -48.5
t-32 -165.5z" />
    <glyph glyph-name="p" unicode="p" horiz-adv-x="593" 
d="M28 -280v14h77v681h-77v14h161v-84h2q35 97 139 97q85 0 148 -67.5t63 -157.5q0 -92 -65 -161.5t-153 -69.5q-32 0 -57 11t-39.5 28t-22 31t-11.5 27h-2v-349h77v-14h-240zM441 229q0 100 -24.5 149.5t-90.5 49.5q-65 0 -100 -46q-21 -26 -28 -66.5t-7 -119.5
q0 -196 131 -196q32 0 54.5 11t35 28.5t19 49.5t8.5 62t2 78z" />
    <glyph glyph-name="q" unicode="q" horiz-adv-x="593" 
d="M325 -280v14h77v349h-2q-4 -13 -11.5 -27t-22 -31t-39.5 -28t-57 -11q-88 0 -153 69.5t-65 161.5q0 90 63 157.5t148 67.5q105 0 139 -97h2v84h161v-14h-77v-681h77v-14h-240zM152 229q0 -48 2 -78t8.5 -62t19 -49.5t35 -28.5t54.5 -11q131 0 131 196q0 79 -7 119.5
t-28 66.5q-35 46 -100 46q-66 0 -90.5 -49.5t-24.5 -149.5z" />
    <glyph glyph-name="r" unicode="r" horiz-adv-x="407" 
d="M27 0v14h77v401h-77v14h161v-101h2q12 41 43.5 76.5t87.5 35.5q43 0 66 -25t23 -58q0 -55 -50 -55q-44 0 -44 28q0 11 6.5 25.5t6.5 32.5q0 32 -35 32q-36 0 -70 -50t-34 -127v-229h87v-14h-250z" />
    <glyph glyph-name="s" unicode="s" horiz-adv-x="426" 
d="M56 0v140h11q40 -140 158 -140q35 0 58.5 21t23.5 62q0 34 -16.5 50.5t-48.5 27.5l-78 27q-21 7 -33.5 13t-30.5 19.5t-26.5 36t-8.5 53.5q0 56 41 94t103 38q33 0 59.5 -10.5t36.5 -10.5q11 0 16 8h11v-114h-11q-17 54 -41.5 83.5t-70.5 29.5q-48 0 -74.5 -21.5
t-26.5 -57.5q0 -30 21 -47t68 -32l73 -24q107 -36 107 -118q0 -58 -43 -100t-116 -42q-33 0 -74.5 14t-52.5 14q-16 0 -24 -14h-11z" />
    <glyph glyph-name="t" unicode="t" horiz-adv-x="333" 
d="M17 415v14h77v129q18 -7 39 -7q28 0 47 15v-137h142v-14h-142v-327q0 -88 60 -88q33 0 55.5 24t28.5 60l14 -5q-19 -93 -110 -93q-72 0 -103 28t-31 83v318h-77z" />
    <glyph glyph-name="u" unicode="u" horiz-adv-x="593" 
d="M569 14v-14h-161v101h-2q-51 -115 -153 -115q-65 0 -104 28q-14 10 -22 18.5t-17 35t-9 63.5v284h-77v14h163v-307q0 -122 85 -122q48 0 91 52.5t43 130.5v232h-76v14h162v-415h77z" />
    <glyph glyph-name="v" unicode="v" horiz-adv-x="481" 
d="M-18 415v14h242v-14h-82l129 -314l134 314h-82v14h152v-14h-54l-189 -448l-182 448h-68z" />
    <glyph glyph-name="w" unicode="w" horiz-adv-x="741" 
d="M-4 415v14h241v-14h-83l112 -312l104 247l-25 65h-42v14h199v-14h-67l116 -310l125 310h-94v14h163v-14h-53l-179 -448l-136 363l-152 -363l-161 448h-68z" />
    <glyph glyph-name="x" unicode="x" horiz-adv-x="481" 
d="M15 0v14h53l137 184l-149 217h-56v14h235v-14h-79l103 -150l108 150h-74v14h147v-14h-53l-119 -164l163 -237h55v-14h-234v14h79l-117 170l-126 -170h74v-14h-147z" />
    <glyph glyph-name="y" unicode="y" horiz-adv-x="481" 
d="M-5 415v14h245v-14h-84l129 -314l135 314h-83v14h153v-14h-54l-165 -386q-10 -24 -70 -174q-30 -76 -59 -108.5t-74 -32.5q-50 0 -70 25t-20 52q0 24 13.5 37t34.5 13q18 0 32.5 -8t14.5 -27q0 -9 -8.5 -26.5t-8.5 -27.5q0 -21 26 -21q32 0 54.5 30.5t56.5 113.5l44 112
l-173 428h-69z" />
    <glyph glyph-name="z" unicode="z" horiz-adv-x="426" 
d="M58 317l14 112h317l-249 -415h141q14 0 26.5 3.5t21 7.5t17 13.5t13 15.5t10 19t7.5 18.5t7 20.5l6 18h8l-13 -130h-348l249 415h-86q-31 0 -44.5 -1.5t-31.5 -10.5t-30.5 -29.5t-26.5 -56.5h-8z" />
    <glyph glyph-name="braceleft" unicode="{" horiz-adv-x="333" 
d="M337 712v-18q-35 -2 -61.5 -10t-42 -24t-25 -30.5t-13 -39t-4.5 -39t-1 -40.5v-78q0 -88 -6 -122.5t-28 -56.5q-31 -31 -94 -38q63 -7 94 -38q22 -22 28 -56.5t6 -122.5v-78q0 -26 1 -40.5t4.5 -39t13 -39t25 -30.5t42 -24t61.5 -10v-18q-75 6 -108 33q-28 21 -41.5 53.5
t-15.5 59.5t-2 84v107q0 75 -25.5 106.5t-110.5 49.5v6q85 18 110.5 49.5t25.5 106.5v107q0 57 2 84t15.5 59.5t41.5 53.5q33 27 108 33z" />
    <glyph glyph-name="bar" unicode="|" horiz-adv-x="222" 
d="M101 -250v1000h20v-1000h-20z" />
    <glyph glyph-name="braceright" unicode="}" horiz-adv-x="333" 
d="M-4 -280v18q35 2 61.5 10t42 24t25 30.5t13 39t4.5 39t1 40.5v78q0 88 6 122.5t28 56.5q31 31 94 38q-63 7 -94 38q-22 22 -28 56.5t-6 122.5v78q0 26 -1 40.5t-4.5 39t-13 39t-25 30.5t-42 24t-61.5 10v18q75 -6 108 -33q28 -21 41.5 -53.5t15.5 -59.5t2 -84v-107
q0 -75 25.5 -106.5t110.5 -49.5v-6q-85 -18 -110.5 -49.5t-25.5 -106.5v-107q0 -57 -2 -84t-15.5 -59.5t-41.5 -53.5q-33 -27 -108 -33z" />
    <glyph glyph-name="asciitilde" unicode="~" horiz-adv-x="593" 
d="M559 320h18q-7 -24 -14 -40t-22.5 -41.5t-40.5 -39.5t-58 -14q-28 0 -86 22l-122 47q-54 22 -87 22q-27 0 -47.5 -11t-34 -33.5t-18.5 -34t-13 -35.5h-18q7 25 14 41.5t22.5 41t41 38t59.5 13.5q28 0 87 -21l124 -47q60 -23 82 -23q75 0 113 115z" />
    <glyph glyph-name="uni00A0" unicode="&#xa0;" 
 />
    <glyph glyph-name="exclamdown" unicode="&#xa1;" horiz-adv-x="314" 
d="M210 389q0 -22 -15.5 -37.5t-37.5 -15.5t-37.5 15.5t-15.5 37.5t15.5 37.5t37.5 15.5t37.5 -15.5t15.5 -37.5zM167 253l31 -413q7 -84 7 -92q0 -20 -13.5 -33.5t-34.5 -13.5t-34.5 13.5t-13.5 33.5q0 8 7 92l31 413h20z" />
    <glyph glyph-name="cent" unicode="&#xa2;" horiz-adv-x="520" 
d="M133 -78l37 93q-111 57 -111 197q0 97 68 163.5t165 66.5q28 0 47 -5l32 80l13 -4l-32 -79q44 -11 73 -37.5t29 -68.5q0 -21 -14 -34.5t-38 -13.5q-20 0 -34 8t-14 25q0 10 7 34.5t7 32.5q0 21 -23 36l-149 -372q31 -44 95 -44q41 0 71.5 12t47 33.5t23 35t12.5 32.5
l15 -3q-6 -20 -12.5 -33t-24.5 -38t-52 -39t-81 -14q-59 0 -108 24l-36 -92zM188 59l144 362q-21 7 -43 7q-28 0 -47 -6t-40 -26t-32 -67t-11 -120q0 -102 29 -150z" />
    <glyph glyph-name="sterling" unicode="&#xa3;" horiz-adv-x="630" 
d="M73 376v14h98q-28 76 -28 118q0 84 60.5 151.5t156.5 67.5q63 0 107.5 -32t44.5 -78q0 -60 -56 -60q-17 0 -27.5 9.5t-10.5 24.5q0 16 10.5 37.5t10.5 35.5q0 24 -24 36.5t-53 12.5q-58 0 -88.5 -42.5t-30.5 -144.5q0 -17 7 -136h174v-14h-173q19 -195 19 -215
q0 -39 -8 -67q110 -18 162 -18q59 0 83.5 13t37.5 51l12 -5q-24 -69 -57 -109t-90 -40q-58 0 -108 37l-53 37q-22 -33 -44 -46.5t-55 -13.5q-30 0 -49 15t-19 40q0 19 17.5 37.5t59.5 18.5q24 0 90 -15q4 23 4 46q0 31 -13 71t-34 90t-29 73h-104zM96 55q0 -23 17 -33.5
t39 -10.5q51 0 86 56q-39 30 -87 30q-20 0 -37.5 -11.5t-17.5 -30.5z" />
    <glyph glyph-name="currency" unicode="&#xa4;" horiz-adv-x="556" 
d="M64 156l63 64q-52 59 -52 137q0 79 53 137l-64 64l13 13l64 -64q61 53 137 53q75 0 136 -53l65 64l13 -13l-64 -64q53 -60 53 -137q0 -79 -53 -137l64 -64l-13 -13l-65 64q-56 -53 -137 -53q-73 0 -136 53l-64 -64zM95 357q0 -76 53.5 -129.5t129.5 -53.5t129.5 53.5
t53.5 129.5t-53.5 129.5t-129.5 53.5t-129.5 -53.5t-53.5 -129.5z" />
    <glyph glyph-name="yen" unicode="&#xa5;" horiz-adv-x="556" 
d="M152 0v14h88v288h-184v14h182l-51 110h-131v14h125l-117 258h-69v14h257v-14h-88l161 -366l143 366h-77v14h170v-14h-75l-100 -258h127v-14h-133l-42 -110h175v-14h-177v-288h88v-14h-272z" />
    <glyph glyph-name="brokenbar" unicode="&#xa6;" horiz-adv-x="222" 
d="M101 325v350h20v-350h-20zM101 -175v350h20v-350h-20z" />
    <glyph glyph-name="section" unicode="&#xa7;" horiz-adv-x="520" 
d="M301 6l-157 95q-48 29 -68 63t-20 87q0 37 12 69t31.5 52.5t32.5 31t25 17.5q-64 61 -64 131q0 69 54.5 123.5t139.5 54.5q70 0 110.5 -32t40.5 -79q0 -55 -48 -55q-38 0 -38 34q0 16 7.5 36.5t7.5 31.5q0 23 -20.5 36.5t-59.5 13.5q-63 0 -97.5 -36t-34.5 -89
q0 -73 87 -126l135 -82q51 -31 69 -61.5t18 -80.5q0 -41 -20.5 -79.5t-37.5 -55.5t-45 -40q83 -63 83 -147q0 -71 -54.5 -135t-144.5 -64q-86 0 -132 39t-46 86q0 54 47 54q46 0 46 -36q0 -14 -10 -33.5t-10 -31.5q0 -10 8.5 -23.5t34.5 -27t64 -13.5q59 0 96.5 40.5
t37.5 103.5q0 78 -80 128zM176 181l175 -106q71 51 71 116q0 36 -14.5 59t-47.5 43l-166 101q-4 2 -25 18q-79 -43 -79 -109q0 -33 24.5 -66.5t61.5 -55.5z" />
    <glyph glyph-name="dieresis" unicode="&#xa8;" 
d="M186 662q0 19 13.5 32.5t32.5 13.5t32.5 -13.5t13.5 -32.5t-13.5 -32.5t-32.5 -13.5t-32.5 13.5t-13.5 32.5zM0 662q0 19 13.5 32.5t32.5 13.5t32.5 -13.5t13.5 -32.5t-13.5 -32.5t-32.5 -13.5t-32.5 13.5t-13.5 32.5z" />
    <glyph glyph-name="copyright" unicode="&#xa9;" horiz-adv-x="833" 
d="M45 358q0 154 109 263t263 109t263 -109t109 -263t-109 -263t-263 -109t-263 109t-109 263zM65 358q0 -146 103.5 -249t248.5 -103t248.5 103t103.5 249t-103.5 249t-248.5 103t-248.5 -103t-103.5 -249zM570 276v-128h-9q-11 13 -26 13q-8 0 -44 -11t-67 -11
q-81 0 -141 59q-69 69 -69 163q0 92 61.5 158.5t152.5 66.5q28 0 58.5 -11.5t39.5 -11.5q15 0 27 12h9v-120h-7q-13 57 -42 90t-91 33q-36 0 -63 -14.5t-41 -35.5t-22.5 -52.5t-10.5 -57t-2 -57.5q0 -119 36 -166t103 -47q38 0 64 10t41 32.5t21.5 38.5t14.5 47h7z" />
    <glyph glyph-name="ordfeminine" unicode="&#xaa;" horiz-adv-x="313" 
d="M308 480l5 -8q-21 -15 -49 -15q-53 0 -64 46h-2q-11 -46 -85 -46q-84 0 -84 58q0 28 16 41.5t51 24.5l70 23q34 12 34 56q0 29 -10 42.5t-39 13.5q-50 0 -50 -27q0 -5 2 -15t2 -16q0 -20 -25 -20q-20 0 -26 6.5t-6 19.5q0 28 27 47t75 19q56 0 80.5 -23.5t24.5 -59.5
v-147q0 -29 23 -29q15 0 30 9zM198 552v59h-2q-5 -11 -21 -16l-48 -17q-41 -15 -41 -57q0 -47 47 -47q65 0 65 78z" />
    <glyph glyph-name="guillemotleft" unicode="&#xab;" horiz-adv-x="407" 
d="M344 359l3 -11q-45 -12 -68.5 -42t-23.5 -88t23.5 -88t68.5 -42l-3 -11q-66 9 -108.5 44t-42.5 97t42.5 97t108.5 44zM211 359l3 -11q-45 -12 -68.5 -42t-23.5 -88t23.5 -88t68.5 -42l-3 -11q-66 9 -108.5 44t-42.5 97t42.5 97t108.5 44z" />
    <glyph glyph-name="logicalnot" unicode="&#xac;" horiz-adv-x="593" 
d="M516 145v172h-460v18h480v-190h-20z" />
    <glyph glyph-name="uni00AD" unicode="&#xad;" horiz-adv-x="370" 
d="M92 185v66h186v-66h-186z" />
    <glyph glyph-name="registered" unicode="&#xae;" horiz-adv-x="490" 
d="M59 544q0 77 54.5 131.5t131.5 54.5t131.5 -55t54.5 -131q0 -77 -54.5 -131.5t-131.5 -54.5t-131.5 54.5t-54.5 131.5zM69 544q0 -73 51.5 -124.5t124.5 -51.5t124.5 51.5t51.5 124.5t-51.5 124.5t-124.5 51.5t-124.5 -51.5t-51.5 -124.5zM193 452v188h-31v4h52
q4 0 13 0.5t14 0.5q36 0 51 -12q18 -14 18 -35q0 -7 -3 -14.5t-14.5 -17t-30.5 -11.5v-1q44 -8 51 -32q2 -8 3.5 -27.5t2.5 -25.5q4 -19 16 -19q9 0 15 6l2 -3q-9 -7 -24 -7q-21 0 -29 10t-10 32l-2 26q-3 37 -39 37h-28v-99h31v-4h-89v4h31zM220 640v-85h25q34 0 34 43
q0 26 -11 34.5t-30 8.5q-14 0 -18 -1z" />
    <glyph glyph-name="macron" unicode="&#xaf;" 
d="M-1 602v31h280v-31h-280z" />
    <glyph glyph-name="degree" unicode="&#xb0;" horiz-adv-x="400" 
d="M65 592q0 56 39.5 95.5t95.5 39.5t95.5 -39.5t39.5 -95.5t-39.5 -95.5t-95.5 -39.5t-95.5 39.5t-39.5 95.5zM85 592q0 -48 33.5 -81.5t81.5 -33.5t81.5 33.5t33.5 81.5t-33.5 81.5t-81.5 33.5t-81.5 -33.5t-33.5 -81.5z" />
    <glyph glyph-name="plusminus" unicode="&#xb1;" horiz-adv-x="593" 
d="M286 66v197h-230v18h230v199h20v-199h230v-18h-230v-197h-20zM56 0v18h480v-18h-480z" />
    <glyph glyph-name="twosuperior" unicode="&#xb2;" horiz-adv-x="333" 
d="M10 291v11q52 42 83 69.5t66 68t51 82.5t16 89q0 44 -18.5 73t-58.5 29q-31 0 -49 -12.5t-18 -32.5q0 -5 4 -17t4 -21q0 -22 -25 -22q-37 0 -37 34t38 59.5t87 25.5q60 0 99.5 -38t39.5 -87q0 -72 -100 -163l-106 -95h147q47 0 54 59h12v-112h-289z" />
    <glyph glyph-name="threesuperior" unicode="&#xb3;" horiz-adv-x="333" 
d="M20 380l15 2q9 -44 37.5 -65.5t66.5 -21.5q53 0 72.5 30.5t19.5 91.5q0 57 -18.5 82.5t-60.5 25.5q-29 0 -74 -24l-9 13q3 1 12 6t19 8.5t21 6.5q24 6 37 11t29.5 16.5t24.5 31.5t8 49q0 70 -62 70q-31 0 -46.5 -13.5t-15.5 -27.5q0 -6 6 -19t6 -18q0 -21 -30 -21
q-29 0 -29 29q0 32 31.5 58t83.5 26q56 0 87 -29t31 -64q0 -63 -107 -98v-2q60 -10 92 -43t32 -73q0 -54 -45.5 -95.5t-109.5 -41.5q-102 0 -124 99z" />
    <glyph glyph-name="acute" unicode="&#xb4;" 
d="M97 552l118 144q21 26 29.5 33t21.5 7q14 0 24 -10.5t10 -24.5t-18 -27l-171 -122h-14z" />
    <glyph glyph-name="mu" unicode="&#xb5;" horiz-adv-x="593" 
d="M101 -280v695h-77v14h163v-307q0 -122 85 -122q48 0 91 52.5t43 130.5v232h-77v14h163v-415h77v-14h-161v101h-2q-20 -49 -58 -82t-86 -33q-47 0 -73 44h-2v-310h-86z" />
    <glyph glyph-name="paragraph" unicode="&#xb6;" horiz-adv-x="593" 
d="M491 698v-550q0 -194 -104 -272q-83 -60 -188 -60q-38 0 -63.5 10.5t-36.5 27t-14.5 28.5t-3.5 22q0 24 14.5 37.5t38.5 13.5q19 0 30.5 -8t11.5 -22q0 -5 -6 -27t-6 -25q0 -11 7.5 -20t24.5 -9q18 0 42 17.5t40 57.5q21 55 21 229v142q-92 2 -149 24q-53 21 -88.5 73
t-35.5 117q0 60 30 108t82 71q64 29 176 29h255v-14h-78zM405 148v550h-91v-550q0 -162 -20.5 -231t-93.5 -87q48 2 84.5 16.5t58 41.5t35 54t19 68.5t7 68.5t1.5 69z" />
    <glyph glyph-name="periodcentered" unicode="&#xb7;" 
d="M86 264q0 22 15.5 37.5t37.5 15.5t37.5 -15.5t15.5 -37.5t-15.5 -37.5t-37.5 -15.5t-37.5 15.5t-15.5 37.5z" />
    <glyph glyph-name="cedilla" unicode="&#xb8;" 
d="M112 -78l74 78h20l-69 -72l2 -2q19 14 49 14q14 0 31 -5.5t34 -27t17 -54.5q0 -43 -30.5 -69t-74.5 -26q-41 0 -77 30l8 12q35 -25 66 -25q51 0 51 79q0 66 -47 66q-20 0 -40 -13z" />
    <glyph glyph-name="onesuperior" unicode="&#xb9;" horiz-adv-x="333" 
d="M79 291v14h70v368q-31 -21 -91 -50l-7 11q94 47 140 93h16v-422h70v-14h-198z" />
    <glyph glyph-name="ordmasculine" unicode="&#xba;" horiz-adv-x="361" 
d="M34 595q0 57 47 96t99 39q53 0 100 -39t47 -96q0 -59 -47 -98.5t-100 -39.5q-52 0 -99 39.5t-47 98.5zM101 596q0 -66 18.5 -95.5t60.5 -29.5t61 29.5t19 95.5q0 60 -18 90t-62 30t-61.5 -30t-17.5 -90z" />
    <glyph glyph-name="guillemotright" unicode="&#xbb;" horiz-adv-x="407" 
d="M196 77l-3 11q45 12 68.5 42t23.5 88t-23.5 88t-68.5 42l3 11q66 -9 108.5 -44t42.5 -97t-42.5 -97t-108.5 -44zM63 77l-3 11q45 12 68.5 42t23.5 88t-23.5 88t-68.5 42l3 11q66 -9 108.5 -44t42.5 -97t-42.5 -97t-108.5 -44z" />
    <glyph glyph-name="onequarter" unicode="&#xbc;" horiz-adv-x="834" 
d="M212 -5l380 732l18 -9l-380 -732zM120 291v14h70v368q-31 -21 -91 -50l-7 11q94 47 140 93h16v-422h70v-14h-198zM576 0v14h54v89h-179q107 210 151 270q32 44 44 53.5t32 9.5q27 0 27 -16q0 -6 -9 -15t-36 -34.5t-55 -56.5q-70 -76 -131 -195h156v159h58v-159h54v-16
h-54v-89h54v-14h-166z" />
    <glyph glyph-name="onehalf" unicode="&#xbd;" horiz-adv-x="834" 
d="M209 -5l380 732l18 -9l-380 -732zM117 291v14h70v368q-31 -21 -91 -50l-7 11q94 47 140 93h16v-422h70v-14h-198zM456 0v11q52 42 83 69.5t66 68t51 82.5t16 89q0 44 -18.5 73t-58.5 29q-31 0 -49 -12.5t-18 -32.5q0 -5 4 -17t4 -21q0 -22 -25 -22q-37 0 -37 34t38 59.5
t87 25.5q60 0 99.5 -38t39.5 -87q0 -72 -100 -163l-106 -95h147q47 0 54 59h12v-112h-289z" />
    <glyph glyph-name="threequarters" unicode="&#xbe;" horiz-adv-x="834" 
d="M227 -5l380 732l18 -9l-380 -732zM76 380l15 2q9 -44 37.5 -65.5t66.5 -21.5q53 0 72.5 30.5t19.5 91.5q0 57 -18.5 82.5t-60.5 25.5q-29 0 -74 -24l-9 13q3 1 12 6t19 8.5t21 6.5q24 6 37 11t29.5 16.5t24.5 31.5t8 49q0 70 -62 70q-31 0 -46.5 -13.5t-15.5 -27.5
q0 -6 6 -19t6 -18q0 -21 -30 -21q-29 0 -29 29q0 32 31.5 58t83.5 26q56 0 87 -29t31 -64q0 -63 -107 -98v-2q60 -10 92 -43t32 -73q0 -54 -45.5 -95.5t-109.5 -41.5q-102 0 -124 99zM591 0v14h54v89h-179q107 210 151 270q32 44 44 53.5t32 9.5q27 0 27 -16q0 -6 -9 -15
t-36 -34.5t-55 -56.5q-70 -76 -131 -195h156v159h58v-159h54v-16h-54v-89h54v-14h-166z" />
    <glyph glyph-name="questiondown" unicode="&#xbf;" horiz-adv-x="407" 
d="M323 389q0 -22 -15.5 -37.5t-37.5 -15.5t-37.5 15.5t-15.5 37.5t15.5 37.5t37.5 15.5t37.5 -15.5t15.5 -37.5zM277 253v-251h-16q-23 49 -67 49q-37 0 -53 -36.5t-16 -136.5q0 -93 16.5 -128t47.5 -35q21 0 40.5 10t19.5 30q0 12 -12 31.5t-12 33.5q0 15 11.5 25t28.5 10
q20 0 33 -10.5t13 -30.5q0 -38 -34 -75.5t-94 -37.5q-58 0 -92.5 46t-34.5 131q0 81 33 134t101 53q40 0 71 -34v222h16z" />
    <glyph glyph-name="Agrave" unicode="&#xc0;" horiz-adv-x="741" 
d="M423 757l-171 122q-18 13 -18 27t10 24.5t24 10.5q13 0 21.5 -7t29.5 -33l118 -144h-14zM-1 0v14h88l270 716h24l272 -716h89v-14h-308v14h111l-105 278h-232l-105 -278h111v-14h-215zM434 306l-110 291l-110 -291h220z" />
    <glyph glyph-name="Aacute" unicode="&#xc1;" horiz-adv-x="741" 
d="M329 757l118 144q21 26 29.5 33t21.5 7q14 0 24 -10.5t10 -24.5t-18 -27l-171 -122h-14zM-1 0v14h88l270 716h24l272 -716h89v-14h-308v14h111l-105 278h-232l-105 -278h111v-14h-215zM434 306l-110 291l-110 -291h220z" />
    <glyph glyph-name="Acircumflex" unicode="&#xc2;" horiz-adv-x="741" 
d="M230 757l113 167h56l113 -167h-14l-127 105l-127 -105h-14zM-1 0v14h88l270 716h24l272 -716h89v-14h-308v14h111l-105 278h-232l-105 -278h111v-14h-215zM434 306l-110 291l-110 -291h220z" />
    <glyph glyph-name="Atilde" unicode="&#xc3;" horiz-adv-x="741" 
d="M513 883h14q-2 -13 -10 -33.5t-32.5 -44.5t-58.5 -24q-28 0 -72 24q-44 23 -63 23q-46 0 -62 -47h-14q8 44 36.5 71.5t59.5 27.5q19 0 69 -23q46 -24 68 -24q19 0 35 12t21.5 21t8.5 17zM-1 0v14h88l270 716h24l272 -716h89v-14h-308v14h111l-105 278h-232l-105 -278h111
v-14h-215zM434 306l-110 291l-110 -291h220z" />
    <glyph glyph-name="Adieresis" unicode="&#xc4;" horiz-adv-x="741" 
d="M418 847q0 19 13.5 32.5t32.5 13.5t32.5 -13.5t13.5 -32.5t-13.5 -32.5t-32.5 -13.5t-32.5 13.5t-13.5 32.5zM232 847q0 19 13.5 32.5t32.5 13.5t32.5 -13.5t13.5 -32.5t-13.5 -32.5t-32.5 -13.5t-32.5 13.5t-13.5 32.5zM-1 0v14h88l270 716h24l272 -716h89v-14h-308v14
h111l-105 278h-232l-105 -278h111v-14h-215zM434 306l-110 291l-110 -291h220z" />
    <glyph glyph-name="Aring" unicode="&#xc5;" horiz-adv-x="741" 
d="M371 934q29 0 60.5 -23.5t31.5 -67.5q0 -36 -28 -63t-64 -27t-64 27t-28 63q0 44 31.5 67.5t60.5 23.5zM371 923q-29 0 -38.5 -21t-9.5 -59q0 -44 11.5 -61.5t36.5 -17.5t36.5 17.5t11.5 61.5q0 38 -9.5 59t-38.5 21zM-1 0v14h88l270 716h24l272 -716h89v-14h-308v14h111
l-105 278h-232l-105 -278h111v-14h-215zM434 306l-110 291l-110 -291h220z" />
    <glyph glyph-name="AE" unicode="&#xc6;" horiz-adv-x="944" 
d="M-9 0v14h60l399 684h-98v14h493v-165h-11q-16 57 -51 102q-20 26 -43.5 37.5t-63.5 11.5h-110v-309h40q89 0 112 132h11v-278h-11q-23 132 -112 132h-40v-361h105q52 0 76 9t45 31q48 51 74 146h11v-200h-522v14h111v281h-235l-163 -281h111v-14h-188zM466 309v389h-2
l-225 -389h227z" />
    <glyph glyph-name="Ccedilla" unicode="&#xc7;" horiz-adv-x="722" 
d="M671 213v-213h-15q-19 21 -44 21q-13 0 -72.5 -18t-112.5 -18q-4 0 -7 1l-54 -58l2 -2q19 14 49 14q14 0 31 -5.5t34 -27t17 -54.5q0 -43 -30.5 -69t-74.5 -26q-41 0 -77 30l8 12q35 -25 66 -25q51 0 51 79q0 66 -47 66q-21 0 -40 -13l-14 15l61 64q-120 8 -210 97
q-115 115 -115 271q0 182 142 299q49 40 97.5 58.5t117.5 18.5q47 0 98 -19.5t66 -19.5q27 0 44 21h15v-200h-11q-10 44 -23.5 76t-38 63.5t-64.5 48t-95 16.5q-61 0 -105.5 -24t-68.5 -59t-38 -87.5t-17.5 -95t-3.5 -96.5q0 -83 11 -145t31 -101.5t50 -64t64 -34.5t77 -10
q37 0 67.5 7t52 17t39.5 29t28 33.5t20.5 41t15 42t12.5 44.5h11z" />
    <glyph glyph-name="Egrave" unicode="&#xc8;" horiz-adv-x="704" 
d="M404 757l-171 122q-18 13 -18 27t10 24.5t24 10.5q13 0 21.5 -7t29.5 -33l118 -144h-14zM30 0v14h111v684h-111v14h572v-173h-11q-27 84 -66.5 121.5t-117.5 37.5h-166v-309h65q67 0 95.5 28.5t50.5 118.5h11v-311h-11q-7 32 -11 46.5t-14.5 38.5t-22.5 35.5t-33 20.5
t-49 9h-81v-361h189q42 0 76 15.5t55 38.5t36.5 52.5t22 53.5t9.5 45h11v-219h-610z" />
    <glyph glyph-name="Eacute" unicode="&#xc9;" horiz-adv-x="704" 
d="M310 757l118 144q21 26 29.5 33t21.5 7q14 0 24 -10.5t10 -24.5t-18 -27l-171 -122h-14zM30 0v14h111v684h-111v14h572v-173h-11q-27 84 -66.5 121.5t-117.5 37.5h-166v-309h65q67 0 95.5 28.5t50.5 118.5h11v-311h-11q-7 32 -11 46.5t-14.5 38.5t-22.5 35.5t-33 20.5
t-49 9h-81v-361h189q42 0 76 15.5t55 38.5t36.5 52.5t22 53.5t9.5 45h11v-219h-610z" />
    <glyph glyph-name="Ecircumflex" unicode="&#xca;" horiz-adv-x="704" 
d="M211 757l113 167h56l113 -167h-14l-127 105l-127 -105h-14zM30 0v14h111v684h-111v14h572v-173h-11q-27 84 -66.5 121.5t-117.5 37.5h-166v-309h65q67 0 95.5 28.5t50.5 118.5h11v-311h-11q-7 32 -11 46.5t-14.5 38.5t-22.5 35.5t-33 20.5t-49 9h-81v-361h189
q42 0 76 15.5t55 38.5t36.5 52.5t22 53.5t9.5 45h11v-219h-610z" />
    <glyph glyph-name="Edieresis" unicode="&#xcb;" horiz-adv-x="704" 
d="M399 847q0 19 13.5 32.5t32.5 13.5t32.5 -13.5t13.5 -32.5t-13.5 -32.5t-32.5 -13.5t-32.5 13.5t-13.5 32.5zM213 847q0 19 13.5 32.5t32.5 13.5t32.5 -13.5t13.5 -32.5t-13.5 -32.5t-32.5 -13.5t-32.5 13.5t-13.5 32.5zM30 0v14h111v684h-111v14h572v-173h-11
q-27 84 -66.5 121.5t-117.5 37.5h-166v-309h65q67 0 95.5 28.5t50.5 118.5h11v-311h-11q-7 32 -11 46.5t-14.5 38.5t-22.5 35.5t-33 20.5t-49 9h-81v-361h189q42 0 76 15.5t55 38.5t36.5 52.5t22 53.5t9.5 45h11v-219h-610z" />
    <glyph glyph-name="Igrave" unicode="&#xcc;" horiz-adv-x="388" 
d="M246 757l-171 122q-18 13 -18 27t10 24.5t24 10.5q13 0 21.5 -7t29.5 -33l118 -144h-14zM33 0v14h111v684h-111v14h322v-14h-111v-684h111v-14h-322z" />
    <glyph glyph-name="Iacute" unicode="&#xcd;" horiz-adv-x="388" 
d="M152 757l118 144q21 26 29.5 33t21.5 7q14 0 24 -10.5t10 -24.5t-18 -27l-171 -122h-14zM33 0v14h111v684h-111v14h322v-14h-111v-684h111v-14h-322z" />
    <glyph glyph-name="Icircumflex" unicode="&#xce;" horiz-adv-x="388" 
d="M53 757l113 167h56l113 -167h-14l-127 105l-127 -105h-14zM33 0v14h111v684h-111v14h322v-14h-111v-684h111v-14h-322z" />
    <glyph glyph-name="Idieresis" unicode="&#xcf;" horiz-adv-x="388" 
d="M241 847q0 19 13.5 32.5t32.5 13.5t32.5 -13.5t13.5 -32.5t-13.5 -32.5t-32.5 -13.5t-32.5 13.5t-13.5 32.5zM55 847q0 19 13.5 32.5t32.5 13.5t32.5 -13.5t13.5 -32.5t-13.5 -32.5t-32.5 -13.5t-32.5 13.5t-13.5 32.5zM33 0v14h111v684h-111v14h322v-14h-111v-684h111
v-14h-322z" />
    <glyph glyph-name="Eth" unicode="&#xd0;" horiz-adv-x="815" 
d="M30 0v14h111v361h-111v14h111v309h-111v14h186q18 0 56 2q10 0 28.5 0.5t27.5 0.5q106 0 176 -23q117 -38 175.5 -127.5t58.5 -208.5q0 -124 -56.5 -206.5t-149.5 -122.5q-46 -20 -85.5 -25.5t-115.5 -5.5q-20 0 -66 2t-65 2h-170zM241 698v-309h148v-14h-148v-361
q46 -4 89 -4q81 0 139.5 22t96.5 86q57 95 57 234q0 169 -68.5 259t-228.5 90q-10 0 -85 -3z" />
    <glyph glyph-name="Ntilde" unicode="&#xd1;" horiz-adv-x="722" 
d="M503 883h14q-2 -13 -10 -33.5t-32.5 -44.5t-58.5 -24q-28 0 -72 24q-44 23 -63 23q-46 0 -62 -47h-14q8 44 36.5 71.5t59.5 27.5q19 0 69 -23q46 -24 68 -24q19 0 35 12t21.5 21t8.5 17zM21 0v14h111v684h-111v14h214l338 -545h2v531h-111v14h237v-14h-111v-712h-20
l-421 671h-2v-643h111v-14h-237z" />
    <glyph glyph-name="Ograve" unicode="&#xd2;" horiz-adv-x="832" 
d="M468 757l-171 122q-18 13 -18 27t10 24.5t24 10.5q13 0 21.5 -7t29.5 -33l118 -144h-14zM68 357q0 77 31.5 147.5t81 119t112 77.5t123.5 29q88 0 167.5 -48t130 -135t50.5 -190q0 -93 -45.5 -178.5t-127 -139.5t-175.5 -54q-147 0 -247.5 111.5t-100.5 260.5zM183 357
q0 -185 53.5 -271.5t179.5 -86.5t179.5 86.5t53.5 271.5q0 76 -9.5 135t-33.5 112.5t-72 82.5t-118 29t-118 -29t-72 -82.5t-33.5 -112.5t-9.5 -135z" />
    <glyph glyph-name="Oacute" unicode="&#xd3;" horiz-adv-x="832" 
d="M374 757l118 144q21 26 29.5 33t21.5 7q14 0 24 -10.5t10 -24.5t-18 -27l-171 -122h-14zM68 357q0 77 31.5 147.5t81 119t112 77.5t123.5 29q88 0 167.5 -48t130 -135t50.5 -190q0 -93 -45.5 -178.5t-127 -139.5t-175.5 -54q-147 0 -247.5 111.5t-100.5 260.5zM183 357
q0 -185 53.5 -271.5t179.5 -86.5t179.5 86.5t53.5 271.5q0 76 -9.5 135t-33.5 112.5t-72 82.5t-118 29t-118 -29t-72 -82.5t-33.5 -112.5t-9.5 -135z" />
    <glyph glyph-name="Ocircumflex" unicode="&#xd4;" horiz-adv-x="832" 
d="M275 757l113 167h56l113 -167h-14l-127 105l-127 -105h-14zM68 357q0 77 31.5 147.5t81 119t112 77.5t123.5 29q88 0 167.5 -48t130 -135t50.5 -190q0 -93 -45.5 -178.5t-127 -139.5t-175.5 -54q-147 0 -247.5 111.5t-100.5 260.5zM183 357q0 -185 53.5 -271.5
t179.5 -86.5t179.5 86.5t53.5 271.5q0 76 -9.5 135t-33.5 112.5t-72 82.5t-118 29t-118 -29t-72 -82.5t-33.5 -112.5t-9.5 -135z" />
    <glyph glyph-name="Otilde" unicode="&#xd5;" horiz-adv-x="832" 
d="M558 883h14q-2 -13 -10 -33.5t-32.5 -44.5t-58.5 -24q-28 0 -72 24q-44 23 -63 23q-46 0 -62 -47h-14q8 44 36.5 71.5t59.5 27.5q19 0 69 -23q46 -24 68 -24q19 0 35 12t21.5 21t8.5 17zM68 357q0 77 31.5 147.5t81 119t112 77.5t123.5 29q88 0 167.5 -48t130 -135
t50.5 -190q0 -93 -45.5 -178.5t-127 -139.5t-175.5 -54q-147 0 -247.5 111.5t-100.5 260.5zM183 357q0 -185 53.5 -271.5t179.5 -86.5t179.5 86.5t53.5 271.5q0 76 -9.5 135t-33.5 112.5t-72 82.5t-118 29t-118 -29t-72 -82.5t-33.5 -112.5t-9.5 -135z" />
    <glyph glyph-name="Odieresis" unicode="&#xd6;" horiz-adv-x="832" 
d="M463 847q0 19 13.5 32.5t32.5 13.5t32.5 -13.5t13.5 -32.5t-13.5 -32.5t-32.5 -13.5t-32.5 13.5t-13.5 32.5zM277 847q0 19 13.5 32.5t32.5 13.5t32.5 -13.5t13.5 -32.5t-13.5 -32.5t-32.5 -13.5t-32.5 13.5t-13.5 32.5zM68 357q0 77 31.5 147.5t81 119t112 77.5
t123.5 29q88 0 167.5 -48t130 -135t50.5 -190q0 -93 -45.5 -178.5t-127 -139.5t-175.5 -54q-147 0 -247.5 111.5t-100.5 260.5zM183 357q0 -185 53.5 -271.5t179.5 -86.5t179.5 86.5t53.5 271.5q0 76 -9.5 135t-33.5 112.5t-72 82.5t-118 29t-118 -29t-72 -82.5
t-33.5 -112.5t-9.5 -135z" />
    <glyph glyph-name="multiply" unicode="&#xd7;" horiz-adv-x="593" 
d="M504 19l-208 208l-208 -208l-13 14l207 207l-207 207l13 14l208 -208l208 208l13 -14l-207 -207l207 -207z" />
    <glyph glyph-name="Oslash" unicode="&#xd8;" horiz-adv-x="832" 
d="M194 -71l52 105q-81 48 -129.5 135.5t-48.5 187.5q0 75 30.5 145t79.5 119.5t112 79t126 29.5q82 0 156 -43l53 105l13 -6l-53 -106q80 -49 129.5 -134.5t49.5 -188.5q0 -93 -45.5 -178.5t-127 -139.5t-175.5 -54q-84 0 -158 41l-51 -103zM258 58l303 606q-54 52 -145 52
q-70 0 -118 -29t-72 -82.5t-33.5 -112.5t-9.5 -135q0 -220 75 -299zM572 654l-303 -606q52 -49 147 -49q126 0 179.5 86.5t53.5 271.5q0 213 -77 297z" />
    <glyph glyph-name="Ugrave" unicode="&#xd9;" horiz-adv-x="759" 
d="M448 757l-171 122q-18 13 -18 27t10 24.5t24 10.5q13 0 21.5 -7t29.5 -33l118 -144h-14zM21 698v14h322v-14h-111v-483q0 -116 41 -166t124 -50q117 0 173 75q23 30 32.5 61.5t9.5 97.5v465h-111v14h237v-14h-111v-485q0 -87 -46 -148q-60 -80 -202 -80q-121 0 -184 60
t-63 180v473h-111z" />
    <glyph glyph-name="Uacute" unicode="&#xda;" horiz-adv-x="759" 
d="M354 757l118 144q21 26 29.5 33t21.5 7q14 0 24 -10.5t10 -24.5t-18 -27l-171 -122h-14zM21 698v14h322v-14h-111v-483q0 -116 41 -166t124 -50q117 0 173 75q23 30 32.5 61.5t9.5 97.5v465h-111v14h237v-14h-111v-485q0 -87 -46 -148q-60 -80 -202 -80q-121 0 -184 60
t-63 180v473h-111z" />
    <glyph glyph-name="Ucircumflex" unicode="&#xdb;" horiz-adv-x="759" 
d="M255 757l113 167h56l113 -167h-14l-127 105l-127 -105h-14zM21 698v14h322v-14h-111v-483q0 -116 41 -166t124 -50q117 0 173 75q23 30 32.5 61.5t9.5 97.5v465h-111v14h237v-14h-111v-485q0 -87 -46 -148q-60 -80 -202 -80q-121 0 -184 60t-63 180v473h-111z" />
    <glyph glyph-name="Udieresis" unicode="&#xdc;" horiz-adv-x="759" 
d="M443 847q0 19 13.5 32.5t32.5 13.5t32.5 -13.5t13.5 -32.5t-13.5 -32.5t-32.5 -13.5t-32.5 13.5t-13.5 32.5zM257 847q0 19 13.5 32.5t32.5 13.5t32.5 -13.5t13.5 -32.5t-13.5 -32.5t-32.5 -13.5t-32.5 13.5t-13.5 32.5zM21 698v14h322v-14h-111v-483q0 -116 41 -166
t124 -50q117 0 173 75q23 30 32.5 61.5t9.5 97.5v465h-111v14h237v-14h-111v-485q0 -87 -46 -148q-60 -80 -202 -80q-121 0 -184 60t-63 180v473h-111z" />
    <glyph glyph-name="Yacute" unicode="&#xdd;" horiz-adv-x="704" 
d="M330 757l118 144q21 26 29.5 33t21.5 7q14 0 24 -10.5t10 -24.5t-18 -27l-171 -122h-14zM203 0v14h111v287l-225 397h-91v14h306v-14h-100l200 -352l189 352h-101v14h214v-14h-97l-195 -365v-319h111v-14h-322z" />
    <glyph glyph-name="Thorn" unicode="&#xde;" horiz-adv-x="648" 
d="M30 0v14h111v684h-111v14h322v-14h-111v-108q4 0 35.5 1.5t52.5 1.5q115 0 190 -52.5t75 -137.5q0 -86 -81.5 -137.5t-196.5 -51.5q-31 0 -75 8v-208h111v-14h-322zM241 576v-340q42 -8 81 -8q75 0 116 44.5t41 130.5q0 101 -40.5 138.5t-139.5 37.5q-25 0 -58 -3z" />
    <glyph glyph-name="germandbls" unicode="&#xdf;" horiz-adv-x="611" 
d="M33 0v14h77v465q0 102 37 160q58 91 179 91q63 0 104 -33.5t41 -100.5q0 -58 -39 -95l-40 -39q-24 -24 -24 -46q0 -34 39 -67l87 -75q66 -57 66 -128q0 -53 -28.5 -90t-66.5 -52t-79 -15q-33 0 -63 7t-54.5 27.5t-24.5 52.5q0 54 49 54q18 0 29 -9.5t11 -24.5
q0 -8 -8.5 -27t-8.5 -28q0 -38 76 -38q101 0 101 98q0 27 -11 50.5t-22.5 35.5t-37.5 35l-80 71q-47 41 -47 82q0 40 47 76l42 33q38 29 54 53.5t16 63.5q0 56 -34.5 84t-81.5 28q-74 0 -108 -50.5t-34 -131.5v-531h-163z" />
    <glyph glyph-name="agrave" unicode="&#xe0;" horiz-adv-x="481" 
d="M293 552l-171 122q-18 13 -18 27t10 24.5t24 10.5q13 0 21.5 -7t29.5 -33l118 -144h-14zM470 22l8 -11q-33 -25 -75 -25q-46 0 -68 19.5t-31 58.5h-2q-31 -78 -132 -78q-129 0 -129 97q0 20 4.5 35.5t14 27t19 19.5t26.5 15t28 10.5t32.5 10t31.5 9.5q72 23 90.5 40.5
t18.5 74.5q0 53 -15.5 78t-61.5 25q-76 0 -76 -49q0 -13 3 -33.5t3 -24.5q0 -14 -10.5 -23.5t-28.5 -9.5q-30 0 -39.5 10.5t-9.5 32.5q0 47 41.5 79t114.5 32q86 0 124 -39t38 -99v-249q0 -49 35 -49q24 0 46 16zM303 145v100h-2q-2 -13 -33 -26l-75 -30q-66 -27 -66 -95
q0 -88 74 -88q102 0 102 139z" />
    <glyph glyph-name="aacute" unicode="&#xe1;" horiz-adv-x="481" 
d="M199 552l118 144q21 26 29.5 33t21.5 7q14 0 24 -10.5t10 -24.5t-18 -27l-171 -122h-14zM470 22l8 -11q-33 -25 -75 -25q-46 0 -68 19.5t-31 58.5h-2q-31 -78 -132 -78q-129 0 -129 97q0 20 4.5 35.5t14 27t19 19.5t26.5 15t28 10.5t32.5 10t31.5 9.5q72 23 90.5 40.5
t18.5 74.5q0 53 -15.5 78t-61.5 25q-76 0 -76 -49q0 -13 3 -33.5t3 -24.5q0 -14 -10.5 -23.5t-28.5 -9.5q-30 0 -39.5 10.5t-9.5 32.5q0 47 41.5 79t114.5 32q86 0 124 -39t38 -99v-249q0 -49 35 -49q24 0 46 16zM303 145v100h-2q-2 -13 -33 -26l-75 -30q-66 -27 -66 -95
q0 -88 74 -88q102 0 102 139z" />
    <glyph glyph-name="acircumflex" unicode="&#xe2;" horiz-adv-x="481" 
d="M100 552l113 167h56l113 -167h-14l-127 105l-127 -105h-14zM470 22l8 -11q-33 -25 -75 -25q-46 0 -68 19.5t-31 58.5h-2q-31 -78 -132 -78q-129 0 -129 97q0 20 4.5 35.5t14 27t19 19.5t26.5 15t28 10.5t32.5 10t31.5 9.5q72 23 90.5 40.5t18.5 74.5q0 53 -15.5 78
t-61.5 25q-76 0 -76 -49q0 -13 3 -33.5t3 -24.5q0 -14 -10.5 -23.5t-28.5 -9.5q-30 0 -39.5 10.5t-9.5 32.5q0 47 41.5 79t114.5 32q86 0 124 -39t38 -99v-249q0 -49 35 -49q24 0 46 16zM303 145v100h-2q-2 -13 -33 -26l-75 -30q-66 -27 -66 -95q0 -88 74 -88q102 0 102 139
z" />
    <glyph glyph-name="atilde" unicode="&#xe3;" horiz-adv-x="481" 
d="M383 678h14q-2 -13 -10 -33.5t-32.5 -44.5t-58.5 -24q-28 0 -72 24q-44 23 -63 23q-46 0 -62 -47h-14q8 44 36.5 71.5t59.5 27.5q19 0 69 -23q46 -24 68 -24q19 0 35 12t21.5 21t8.5 17zM470 22l8 -11q-33 -25 -75 -25q-46 0 -68 19.5t-31 58.5h-2q-31 -78 -132 -78
q-129 0 -129 97q0 20 4.5 35.5t14 27t19 19.5t26.5 15t28 10.5t32.5 10t31.5 9.5q72 23 90.5 40.5t18.5 74.5q0 53 -15.5 78t-61.5 25q-76 0 -76 -49q0 -13 3 -33.5t3 -24.5q0 -14 -10.5 -23.5t-28.5 -9.5q-30 0 -39.5 10.5t-9.5 32.5q0 47 41.5 79t114.5 32q86 0 124 -39
t38 -99v-249q0 -49 35 -49q24 0 46 16zM303 145v100h-2q-2 -13 -33 -26l-75 -30q-66 -27 -66 -95q0 -88 74 -88q102 0 102 139z" />
    <glyph glyph-name="adieresis" unicode="&#xe4;" horiz-adv-x="481" 
d="M288 662q0 19 13.5 32.5t32.5 13.5t32.5 -13.5t13.5 -32.5t-13.5 -32.5t-32.5 -13.5t-32.5 13.5t-13.5 32.5zM102 662q0 19 13.5 32.5t32.5 13.5t32.5 -13.5t13.5 -32.5t-13.5 -32.5t-32.5 -13.5t-32.5 13.5t-13.5 32.5zM470 22l8 -11q-33 -25 -75 -25q-46 0 -68 19.5
t-31 58.5h-2q-31 -78 -132 -78q-129 0 -129 97q0 20 4.5 35.5t14 27t19 19.5t26.5 15t28 10.5t32.5 10t31.5 9.5q72 23 90.5 40.5t18.5 74.5q0 53 -15.5 78t-61.5 25q-76 0 -76 -49q0 -13 3 -33.5t3 -24.5q0 -14 -10.5 -23.5t-28.5 -9.5q-30 0 -39.5 10.5t-9.5 32.5
q0 47 41.5 79t114.5 32q86 0 124 -39t38 -99v-249q0 -49 35 -49q24 0 46 16zM303 145v100h-2q-2 -13 -33 -26l-75 -30q-66 -27 -66 -95q0 -88 74 -88q102 0 102 139z" />
    <glyph glyph-name="aring" unicode="&#xe5;" horiz-adv-x="481" 
d="M241 741q29 0 60.5 -23.5t31.5 -67.5q0 -36 -28 -63t-64 -27t-64 27t-28 63q0 44 31.5 67.5t60.5 23.5zM241 730q-29 0 -38.5 -21t-9.5 -59q0 -44 11.5 -61.5t36.5 -17.5t36.5 17.5t11.5 61.5q0 38 -9.5 59t-38.5 21zM470 22l8 -11q-33 -25 -75 -25q-46 0 -68 19.5
t-31 58.5h-2q-31 -78 -132 -78q-129 0 -129 97q0 20 4.5 35.5t14 27t19 19.5t26.5 15t28 10.5t32.5 10t31.5 9.5q72 23 90.5 40.5t18.5 74.5q0 53 -15.5 78t-61.5 25q-76 0 -76 -49q0 -13 3 -33.5t3 -24.5q0 -14 -10.5 -23.5t-28.5 -9.5q-30 0 -39.5 10.5t-9.5 32.5
q0 47 41.5 79t114.5 32q86 0 124 -39t38 -99v-249q0 -49 35 -49q24 0 46 16zM303 145v100h-2q-2 -13 -33 -26l-75 -30q-66 -27 -66 -95q0 -88 74 -88q102 0 102 139z" />
    <glyph glyph-name="ae" unicode="&#xe6;" horiz-adv-x="722" 
d="M676 248h-280q0 -7 -0.5 -20.5t-0.5 -20.5q0 -49 4 -81.5t15.5 -63.5t36 -46.5t63.5 -15.5q46 0 88 27t54 82l15 -4q-31 -119 -167 -119q-144 0 -185 117h-2q-2 -18 -10 -35.5t-24 -37t-47 -32t-72 -12.5q-129 0 -129 97q0 48 25 71t79 40l98 31q39 12 57.5 35t18.5 67
q0 101 -90 101q-76 0 -76 -49q0 -13 3 -33.5t3 -24.5q0 -14 -10.5 -23.5t-28.5 -9.5q-30 0 -39.5 10.5t-9.5 32.5q0 47 41.5 79t114.5 32q100 0 141 -59q63 59 144 59q22 0 47.5 -8.5t55 -28t48.5 -60.5t19 -97zM397 262h182q3 63 3 68q0 98 -73 98q-52 0 -78.5 -40
t-33.5 -126zM309 199v58h-2q-14 -24 -45 -37l-75 -31q-66 -27 -66 -95q0 -88 74 -88q114 0 114 193z" />
    <glyph glyph-name="ccedilla" unicode="&#xe7;" horiz-adv-x="481" 
d="M431 113l15 -3q-5 -15 -8 -23.5t-15.5 -29.5t-27.5 -33.5t-43 -24t-63 -13.5l-56 -58l2 -2q19 14 49 14q14 0 31 -5.5t34 -27t17 -54.5q0 -43 -30.5 -69t-74.5 -26q-41 0 -77 30l8 12q35 -25 66 -25q51 0 51 79q0 66 -47 66q-20 0 -40 -13l-14 15l60 64q-40 1 -77.5 14
t-71 38.5t-54 70.5t-20.5 103q0 97 68 163.5t165 66.5q62 0 112 -29t50 -85q0 -21 -14 -34.5t-38 -13.5q-20 0 -34 8t-14 25q0 10 7 34.5t7 32.5q0 22 -22.5 35t-56.5 13q-28 0 -47 -6t-40 -26t-32 -67t-11 -120q0 -46 5.5 -81t19.5 -65.5t41 -46.5t66 -16q41 0 71.5 12
t47 33.5t23 35t12.5 32.5z" />
    <glyph glyph-name="egrave" unicode="&#xe8;" horiz-adv-x="500" 
d="M302 552l-171 122q-18 13 -18 27t10 24.5t24 10.5q13 0 21.5 -7t29.5 -33l118 -144h-14zM454 248h-308q0 -6 -0.5 -21t-0.5 -26q0 -40 4.5 -70t17 -62.5t40.5 -50.5t70 -18q41 0 71.5 12t47 33.5t23 35t12.5 32.5l15 -3q-6 -20 -12.5 -33t-24.5 -38t-52 -39t-81 -14
q-101 0 -166 62.5t-65 163.5q0 90 66 160t159 70q30 0 60.5 -10.5t59 -31.5t46.5 -60.5t18 -91.5zM147 262h205q2 19 2 51q0 64 -23 89.5t-65 25.5q-62 0 -88 -45t-31 -121z" />
    <glyph glyph-name="eacute" unicode="&#xe9;" horiz-adv-x="500" 
d="M208 552l118 144q21 26 29.5 33t21.5 7q14 0 24 -10.5t10 -24.5t-18 -27l-171 -122h-14zM454 248h-308q0 -6 -0.5 -21t-0.5 -26q0 -40 4.5 -70t17 -62.5t40.5 -50.5t70 -18q41 0 71.5 12t47 33.5t23 35t12.5 32.5l15 -3q-6 -20 -12.5 -33t-24.5 -38t-52 -39t-81 -14
q-101 0 -166 62.5t-65 163.5q0 90 66 160t159 70q30 0 60.5 -10.5t59 -31.5t46.5 -60.5t18 -91.5zM147 262h205q2 19 2 51q0 64 -23 89.5t-65 25.5q-62 0 -88 -45t-31 -121z" />
    <glyph glyph-name="ecircumflex" unicode="&#xea;" horiz-adv-x="500" 
d="M109 552l113 167h56l113 -167h-14l-127 105l-127 -105h-14zM454 248h-308q0 -6 -0.5 -21t-0.5 -26q0 -40 4.5 -70t17 -62.5t40.5 -50.5t70 -18q41 0 71.5 12t47 33.5t23 35t12.5 32.5l15 -3q-6 -20 -12.5 -33t-24.5 -38t-52 -39t-81 -14q-101 0 -166 62.5t-65 163.5
q0 90 66 160t159 70q30 0 60.5 -10.5t59 -31.5t46.5 -60.5t18 -91.5zM147 262h205q2 19 2 51q0 64 -23 89.5t-65 25.5q-62 0 -88 -45t-31 -121z" />
    <glyph glyph-name="edieresis" unicode="&#xeb;" horiz-adv-x="500" 
d="M297 662q0 19 13.5 32.5t32.5 13.5t32.5 -13.5t13.5 -32.5t-13.5 -32.5t-32.5 -13.5t-32.5 13.5t-13.5 32.5zM111 662q0 19 13.5 32.5t32.5 13.5t32.5 -13.5t13.5 -32.5t-13.5 -32.5t-32.5 -13.5t-32.5 13.5t-13.5 32.5zM454 248h-308q0 -6 -0.5 -21t-0.5 -26
q0 -40 4.5 -70t17 -62.5t40.5 -50.5t70 -18q41 0 71.5 12t47 33.5t23 35t12.5 32.5l15 -3q-6 -20 -12.5 -33t-24.5 -38t-52 -39t-81 -14q-101 0 -166 62.5t-65 163.5q0 90 66 160t159 70q30 0 60.5 -10.5t59 -31.5t46.5 -60.5t18 -91.5zM147 262h205q2 19 2 51
q0 64 -23 89.5t-65 25.5q-62 0 -88 -45t-31 -121z" />
    <glyph glyph-name="igrave" unicode="&#xec;" horiz-adv-x="296" 
d="M200 552l-171 122q-18 13 -18 27t10 24.5t24 10.5q13 0 21.5 -7t29.5 -33l118 -144h-14zM28 0v14h77v401h-77v14h163v-415h77v-14h-240z" />
    <glyph glyph-name="iacute" unicode="&#xed;" horiz-adv-x="296" 
d="M106 552l118 144q21 26 29.5 33t21.5 7q14 0 24 -10.5t10 -24.5t-18 -27l-171 -122h-14zM28 0v14h77v401h-77v14h163v-415h77v-14h-240z" />
    <glyph glyph-name="icircumflex" unicode="&#xee;" horiz-adv-x="296" 
d="M7 552l113 167h56l113 -167h-14l-127 105l-127 -105h-14zM28 0v14h77v401h-77v14h163v-415h77v-14h-240z" />
    <glyph glyph-name="idieresis" unicode="&#xef;" horiz-adv-x="296" 
d="M195 662q0 19 13.5 32.5t32.5 13.5t32.5 -13.5t13.5 -32.5t-13.5 -32.5t-32.5 -13.5t-32.5 13.5t-13.5 32.5zM9 662q0 19 13.5 32.5t32.5 13.5t32.5 -13.5t13.5 -32.5t-13.5 -32.5t-32.5 -13.5t-32.5 13.5t-13.5 32.5zM28 0v14h77v401h-77v14h163v-415h77v-14h-240z" />
    <glyph glyph-name="eth" unicode="&#xf0;" horiz-adv-x="556" 
d="M127 551l116 69q-72 60 -125 84l7 11q84 -34 147 -78l119 70l6 -11l-114 -67q101 -71 164.5 -172.5t63.5 -224.5q0 -60 -21.5 -108.5t-56.5 -77.5t-75 -44.5t-80 -15.5q-90 0 -161.5 67.5t-71.5 160.5q0 95 74 161.5t159 66.5q69 0 101 -40l2 2q-19 65 -56.5 120.5
t-71.5 86.5l-120 -71zM145 214q0 -55 7.5 -94.5t19 -62.5t29.5 -36t35.5 -17t41.5 -4t41.5 4t35.5 17t29.5 36t19 62.5t7.5 94.5q0 117 -32 165.5t-101 48.5t-101 -48.5t-32 -165.5z" />
    <glyph glyph-name="ntilde" unicode="&#xf1;" horiz-adv-x="611" 
d="M448 678h14q-2 -13 -10 -33.5t-32.5 -44.5t-58.5 -24q-28 0 -72 24q-44 23 -63 23q-46 0 -62 -47h-14q8 44 36.5 71.5t59.5 27.5q19 0 69 -23q46 -24 68 -24q19 0 35 12t21.5 21t8.5 17zM25 0v14h77v401h-77v14h161v-107h2q54 118 172 118q69 0 109 -33.5t40 -100.5v-292
h77v-14h-240v14h77v323q0 41 -19 65t-57 24q-65 0 -112 -53.5t-47 -132.5v-226h77v-14h-240z" />
    <glyph glyph-name="ograve" unicode="&#xf2;" horiz-adv-x="556" 
d="M330 552l-171 122q-18 13 -18 27t10 24.5t24 10.5q13 0 21.5 -7t29.5 -33l118 -144h-14zM45 214q0 95 74 161.5t159 66.5t159 -66.5t74 -161.5q0 -93 -71.5 -160.5t-161.5 -67.5t-161.5 67.5t-71.5 160.5zM145 214q0 -55 7.5 -94.5t19 -62.5t29.5 -36t35.5 -17t41.5 -4
t41.5 4t35.5 17t29.5 36t19 62.5t7.5 94.5q0 117 -32 165.5t-101 48.5t-101 -48.5t-32 -165.5z" />
    <glyph glyph-name="oacute" unicode="&#xf3;" horiz-adv-x="556" 
d="M236 552l118 144q21 26 29.5 33t21.5 7q14 0 24 -10.5t10 -24.5t-18 -27l-171 -122h-14zM45 214q0 95 74 161.5t159 66.5t159 -66.5t74 -161.5q0 -93 -71.5 -160.5t-161.5 -67.5t-161.5 67.5t-71.5 160.5zM145 214q0 -55 7.5 -94.5t19 -62.5t29.5 -36t35.5 -17t41.5 -4
t41.5 4t35.5 17t29.5 36t19 62.5t7.5 94.5q0 117 -32 165.5t-101 48.5t-101 -48.5t-32 -165.5z" />
    <glyph glyph-name="ocircumflex" unicode="&#xf4;" horiz-adv-x="556" 
d="M137 552l113 167h56l113 -167h-14l-127 105l-127 -105h-14zM45 214q0 95 74 161.5t159 66.5t159 -66.5t74 -161.5q0 -93 -71.5 -160.5t-161.5 -67.5t-161.5 67.5t-71.5 160.5zM145 214q0 -55 7.5 -94.5t19 -62.5t29.5 -36t35.5 -17t41.5 -4t41.5 4t35.5 17t29.5 36
t19 62.5t7.5 94.5q0 117 -32 165.5t-101 48.5t-101 -48.5t-32 -165.5z" />
    <glyph glyph-name="otilde" unicode="&#xf5;" horiz-adv-x="556" 
d="M420 678h14q-2 -13 -10 -33.5t-32.5 -44.5t-58.5 -24q-28 0 -72 24q-44 23 -63 23q-46 0 -62 -47h-14q8 44 36.5 71.5t59.5 27.5q19 0 69 -23q46 -24 68 -24q19 0 35 12t21.5 21t8.5 17zM45 214q0 95 74 161.5t159 66.5t159 -66.5t74 -161.5q0 -93 -71.5 -160.5
t-161.5 -67.5t-161.5 67.5t-71.5 160.5zM145 214q0 -55 7.5 -94.5t19 -62.5t29.5 -36t35.5 -17t41.5 -4t41.5 4t35.5 17t29.5 36t19 62.5t7.5 94.5q0 117 -32 165.5t-101 48.5t-101 -48.5t-32 -165.5z" />
    <glyph glyph-name="odieresis" unicode="&#xf6;" horiz-adv-x="556" 
d="M325 662q0 19 13.5 32.5t32.5 13.5t32.5 -13.5t13.5 -32.5t-13.5 -32.5t-32.5 -13.5t-32.5 13.5t-13.5 32.5zM139 662q0 19 13.5 32.5t32.5 13.5t32.5 -13.5t13.5 -32.5t-13.5 -32.5t-32.5 -13.5t-32.5 13.5t-13.5 32.5zM45 214q0 95 74 161.5t159 66.5t159 -66.5
t74 -161.5q0 -93 -71.5 -160.5t-161.5 -67.5t-161.5 67.5t-71.5 160.5zM145 214q0 -55 7.5 -94.5t19 -62.5t29.5 -36t35.5 -17t41.5 -4t41.5 4t35.5 17t29.5 36t19 62.5t7.5 94.5q0 117 -32 165.5t-101 48.5t-101 -48.5t-32 -165.5z" />
    <glyph glyph-name="divide" unicode="&#xf7;" horiz-adv-x="593" 
d="M243 399q0 22 15.5 37.5t37.5 15.5t37.5 -15.5t15.5 -37.5t-15.5 -37.5t-37.5 -15.5t-37.5 15.5t-15.5 37.5zM56 231v18h480v-18h-480zM243 81q0 22 15.5 37.5t37.5 15.5t37.5 -15.5t15.5 -37.5t-15.5 -37.5t-37.5 -15.5t-37.5 15.5t-15.5 37.5z" />
    <glyph glyph-name="oslash" unicode="&#xf8;" horiz-adv-x="556" 
d="M127 -72l44 88q-56 29 -91 82t-35 116q0 95 74 161.5t159 66.5q46 0 94 -24l44 88l13 -6l-44 -88q55 -30 90.5 -82.5t35.5 -115.5q0 -93 -71.5 -160.5t-161.5 -67.5q-51 0 -95 23l-43 -87zM183 40l179 358q-29 30 -84 30q-69 0 -101 -48.5t-32 -165.5q0 -126 38 -174z
M373 387l-180 -358q28 -29 85 -29q24 0 41.5 4t35.5 17t29.5 36t19 62.5t7.5 94.5q0 127 -38 173z" />
    <glyph glyph-name="ugrave" unicode="&#xf9;" horiz-adv-x="593" 
d="M349 552l-171 122q-18 13 -18 27t10 24.5t24 10.5q13 0 21.5 -7t29.5 -33l118 -144h-14zM569 14v-14h-161v101h-2q-51 -115 -153 -115q-65 0 -104 28q-14 10 -22 18.5t-17 35t-9 63.5v284h-77v14h163v-307q0 -122 85 -122q48 0 91 52.5t43 130.5v232h-76v14h162v-415h77z
" />
    <glyph glyph-name="uacute" unicode="&#xfa;" horiz-adv-x="593" 
d="M255 552l118 144q21 26 29.5 33t21.5 7q14 0 24 -10.5t10 -24.5t-18 -27l-171 -122h-14zM569 14v-14h-161v101h-2q-51 -115 -153 -115q-65 0 -104 28q-14 10 -22 18.5t-17 35t-9 63.5v284h-77v14h163v-307q0 -122 85 -122q48 0 91 52.5t43 130.5v232h-76v14h162v-415h77z
" />
    <glyph glyph-name="ucircumflex" unicode="&#xfb;" horiz-adv-x="593" 
d="M156 552l113 167h56l113 -167h-14l-127 105l-127 -105h-14zM569 14v-14h-161v101h-2q-51 -115 -153 -115q-65 0 -104 28q-14 10 -22 18.5t-17 35t-9 63.5v284h-77v14h163v-307q0 -122 85 -122q48 0 91 52.5t43 130.5v232h-76v14h162v-415h77z" />
    <glyph glyph-name="udieresis" unicode="&#xfc;" horiz-adv-x="593" 
d="M344 662q0 19 13.5 32.5t32.5 13.5t32.5 -13.5t13.5 -32.5t-13.5 -32.5t-32.5 -13.5t-32.5 13.5t-13.5 32.5zM158 662q0 19 13.5 32.5t32.5 13.5t32.5 -13.5t13.5 -32.5t-13.5 -32.5t-32.5 -13.5t-32.5 13.5t-13.5 32.5zM569 14v-14h-161v101h-2q-51 -115 -153 -115
q-65 0 -104 28q-14 10 -22 18.5t-17 35t-9 63.5v284h-77v14h163v-307q0 -122 85 -122q48 0 91 52.5t43 130.5v232h-76v14h162v-415h77z" />
    <glyph glyph-name="yacute" unicode="&#xfd;" horiz-adv-x="481" 
d="M199 552l118 144q21 26 29.5 33t21.5 7q14 0 24 -10.5t10 -24.5t-18 -27l-171 -122h-14zM-5 415v14h245v-14h-84l129 -314l135 314h-83v14h153v-14h-54l-165 -386q-10 -24 -70 -174q-30 -76 -59 -108.5t-74 -32.5q-50 0 -70 25t-20 52q0 24 13.5 37t34.5 13q18 0 32.5 -8
t14.5 -27q0 -9 -8.5 -26.5t-8.5 -27.5q0 -21 26 -21q32 0 54.5 30.5t56.5 113.5l44 112l-173 428h-69z" />
    <glyph glyph-name="thorn" unicode="&#xfe;" horiz-adv-x="593" 
d="M28 -280v14h77v973h-77v14h163v-373h2q12 35 45 64.5t92 29.5q85 0 148 -67.5t63 -157.5q0 -92 -65 -161.5t-153 -69.5q-32 0 -57 11t-39.5 28t-22 31t-11.5 27h-2v-349h77v-14h-240zM441 229q0 100 -24.5 149.5t-90.5 49.5q-65 0 -100 -46q-21 -26 -28 -66.5t-7 -119.5
q0 -196 131 -196q32 0 54.5 11t35 28.5t19 49.5t8.5 62t2 78z" />
    <glyph glyph-name="ydieresis" unicode="&#xff;" horiz-adv-x="481" 
d="M304 662q0 19 13.5 32.5t32.5 13.5t32.5 -13.5t13.5 -32.5t-13.5 -32.5t-32.5 -13.5t-32.5 13.5t-13.5 32.5zM118 662q0 19 13.5 32.5t32.5 13.5t32.5 -13.5t13.5 -32.5t-13.5 -32.5t-32.5 -13.5t-32.5 13.5t-13.5 32.5zM-5 415v14h245v-14h-84l129 -314l135 314h-83v14
h153v-14h-54l-165 -386q-10 -24 -70 -174q-30 -76 -59 -108.5t-74 -32.5q-50 0 -70 25t-20 52q0 24 13.5 37t34.5 13q18 0 32.5 -8t14.5 -27q0 -9 -8.5 -26.5t-8.5 -27.5q0 -21 26 -21q32 0 54.5 30.5t56.5 113.5l44 112l-173 428h-69z" />
    <glyph glyph-name="Amacron" unicode="&#x100;" horiz-adv-x="741" 
d="M-1 0v14h88l270 716h24l272 -716h89v-14h-308v14h111l-105 278h-232l-105 -278h111v-14h-215zM214 306h220l-110 291zM231 807v31h280v-31h-280z" />
    <glyph glyph-name="amacron" unicode="&#x101;" horiz-adv-x="481" 
d="M470 22l8 -11q-33 -25 -75 -25q-46 0 -68 19.5t-31 58.5h-2q-31 -78 -132 -78q-129 0 -129 97q0 20 4.5 35.5t14 27t19 19.5t26.5 15t28 10.5t32.5 10t31.5 9.5q72 23 90.5 40.5t18.5 74.5q0 53 -15.5 78t-61.5 25q-76 0 -76 -49q0 -13 3 -33.5t3 -24.5
q0 -14 -10.5 -23.5t-28.5 -9.5q-30 0 -39.5 10.5t-9.5 32.5q0 47 41.5 79t114.5 32q86 0 124 -39t38 -99v-249q0 -49 35 -49q24 0 46 16zM303 145v100h-2q-2 -13 -33 -26l-75 -30q-66 -27 -66 -95q0 -88 74 -88q102 0 102 139zM99 602v31h280v-31h-280z" />
    <glyph glyph-name="Abreve" unicode="&#x102;" horiz-adv-x="741" 
d="M-1 0v14h88l270 716h24l272 -716h89v-14h-308v14h111l-105 278h-232l-105 -278h111v-14h-215zM214 306h220l-110 291zM239 912h14q6 -38 33.5 -68.5t84.5 -30.5t84.5 30.5t33.5 68.5h14q-6 -155 -132 -155t-132 155z" />
    <glyph glyph-name="abreve" unicode="&#x103;" horiz-adv-x="481" 
d="M470 22l8 -11q-33 -25 -75 -25q-46 0 -68 19.5t-31 58.5h-2q-31 -78 -132 -78q-129 0 -129 97q0 20 4.5 35.5t14 27t19 19.5t26.5 15t28 10.5t32.5 10t31.5 9.5q72 23 90.5 40.5t18.5 74.5q0 53 -15.5 78t-61.5 25q-76 0 -76 -49q0 -13 3 -33.5t3 -24.5
q0 -14 -10.5 -23.5t-28.5 -9.5q-30 0 -39.5 10.5t-9.5 32.5q0 47 41.5 79t114.5 32q86 0 124 -39t38 -99v-249q0 -49 35 -49q24 0 46 16zM303 145v100h-2q-2 -13 -33 -26l-75 -30q-66 -27 -66 -95q0 -88 74 -88q102 0 102 139zM107 707h14q6 -38 33.5 -68.5t84.5 -30.5
t84.5 30.5t33.5 68.5h14q-6 -155 -132 -155t-132 155z" />
    <glyph glyph-name="Aogonek" unicode="&#x104;" horiz-adv-x="741" 
d="M608 -156l8 -12q-40 -32 -87 -32q-37 0 -63.5 17t-26.5 49q0 38 40.5 68.5t116.5 65.5h-162v14h111l-105 278h-232l-105 -278h111v-14h-215v14h88l270 716h24l272 -716h89v-14h-126q-62 -44 -84.5 -71t-22.5 -50q0 -20 14.5 -36t40.5 -16q20 0 44 17zM434 306l-110 291
l-110 -291h220z" />
    <glyph glyph-name="aogonek" unicode="&#x105;" horiz-adv-x="481" 
d="M416 -156l8 -12q-40 -32 -87 -32q-37 0 -63.5 17t-26.5 49q0 35 35 64t96 58q-60 9 -74 76h-2q-31 -78 -132 -78q-129 0 -129 97q0 20 4.5 35.5t14 27t19 19.5t26.5 15t28 10.5t32.5 10t31.5 9.5q72 23 90.5 40.5t18.5 74.5q0 53 -15.5 78t-61.5 25q-76 0 -76 -49
q0 -13 3 -33.5t3 -24.5q0 -14 -10.5 -23.5t-28.5 -9.5q-30 0 -39.5 10.5t-9.5 32.5q0 47 41.5 79t114.5 32q86 0 124 -39t38 -99v-249q0 -49 35 -49q24 0 46 16l8 -11q-31 -24 -74 -25q-49 -37 -68 -61.5t-19 -45.5q0 -20 14.5 -36t40.5 -16q20 0 44 17zM303 145v100h-2
q-2 -13 -33 -26l-75 -30q-66 -27 -66 -95q0 -88 74 -88q102 0 102 139z" />
    <glyph glyph-name="Cacute" unicode="&#x106;" horiz-adv-x="722" 
d="M192 83q-115 115 -115 271q0 99 46 185.5t129 138.5t182 52q47 0 98 -19.5t66 -19.5q27 0 44 21h15v-200h-11q-10 44 -23.5 76t-38 63.5t-64.5 48t-95 16.5q-61 0 -105.5 -24t-68.5 -59t-38 -87.5t-17.5 -95t-3.5 -96.5q0 -83 11 -145t31 -101.5t50 -64t64 -34.5t77 -10
q37 0 67.5 7t52 17t39.5 29t28 33.5t20.5 41t15 42t12.5 44.5h11v-213h-15q-19 21 -44 21q-13 0 -72.5 -18t-112.5 -18q-136 0 -235 98zM385 757l118 144q21 26 29.5 33t21.5 7q14 0 24 -10.5t10 -24.5t-18 -27l-171 -122h-14z" />
    <glyph glyph-name="cacute" unicode="&#x107;" horiz-adv-x="481" 
d="M431 113l15 -3q-6 -20 -12.5 -33t-24.5 -38t-52 -39t-81 -14q-41 0 -79.5 12.5t-73.5 37.5t-56.5 70.5t-21.5 105.5q0 97 68 163.5t165 66.5q62 0 112 -29t50 -85q0 -21 -14 -34.5t-38 -13.5q-20 0 -34 8t-14 25q0 10 7 34.5t7 32.5q0 22 -22 35t-54 13q-21 0 -36.5 -3
t-35 -15.5t-32 -35t-21 -64.5t-8.5 -101q0 -46 5.5 -81t19.5 -65.5t41 -46.5t66 -16q41 0 71.5 12t47 33.5t23 35t12.5 32.5zM223 552l118 144q21 26 29.5 33t21.5 7q14 0 24 -10.5t10 -24.5t-18 -27l-171 -122h-14z" />
    <glyph glyph-name="Ccircumflex" unicode="&#x108;" horiz-adv-x="722" 
d="M192 83q-115 115 -115 271q0 99 46 185.5t129 138.5t182 52q47 0 98 -19.5t66 -19.5q27 0 44 21h15v-200h-11q-10 44 -23.5 76t-38 63.5t-64.5 48t-95 16.5q-61 0 -105.5 -24t-68.5 -59t-38 -87.5t-17.5 -95t-3.5 -96.5q0 -83 11 -145t31 -101.5t50 -64t64 -34.5t77 -10
q37 0 67.5 7t52 17t39.5 29t28 33.5t20.5 41t15 42t12.5 44.5h11v-213h-15q-19 21 -44 21q-13 0 -72.5 -18t-112.5 -18q-136 0 -235 98zM288 757l113 167h56l113 -167h-14l-127 105l-127 -105h-14z" />
    <glyph glyph-name="ccircumflex" unicode="&#x109;" horiz-adv-x="481" 
d="M431 113l15 -3q-6 -20 -12.5 -33t-24.5 -38t-52 -39t-81 -14q-41 0 -79.5 12.5t-73.5 37.5t-56.5 70.5t-21.5 105.5q0 97 68 163.5t165 66.5q62 0 112 -29t50 -85q0 -21 -14 -34.5t-38 -13.5q-20 0 -34 8t-14 25q0 10 7 34.5t7 32.5q0 22 -22 35t-54 13q-21 0 -36.5 -3
t-35 -15.5t-32 -35t-21 -64.5t-8.5 -101q0 -46 5.5 -81t19.5 -65.5t41 -46.5t66 -16q41 0 71.5 12t47 33.5t23 35t12.5 32.5zM138 552l113 167h56l113 -167h-14l-127 105l-127 -105h-14z" />
    <glyph glyph-name="Cdotaccent" unicode="&#x10a;" horiz-adv-x="722" 
d="M192 83q-115 115 -115 271q0 99 46 185.5t129 138.5t182 52q47 0 98 -19.5t66 -19.5q27 0 44 21h15v-200h-11q-10 44 -23.5 76t-38 63.5t-64.5 48t-95 16.5q-61 0 -105.5 -24t-68.5 -59t-38 -87.5t-17.5 -95t-3.5 -96.5q0 -83 11 -145t31 -101.5t50 -64t64 -34.5t77 -10
q37 0 67.5 7t52 17t39.5 29t28 33.5t20.5 41t15 42t12.5 44.5h11v-213h-15q-19 21 -44 21q-13 0 -72.5 -18t-112.5 -18q-136 0 -235 98zM383 867q0 19 13.5 32.5t32.5 13.5t32.5 -13.5t13.5 -32.5t-13.5 -32.5t-32.5 -13.5t-32.5 13.5t-13.5 32.5z" />
    <glyph glyph-name="cdotaccent" unicode="&#x10b;" horiz-adv-x="481" 
d="M431 113l15 -3q-6 -20 -12.5 -33t-24.5 -38t-52 -39t-81 -14q-41 0 -79.5 12.5t-73.5 37.5t-56.5 70.5t-21.5 105.5q0 97 68 163.5t165 66.5q62 0 112 -29t50 -85q0 -21 -14 -34.5t-38 -13.5q-20 0 -34 8t-14 25q0 10 7 34.5t7 32.5q0 22 -22 35t-54 13q-21 0 -36.5 -3
t-35 -15.5t-32 -35t-21 -64.5t-8.5 -101q0 -46 5.5 -81t19.5 -65.5t41 -46.5t66 -16q41 0 71.5 12t47 33.5t23 35t12.5 32.5zM233 662q0 19 13.5 32.5t32.5 13.5t32.5 -13.5t13.5 -32.5t-13.5 -32.5t-32.5 -13.5t-32.5 13.5t-13.5 32.5z" />
    <glyph glyph-name="Ccaron" unicode="&#x10c;" horiz-adv-x="722" 
d="M192 83q-115 115 -115 271q0 99 46 185.5t129 138.5t182 52q47 0 98 -19.5t66 -19.5q27 0 44 21h15v-200h-11q-10 44 -23.5 76t-38 63.5t-64.5 48t-95 16.5q-61 0 -105.5 -24t-68.5 -59t-38 -87.5t-17.5 -95t-3.5 -96.5q0 -83 11 -145t31 -101.5t50 -64t64 -34.5t77 -10
q37 0 67.5 7t52 17t39.5 29t28 33.5t20.5 41t15 42t12.5 44.5h11v-213h-15q-19 21 -44 21q-13 0 -72.5 -18t-112.5 -18q-136 0 -235 98zM570 924l-113 -167h-56l-113 167h14l127 -105l127 105h14z" />
    <glyph glyph-name="ccaron" unicode="&#x10d;" horiz-adv-x="481" 
d="M431 113l15 -3q-6 -20 -12.5 -33t-24.5 -38t-52 -39t-81 -14q-41 0 -79.5 12.5t-73.5 37.5t-56.5 70.5t-21.5 105.5q0 97 68 163.5t165 66.5q62 0 112 -29t50 -85q0 -21 -14 -34.5t-38 -13.5q-20 0 -34 8t-14 25q0 10 7 34.5t7 32.5q0 22 -22 35t-54 13q-21 0 -36.5 -3
t-35 -15.5t-32 -35t-21 -64.5t-8.5 -101q0 -46 5.5 -81t19.5 -65.5t41 -46.5t66 -16q41 0 71.5 12t47 33.5t23 35t12.5 32.5zM420 719l-113 -167h-56l-113 167h14l127 -105l127 105h14z" />
    <glyph glyph-name="Dcaron" unicode="&#x10e;" horiz-adv-x="815" 
d="M30 0v14h111v684h-111v14h186q18 0 56 2q10 0 28.5 0.5t27.5 0.5q106 0 176 -23q117 -38 175.5 -127.5t58.5 -208.5q0 -124 -56.5 -206.5t-149.5 -122.5q-46 -20 -85.5 -25.5t-115.5 -5.5q-20 0 -66 2t-65 2h-170zM241 14q46 -4 89 -4q81 0 139.5 22t96.5 86
q57 95 57 234q0 169 -68.5 259t-228.5 90q-10 0 -85 -3v-684zM472 924l-113 -167h-56l-113 167h14l127 -105l127 105h14z" />
    <glyph glyph-name="dcaron" unicode="&#x10f;" horiz-adv-x="593" 
d="M325 707v14h163v-707h77v-14h-161v87h-2q-33 -101 -132 -101q-88 0 -153 69.5t-65 161.5q0 90 63 157.5t148 67.5q52 0 87.5 -26t49.5 -67h2v358h-77zM152 229q0 -48 2 -78t8.5 -62t19 -49.5t35 -28.5t54.5 -11q131 0 131 196q0 79 -7 119.5t-28 66.5q-35 46 -100 46
q-66 0 -90.5 -49.5t-24.5 -149.5zM526 536l32 125q8 32 13 42t17 15q6 3 13 3q22 0 32 -20q3 -6 3 -11q0 -11 -8 -21l-89 -133h-13z" />
    <glyph glyph-name="Dcroat" unicode="&#x110;" horiz-adv-x="815" 
d="M30 0v14h111v361h-111v14h111v309h-111v14h186q18 0 56 2q10 0 28.5 0.5t27.5 0.5q106 0 176 -23q117 -38 175.5 -127.5t58.5 -208.5q0 -124 -56.5 -206.5t-149.5 -122.5q-46 -20 -85.5 -25.5t-115.5 -5.5q-20 0 -66 2t-65 2h-170zM241 698v-309h148v-14h-148v-361
q46 -4 89 -4q81 0 139.5 22t96.5 86q57 95 57 234q0 169 -68.5 259t-228.5 90q-10 0 -85 -3z" />
    <glyph glyph-name="dcroat" unicode="&#x111;" horiz-adv-x="593" 
d="M266 553v21h136v133h-77v14h163v-147h63v-21h-63v-539h77v-14h-161v87h-2q-33 -101 -132 -101q-88 0 -153 69.5t-65 161.5q0 90 63 157.5t148 67.5q52 0 87.5 -26t49.5 -67h2v204h-136zM152 229q0 -48 2 -78t8.5 -62t19 -49.5t35 -28.5t54.5 -11q131 0 131 196
q0 79 -7 119.5t-28 66.5q-35 46 -100 46q-66 0 -90.5 -49.5t-24.5 -149.5z" />
    <glyph glyph-name="Emacron" unicode="&#x112;" horiz-adv-x="704" 
d="M30 0v14h111v684h-111v14h572v-173h-11q-27 84 -66.5 121.5t-117.5 37.5h-166v-309h65q67 0 95.5 28.5t50.5 118.5h11v-311h-11q-7 32 -11 46.5t-14.5 38.5t-22.5 35.5t-33 20.5t-49 9h-81v-361h189q42 0 76 15.5t55 38.5t36.5 52.5t22 53.5t9.5 45h11v-219h-610z
M217 807v31h280v-31h-280z" />
    <glyph glyph-name="emacron" unicode="&#x113;" horiz-adv-x="500" 
d="M454 248h-308q0 -6 -0.5 -21t-0.5 -26q0 -40 4.5 -70t17 -62.5t40.5 -50.5t70 -18q41 0 71.5 12t47 33.5t23 35t12.5 32.5l15 -3q-6 -20 -12.5 -33t-24.5 -38t-52 -39t-81 -14q-101 0 -166 62.5t-65 163.5q0 90 66 160t159 70q30 0 60.5 -10.5t59 -31.5t46.5 -60.5
t18 -91.5zM147 262h205q2 19 2 51q0 64 -23 89.5t-65 25.5q-62 0 -88 -45t-31 -121zM117 602v31h280v-31h-280z" />
    <glyph glyph-name="Ebreve" unicode="&#x114;" horiz-adv-x="704" 
d="M30 0v14h111v684h-111v14h572v-173h-11q-27 84 -66.5 121.5t-117.5 37.5h-166v-309h65q67 0 95.5 28.5t50.5 118.5h11v-311h-11q-7 32 -11 46.5t-14.5 38.5t-22.5 35.5t-33 20.5t-49 9h-81v-361h189q42 0 76 15.5t55 38.5t36.5 52.5t22 53.5t9.5 45h11v-219h-610z
M225 912h14q6 -38 33.5 -68.5t84.5 -30.5t84.5 30.5t33.5 68.5h14q-6 -155 -132 -155t-132 155z" />
    <glyph glyph-name="ebreve" unicode="&#x115;" horiz-adv-x="500" 
d="M454 248h-308q0 -6 -0.5 -21t-0.5 -26q0 -40 4.5 -70t17 -62.5t40.5 -50.5t70 -18q41 0 71.5 12t47 33.5t23 35t12.5 32.5l15 -3q-6 -20 -12.5 -33t-24.5 -38t-52 -39t-81 -14q-101 0 -166 62.5t-65 163.5q0 90 66 160t159 70q30 0 60.5 -10.5t59 -31.5t46.5 -60.5
t18 -91.5zM147 262h205q2 19 2 51q0 64 -23 89.5t-65 25.5q-62 0 -88 -45t-31 -121zM125 707h14q6 -38 33.5 -68.5t84.5 -30.5t84.5 30.5t33.5 68.5h14q-6 -155 -132 -155t-132 155z" />
    <glyph glyph-name="Edotaccent" unicode="&#x116;" horiz-adv-x="704" 
d="M30 0v14h111v684h-111v14h572v-173h-11q-27 84 -66.5 121.5t-117.5 37.5h-166v-309h65q67 0 95.5 28.5t50.5 118.5h11v-311h-11q-7 32 -11 46.5t-14.5 38.5t-22.5 35.5t-33 20.5t-49 9h-81v-361h189q42 0 76 15.5t55 38.5t36.5 52.5t22 53.5t9.5 45h11v-219h-610z
M311 867q0 19 13.5 32.5t32.5 13.5t32.5 -13.5t13.5 -32.5t-13.5 -32.5t-32.5 -13.5t-32.5 13.5t-13.5 32.5z" />
    <glyph glyph-name="edotaccent" unicode="&#x117;" horiz-adv-x="500" 
d="M454 248h-308q0 -6 -0.5 -21t-0.5 -26q0 -40 4.5 -70t17 -62.5t40.5 -50.5t70 -18q41 0 71.5 12t47 33.5t23 35t12.5 32.5l15 -3q-6 -20 -12.5 -33t-24.5 -38t-52 -39t-81 -14q-101 0 -166 62.5t-65 163.5q0 90 66 160t159 70q30 0 60.5 -10.5t59 -31.5t46.5 -60.5
t18 -91.5zM147 262h205q2 19 2 51q0 64 -23 89.5t-65 25.5q-62 0 -88 -45t-31 -121zM211 662q0 19 13.5 32.5t32.5 13.5t32.5 -13.5t13.5 -32.5t-13.5 -32.5t-32.5 -13.5t-32.5 13.5t-13.5 32.5z" />
    <glyph glyph-name="Eogonek" unicode="&#x118;" horiz-adv-x="704" 
d="M30 0v14h111v684h-111v14h572v-173h-11q-27 84 -66.5 121.5t-117.5 37.5h-166v-309h65q67 0 95.5 28.5t50.5 118.5h11v-311h-11q-7 32 -11 46.5t-14.5 38.5t-22.5 35.5t-33 20.5t-49 9h-81v-361h189q42 0 76 15.5t55 38.5t36.5 52.5t22 53.5t9.5 45h11v-219h-98
q-62 -44 -84.5 -71t-22.5 -50q0 -20 14.5 -36t40.5 -16q20 0 44 17l8 -12q-40 -32 -87 -32q-37 0 -63.5 17t-26.5 49q0 38 40.5 68.5t116.5 65.5h-492z" />
    <glyph glyph-name="eogonek" unicode="&#x119;" horiz-adv-x="500" 
d="M331 -156l8 -12q-40 -32 -87 -32q-37 0 -63.5 17t-26.5 49q0 34 34 62.5t94 57.5h-14q-101 0 -166 62.5t-65 163.5q0 90 66 160t159 70q30 0 60.5 -10.5t59 -31.5t46.5 -60.5t18 -91.5h-308q0 -6 -0.5 -21t-0.5 -26q0 -40 4.5 -70t17 -62.5t40.5 -50.5t70 -18
q41 0 71.5 12t47 33.5t23 35t12.5 32.5l15 -3q-5 -17 -10 -27.5t-18 -32t-36.5 -36.5t-54.5 -22q-54 -40 -74.5 -65.5t-20.5 -47.5q0 -20 14.5 -36t40.5 -16q20 0 44 17zM147 262h205q2 19 2 51q0 64 -23 89.5t-65 25.5q-62 0 -88 -45t-31 -121z" />
    <glyph glyph-name="Ecaron" unicode="&#x11a;" horiz-adv-x="704" 
d="M30 0v14h111v684h-111v14h572v-173h-11q-27 84 -66.5 121.5t-117.5 37.5h-166v-309h65q67 0 95.5 28.5t50.5 118.5h11v-311h-11q-7 32 -11 46.5t-14.5 38.5t-22.5 35.5t-33 20.5t-49 9h-81v-361h189q42 0 76 15.5t55 38.5t36.5 52.5t22 53.5t9.5 45h11v-219h-610z
M498 924l-113 -167h-56l-113 167h14l127 -105l127 105h14z" />
    <glyph glyph-name="ecaron" unicode="&#x11b;" horiz-adv-x="500" 
d="M454 248h-308q0 -6 -0.5 -21t-0.5 -26q0 -40 4.5 -70t17 -62.5t40.5 -50.5t70 -18q41 0 71.5 12t47 33.5t23 35t12.5 32.5l15 -3q-6 -20 -12.5 -33t-24.5 -38t-52 -39t-81 -14q-101 0 -166 62.5t-65 163.5q0 90 66 160t159 70q30 0 60.5 -10.5t59 -31.5t46.5 -60.5
t18 -91.5zM147 262h205q2 19 2 51q0 64 -23 89.5t-65 25.5q-62 0 -88 -45t-31 -121zM398 719l-113 -167h-56l-113 167h14l127 -105l127 105h14z" />
    <glyph glyph-name="Gcircumflex" unicode="&#x11c;" horiz-adv-x="796" 
d="M193 83q-116 116 -116 271q0 160 115 275q101 101 235 101q58 0 105 -19.5t65 -19.5q29 0 45 21h15v-200h-11q-4 25 -11 48t-23.5 53t-39 51.5t-60.5 36.5t-86 15t-86 -14t-63 -41t-42.5 -59.5t-26.5 -75.5t-12.5 -83.5t-3.5 -88.5q0 -228 88 -307q30 -27 62 -37.5
t83 -10.5q69 0 121 44.5t52 127.5v84h-129v14h305v-14h-80v-227h-12q-18 19 -40 19q-18 0 -46.5 -15.5t-72 -31t-98.5 -15.5q-134 0 -232 98zM280 757l113 167h56l113 -167h-14l-127 105l-127 -105h-14z" />
    <glyph glyph-name="gcircumflex" unicode="&#x11d;" horiz-adv-x="519" 
d="M44 65q0 76 95 119q-58 40 -58 108q0 66 56.5 108t121.5 42q74 0 125 -51q31 51 86 51q54 0 54 -45q0 -17 -11 -26.5t-24 -9.5q-12 0 -20 8t-11 17t-9 17t-15 8q-19 0 -39 -28q37 -40 37 -94q0 -58 -53.5 -98.5t-124.5 -40.5q-46 0 -101 26q-21 -9 -33 -16t-25 -23.5
t-13 -36.5q0 -49 68 -49h158q72 0 112.5 -34.5t40.5 -104.5q0 -84 -68.5 -141t-157.5 -57q-78 0 -128.5 33.5t-50.5 86.5q0 48 34 82t83 52v2q-67 0 -98 22t-31 73zM356 295q0 27 -3 47t-12 41.5t-30 33t-52 11.5q-52 0 -77.5 -32t-25.5 -101q0 -65 22.5 -98t81.5 -33
q51 0 73.5 32t22.5 99zM302 -30h-108q-25 -15 -36.5 -24t-24.5 -32.5t-13 -55.5q0 -65 40.5 -94.5t94.5 -29.5q70 0 115.5 39.5t45.5 93.5q0 103 -114 103zM118 552l113 167h56l113 -167h-14l-127 105l-127 -105h-14z" />
    <glyph glyph-name="Gbreve" unicode="&#x11e;" horiz-adv-x="796" 
d="M193 83q-116 116 -116 271q0 160 115 275q101 101 235 101q58 0 105 -19.5t65 -19.5q29 0 45 21h15v-200h-11q-4 25 -11 48t-23.5 53t-39 51.5t-60.5 36.5t-86 15t-86 -14t-63 -41t-42.5 -59.5t-26.5 -75.5t-12.5 -83.5t-3.5 -88.5q0 -228 88 -307q30 -27 62 -37.5
t83 -10.5q69 0 121 44.5t52 127.5v84h-129v14h305v-14h-80v-227h-12q-18 19 -40 19q-18 0 -46.5 -15.5t-72 -31t-98.5 -15.5q-134 0 -232 98zM289 912h14q6 -38 33.5 -68.5t84.5 -30.5t84.5 30.5t33.5 68.5h14q-6 -155 -132 -155t-132 155z" />
    <glyph glyph-name="gbreve" unicode="&#x11f;" horiz-adv-x="519" 
d="M44 65q0 76 95 119q-58 40 -58 108q0 66 56.5 108t121.5 42q74 0 125 -51q31 51 86 51q54 0 54 -45q0 -17 -11 -26.5t-24 -9.5q-12 0 -20 8t-11 17t-9 17t-15 8q-19 0 -39 -28q37 -40 37 -94q0 -58 -53.5 -98.5t-124.5 -40.5q-46 0 -101 26q-21 -9 -33 -16t-25 -23.5
t-13 -36.5q0 -49 68 -49h158q72 0 112.5 -34.5t40.5 -104.5q0 -84 -68.5 -141t-157.5 -57q-78 0 -128.5 33.5t-50.5 86.5q0 48 34 82t83 52v2q-67 0 -98 22t-31 73zM356 295q0 27 -3 47t-12 41.5t-30 33t-52 11.5q-52 0 -77.5 -32t-25.5 -101q0 -65 22.5 -98t81.5 -33
q51 0 73.5 32t22.5 99zM302 -30h-108q-25 -15 -36.5 -24t-24.5 -32.5t-13 -55.5q0 -65 40.5 -94.5t94.5 -29.5q70 0 115.5 39.5t45.5 93.5q0 103 -114 103zM127 707h14q6 -38 33.5 -68.5t84.5 -30.5t84.5 30.5t33.5 68.5h14q-6 -155 -132 -155t-132 155z" />
    <glyph glyph-name="Gdotaccent" unicode="&#x120;" horiz-adv-x="796" 
d="M193 83q-116 116 -116 271q0 160 115 275q101 101 235 101q58 0 105 -19.5t65 -19.5q29 0 45 21h15v-200h-11q-4 25 -11 48t-23.5 53t-39 51.5t-60.5 36.5t-86 15t-86 -14t-63 -41t-42.5 -59.5t-26.5 -75.5t-12.5 -83.5t-3.5 -88.5q0 -228 88 -307q30 -27 62 -37.5
t83 -10.5q69 0 121 44.5t52 127.5v84h-129v14h305v-14h-80v-227h-12q-18 19 -40 19q-18 0 -46.5 -15.5t-72 -31t-98.5 -15.5q-134 0 -232 98zM375 867q0 19 13.5 32.5t32.5 13.5t32.5 -13.5t13.5 -32.5t-13.5 -32.5t-32.5 -13.5t-32.5 13.5t-13.5 32.5z" />
    <glyph glyph-name="gdotaccent" unicode="&#x121;" horiz-adv-x="519" 
d="M44 65q0 76 95 119q-58 40 -58 108q0 66 56.5 108t121.5 42q74 0 125 -51q31 51 86 51q54 0 54 -45q0 -17 -11 -26.5t-24 -9.5q-12 0 -20 8t-11 17t-9 17t-15 8q-19 0 -39 -28q37 -40 37 -94q0 -58 -53.5 -98.5t-124.5 -40.5q-46 0 -101 26q-21 -9 -33 -16t-25 -23.5
t-13 -36.5q0 -49 68 -49h158q72 0 112.5 -34.5t40.5 -104.5q0 -84 -68.5 -141t-157.5 -57q-78 0 -128.5 33.5t-50.5 86.5q0 48 34 82t83 52v2q-67 0 -98 22t-31 73zM356 295q0 27 -3 47t-12 41.5t-30 33t-52 11.5q-52 0 -77.5 -32t-25.5 -101q0 -65 22.5 -98t81.5 -33
q51 0 73.5 32t22.5 99zM302 -30h-108q-25 -15 -36.5 -24t-24.5 -32.5t-13 -55.5q0 -65 40.5 -94.5t94.5 -29.5q70 0 115.5 39.5t45.5 93.5q0 103 -114 103zM213 662q0 19 13.5 32.5t32.5 13.5t32.5 -13.5t13.5 -32.5t-13.5 -32.5t-32.5 -13.5t-32.5 13.5t-13.5 32.5z" />
    <glyph glyph-name="Gcommaaccent" unicode="&#x122;" horiz-adv-x="796" 
d="M193 83q-116 116 -116 271q0 160 115 275q101 101 235 101q58 0 105 -19.5t65 -19.5q29 0 45 21h15v-200h-11q-4 25 -11 48t-23.5 53t-39 51.5t-60.5 36.5t-86 15t-86 -14t-63 -41t-42.5 -59.5t-26.5 -75.5t-12.5 -83.5t-3.5 -88.5q0 -228 88 -307q30 -27 62 -37.5
t83 -10.5q69 0 121 44.5t52 127.5v84h-129v14h305v-14h-80v-227h-12q-18 19 -40 19q-18 0 -46.5 -15.5t-72 -31t-98.5 -15.5q-134 0 -232 98zM388 -246l-10 10q62 50 62 91q0 17 -11 30q-14 -14 -28 -14q-16 0 -27.5 11t-11.5 28q0 19 13.5 29.5t30.5 10.5q23 0 40.5 -19
t17.5 -49q0 -67 -76 -128z" />
    <glyph glyph-name="gcommaaccent" unicode="&#x123;" horiz-adv-x="519" 
d="M44 65q0 76 95 119q-58 40 -58 108q0 66 56.5 108t121.5 42q74 0 125 -51q31 51 86 51q54 0 54 -45q0 -17 -11 -26.5t-24 -9.5q-12 0 -20 8t-11 17t-9 17t-15 8q-19 0 -39 -28q37 -40 37 -94q0 -58 -53.5 -98.5t-124.5 -40.5q-46 0 -101 26q-21 -9 -33 -16t-25 -23.5
t-13 -36.5q0 -49 68 -49h158q72 0 112.5 -34.5t40.5 -104.5q0 -84 -68.5 -141t-157.5 -57q-78 0 -128.5 33.5t-50.5 86.5q0 48 34 82t83 52v2q-67 0 -98 22t-31 73zM356 295q0 27 -3 47t-12 41.5t-30 33t-52 11.5q-52 0 -77.5 -32t-25.5 -101q0 -65 22.5 -98t81.5 -33
q51 0 73.5 32t22.5 99zM302 -30h-108q-25 -15 -36.5 -24t-24.5 -32.5t-13 -55.5q0 -65 40.5 -94.5t94.5 -29.5q70 0 115.5 39.5t45.5 93.5q0 103 -114 103zM283 747l10 -10q-62 -50 -62 -91q0 -17 11 -30q14 14 28 14q16 0 27.5 -11t11.5 -28q0 -19 -13.5 -29.5t-30.5 -10.5
q-23 0 -40.5 19t-17.5 49q0 67 76 128z" />
    <glyph glyph-name="Hcircumflex" unicode="&#x124;" horiz-adv-x="815" 
d="M30 0v14h111v684h-111v14h322v-14h-111v-327h333v327h-111v14h322v-14h-111v-684h111v-14h-322v14h111v343h-333v-343h111v-14h-322zM266 757l113 167h56l113 -167h-14l-127 105l-127 -105h-14z" />
    <glyph glyph-name="hcircumflex" unicode="&#x125;" horiz-adv-x="611" 
d="M25 0v14h77v693h-77v14h163v-393h2q16 40 57 76t113 36q69 0 109 -33.5t40 -100.5v-292h77v-14h-240v14h77v323q0 41 -19 65t-57 24q-65 0 -112 -53.5t-47 -132.5v-226h77v-14h-240zM75 767l113 167h56l113 -167h-14l-127 105l-127 -105h-14z" />
    <glyph glyph-name="Hbar" unicode="&#x126;" horiz-adv-x="815" 
d="M30 0v14h111v684h-111v14h322v-14h-111v-152h333v152h-111v14h322v-14h-111v-684h111v-14h-322v14h111v343h-333v-343h111v-14h-322zM241 371h333v161h-333v-161z" />
    <glyph glyph-name="hbar" unicode="&#x127;" horiz-adv-x="611" 
d="M25 0v14h77v540h-63v21h63v132h-77v14h163v-146h146v-21h-146v-226h2q16 40 57 76t113 36q69 0 109 -33.5t40 -100.5v-292h77v-14h-240v14h77v323q0 41 -19 65t-57 24q-65 0 -112 -53.5t-47 -132.5v-226h77v-14h-240z" />
    <glyph glyph-name="Itilde" unicode="&#x128;" horiz-adv-x="388" 
d="M33 0v14h111v684h-111v14h322v-14h-111v-684h111v-14h-322zM337 883h14q-2 -13 -10 -33.5t-32.5 -44.5t-58.5 -24q-28 0 -72 24q-44 23 -63 23q-46 0 -62 -47h-14q8 44 36.5 71.5t59.5 27.5q19 0 69 -23q46 -24 68 -24q19 0 35 12t21.5 21t8.5 17z" />
    <glyph glyph-name="itilde" unicode="&#x129;" horiz-adv-x="296" 
d="M28 0v14h77v401h-77v14h163v-415h77v-14h-240zM291 678h14q-2 -13 -10 -33.5t-32.5 -44.5t-58.5 -24q-28 0 -72 24q-44 23 -63 23q-46 0 -62 -47h-14q8 44 36.5 71.5t59.5 27.5q19 0 69 -23q46 -24 68 -24q19 0 35 12t21.5 21t8.5 17z" />
    <glyph glyph-name="Imacron" unicode="&#x12a;" horiz-adv-x="388" 
d="M33 0v14h111v684h-111v14h322v-14h-111v-684h111v-14h-322zM55 807v31h280v-31h-280z" />
    <glyph glyph-name="imacron" unicode="&#x12b;" horiz-adv-x="296" 
d="M28 0v14h77v401h-77v14h163v-415h77v-14h-240zM9 602v31h280v-31h-280z" />
    <glyph glyph-name="Ibreve" unicode="&#x12c;" horiz-adv-x="388" 
d="M33 0v14h111v684h-111v14h322v-14h-111v-684h111v-14h-322zM60 912h14q6 -38 33.5 -68.5t84.5 -30.5t84.5 30.5t33.5 68.5h14q-6 -155 -132 -155t-132 155z" />
    <glyph glyph-name="ibreve" unicode="&#x12d;" horiz-adv-x="296" 
d="M28 0v14h77v401h-77v14h163v-415h77v-14h-240zM13 707h14q6 -38 33.5 -68.5t84.5 -30.5t84.5 30.5t33.5 68.5h14q-6 -155 -132 -155t-132 155z" />
    <glyph glyph-name="Iogonek" unicode="&#x12e;" horiz-adv-x="388" 
d="M33 0v14h111v684h-111v14h322v-14h-111v-684h111v-14h-99q-62 -44 -84.5 -71t-22.5 -50q0 -20 14.5 -36t40.5 -16q20 0 44 17l8 -12q-40 -32 -87 -32q-37 0 -63.5 17t-26.5 49q0 38 40.5 68.5t116.5 65.5h-203z" />
    <glyph glyph-name="iogonek" unicode="&#x12f;" horiz-adv-x="296" 
d="M93 662q0 22 15.5 37.5t37.5 15.5t37.5 -15.5t15.5 -37.5t-15.5 -37.5t-37.5 -15.5t-37.5 15.5t-15.5 37.5zM28 0v14h77v401h-77v14h163v-415h77v-14h-61q-62 -44 -84.5 -71t-22.5 -50q0 -20 14.5 -36t40.5 -16q20 0 44 17l8 -12q-40 -32 -87 -32q-37 0 -63.5 17
t-26.5 49q0 38 40.5 68.5t116.5 65.5h-159z" />
    <glyph glyph-name="Idotaccent" unicode="&#x130;" horiz-adv-x="388" 
d="M33 0v14h111v684h-111v14h322v-14h-111v-684h111v-14h-322zM149 867q0 19 13.5 32.5t32.5 13.5t32.5 -13.5t13.5 -32.5t-13.5 -32.5t-32.5 -13.5t-32.5 13.5t-13.5 32.5z" />
    <glyph glyph-name="dotlessi" unicode="&#x131;" horiz-adv-x="296" 
d="M28 0v14h77v401h-77v14h163v-415h77v-14h-240z" />
    <glyph glyph-name="Jcircumflex" unicode="&#x134;" horiz-adv-x="463" 
d="M14 94q0 31 17.5 49t49.5 18q27 0 39 -14.5t12 -30.5q0 -14 -9 -35t-9 -40q0 -42 50 -42q65 0 65 97v602h-111v14h322v-14h-111v-515q0 -89 -39.5 -143.5t-126.5 -54.5q-65 0 -107 30t-42 79zM136 757l113 167h56l113 -167h-14l-127 105l-127 -105h-14z" />
    <glyph glyph-name="jcircumflex" unicode="&#x135;" horiz-adv-x="296" 
d="M28 415v14h163v-449q0 -60 -5 -100t-9.5 -53t-13.5 -31q-40 -82 -124 -82q-38 0 -74 24.5t-36 66.5q0 23 12.5 35.5t32.5 12.5q36 0 36 -35q0 -7 -3.5 -23t-3.5 -28q0 -19 12.5 -29t29.5 -10q60 0 60 99v588h-77zM2 552l113 167h56l113 -167h-14l-127 105l-127 -105h-14z
" />
    <glyph glyph-name="Kcommaaccent" unicode="&#x136;" horiz-adv-x="741" 
d="M30 0v14h111v684h-111v14h314v-14h-103v-318h10l302 318h-104v14h207v-14h-83l-254 -269l363 -415h66v-14h-289v14h90l-300 352h-8v-352h103v-14h-314zM365 -246l-10 10q62 50 62 91q0 17 -11 30q-14 -14 -28 -14q-16 0 -27.5 11t-11.5 28q0 19 13.5 29.5t30.5 10.5
q23 0 40.5 -19t17.5 -49q0 -67 -76 -128z" />
    <glyph glyph-name="kcommaaccent" unicode="&#x137;" horiz-adv-x="537" 
d="M28 0v14h77v693h-77v14h163v-478h11l199 172h-71v14h155v-14h-60l-156 -134l221 -267h43v-14h-225v14h71l-177 215h-11v-215h55v-14h-218zM243 -246l-10 10q62 50 62 91q0 17 -11 30q-14 -14 -28 -14q-16 0 -27.5 11t-11.5 28q0 19 13.5 29.5t30.5 10.5q23 0 40.5 -19
t17.5 -49q0 -67 -76 -128z" />
    <glyph glyph-name="kgreenlandic" unicode="&#x138;" horiz-adv-x="537" 
d="M28 0v14h77v401h-77v14h163v-186h11l199 172h-71v14h155v-14h-60l-156 -134l221 -267h43v-14h-225v14h71l-177 215h-11v-215h55v-14h-218z" />
    <glyph glyph-name="Lacute" unicode="&#x139;" horiz-adv-x="685" 
d="M30 0v14h111v684h-111v14h322v-14h-111v-684h178q162 0 211 205h11v-219h-611zM125 757l118 144q21 26 29.5 33t21.5 7q14 0 24 -10.5t10 -24.5t-18 -27l-171 -122h-14z" />
    <glyph glyph-name="lacute" unicode="&#x13a;" horiz-adv-x="296" 
d="M28 0v14h77v693h-77v14h163v-707h77v-14h-240zM88 741l118 144q21 26 29.5 33t21.5 7q14 0 24 -10.5t10 -24.5t-18 -27l-171 -122h-14z" />
    <glyph glyph-name="Lcommaaccent" unicode="&#x13b;" horiz-adv-x="685" 
d="M30 0v14h111v684h-111v14h322v-14h-111v-684h178q162 0 211 205h11v-219h-611zM305 -233l-10 10q62 50 62 91q0 17 -11 30q-14 -14 -28 -14q-16 0 -27.5 11t-11.5 28q0 19 13.5 29.5t30.5 10.5q23 0 40.5 -19t17.5 -49q0 -67 -76 -128z" />
    <glyph glyph-name="lcommaaccent" unicode="&#x13c;" horiz-adv-x="296" 
d="M28 0v14h77v693h-77v14h163v-707h77v-14h-240zM119 -246l-10 10q62 50 62 91q0 17 -11 30q-14 -14 -28 -14q-16 0 -27.5 11t-11.5 28q0 19 13.5 29.5t30.5 10.5q23 0 40.5 -19t17.5 -49q0 -67 -76 -128z" />
    <glyph glyph-name="Lcaron" unicode="&#x13d;" horiz-adv-x="685" 
d="M30 0v14h111v684h-111v14h322v-14h-111v-684h178q162 0 211 205h11v-219h-611zM388 536l32 125q8 32 13 42t17 15q6 3 13 3q22 0 32 -20q3 -6 3 -11q0 -11 -8 -21l-89 -133h-13z" />
    <glyph glyph-name="lcaron" unicode="&#x13e;" horiz-adv-x="296" 
d="M28 0v14h77v693h-77v14h163v-707h77v-14h-240zM232 536l32 125q8 32 13 42t17 15q6 3 13 3q22 0 32 -20q3 -6 3 -11q0 -11 -8 -21l-89 -133h-13z" />
    <glyph glyph-name="Ldot" unicode="&#x13f;" horiz-adv-x="685" 
d="M30 0v14h111v684h-111v14h322v-14h-111v-684h178q162 0 211 205h11v-219h-611zM451 342q0 19 13.5 32.5t32.5 13.5t32.5 -13.5t13.5 -32.5t-13.5 -32.5t-32.5 -13.5t-32.5 13.5t-13.5 32.5z" />
    <glyph glyph-name="ldot" unicode="&#x140;" horiz-adv-x="414" 
d="M28 0v14h77v693h-77v14h163v-707h77v-14h-240zM299 342q0 19 13.5 32.5t32.5 13.5t32.5 -13.5t13.5 -32.5t-13.5 -32.5t-32.5 -13.5t-32.5 13.5t-13.5 32.5z" />
    <glyph glyph-name="Lslash" unicode="&#x141;" horiz-adv-x="685" 
d="M30 0v14h111v321l-111 -62v16l111 62v347h-111v14h322v-14h-111v-291l167 93v-16l-167 -93v-377h178q162 0 211 205h11v-219h-611z" />
    <glyph glyph-name="lslash" unicode="&#x142;" horiz-adv-x="296" 
d="M28 0v14h77v338l-77 -43v16l77 43v339h-77v14h163v-305l77 43v-16l-77 -43v-386h77v-14h-240z" />
    <glyph glyph-name="Nacute" unicode="&#x143;" horiz-adv-x="722" 
d="M21 0v14h111v684h-111v14h214l338 -545h2v531h-111v14h237v-14h-111v-712h-20l-421 671h-2v-643h111v-14h-237zM312 757l118 144q21 26 29.5 33t21.5 7q14 0 24 -10.5t10 -24.5t-18 -27l-171 -122h-14z" />
    <glyph glyph-name="nacute" unicode="&#x144;" horiz-adv-x="611" 
d="M25 0v14h77v401h-77v14h161v-107h2q54 118 172 118q69 0 109 -33.5t40 -100.5v-292h77v-14h-240v14h77v323q0 41 -19 65t-57 24q-65 0 -112 -53.5t-47 -132.5v-226h77v-14h-240zM245 552l118 144q21 26 29.5 33t21.5 7q14 0 24 -10.5t10 -24.5t-18 -27l-171 -122h-14z
" />
    <glyph glyph-name="Ncommaaccent" unicode="&#x145;" horiz-adv-x="722" 
d="M21 0v14h111v684h-111v14h214l338 -545h2v531h-111v14h237v-14h-111v-712h-20l-421 671h-2v-643h111v-14h-237zM360 -246l-10 10q62 50 62 91q0 17 -11 30q-14 -14 -28 -14q-16 0 -27.5 11t-11.5 28q0 19 13.5 29.5t30.5 10.5q23 0 40.5 -19t17.5 -49q0 -67 -76 -128z
" />
    <glyph glyph-name="ncommaaccent" unicode="&#x146;" horiz-adv-x="611" 
d="M25 0v14h77v401h-77v14h161v-107h2q54 118 172 118q69 0 109 -33.5t40 -100.5v-292h77v-14h-240v14h77v323q0 41 -19 65t-57 24q-65 0 -112 -53.5t-47 -132.5v-226h77v-14h-240zM279 -246l-10 10q62 50 62 91q0 17 -11 30q-14 -14 -28 -14q-16 0 -27.5 11t-11.5 28
q0 19 13.5 29.5t30.5 10.5q23 0 40.5 -19t17.5 -49q0 -67 -76 -128z" />
    <glyph glyph-name="Ncaron" unicode="&#x147;" horiz-adv-x="722" 
d="M21 0v14h111v684h-111v14h214l338 -545h2v531h-111v14h237v-14h-111v-712h-20l-421 671h-2v-643h111v-14h-237zM514 924l-113 -167h-56l-113 167h14l127 -105l127 105h14z" />
    <glyph glyph-name="ncaron" unicode="&#x148;" horiz-adv-x="611" 
d="M25 0v14h77v401h-77v14h161v-107h2q54 118 172 118q69 0 109 -33.5t40 -100.5v-292h77v-14h-240v14h77v323q0 41 -19 65t-57 24q-65 0 -112 -53.5t-47 -132.5v-226h77v-14h-240zM460 719l-113 -167h-56l-113 167h14l127 -105l127 105h14z" />
    <glyph glyph-name="Eng" unicode="&#x14a;" horiz-adv-x="722" 
d="M583 -6l-444 634v-617h91v-11h-192v11h90v690h-90v11h193l352 -502v491h-90v11h191v-11h-90v-745q0 -126 -17 -174.5t-50 -60.5q-11 -4 -24 -4q-21 0 -38.5 11t-22.5 27q-2 8 -2 12q0 26 35 39q13 5 26 5q19 0 26 -15q2 -6 3 -19t2 -18q5 -10 12 -10q2 0 6 2
q33 26 33 234v9z" />
    <glyph glyph-name="eng" unicode="&#x14b;" horiz-adv-x="593" 
d="M397 297q0 76 -15.5 111.5t-60.5 35.5q-55 0 -83.5 -50t-28.5 -108v-275h70v-11h-242v11h72v414h-72v11h172v-76q33 95 121 95q86 0 127 -51q40 -49 40 -142v-345q0 -92 -39 -146t-123 -54q-60 0 -85 26.5t-25 50.5q0 34 50 34q47 0 47 -29q0 -10 -3 -24t-3 -22
q0 -25 32 -25q49 0 49 79v490z" />
    <glyph glyph-name="Omacron" unicode="&#x14c;" horiz-adv-x="832" 
d="M68 357q0 77 31.5 147.5t81 119t112 77.5t123.5 29q88 0 167.5 -48t130 -135t50.5 -190q0 -93 -45.5 -178.5t-127 -139.5t-175.5 -54q-147 0 -247.5 111.5t-100.5 260.5zM183 357q0 -185 53.5 -271.5t179.5 -86.5t179.5 86.5t53.5 271.5q0 76 -9.5 135t-33.5 112.5
t-72 82.5t-118 29t-118 -29t-72 -82.5t-33.5 -112.5t-9.5 -135zM277 807v31h280v-31h-280z" />
    <glyph glyph-name="omacron" unicode="&#x14d;" horiz-adv-x="556" 
d="M45 214q0 95 74 161.5t159 66.5t159 -66.5t74 -161.5q0 -93 -71.5 -160.5t-161.5 -67.5t-161.5 67.5t-71.5 160.5zM145 214q0 -55 7.5 -94.5t19 -62.5t29.5 -36t35.5 -17t41.5 -4t41.5 4t35.5 17t29.5 36t19 62.5t7.5 94.5q0 117 -32 165.5t-101 48.5t-101 -48.5
t-32 -165.5zM139 602v31h280v-31h-280z" />
    <glyph glyph-name="Obreve" unicode="&#x14e;" horiz-adv-x="832" 
d="M68 357q0 77 31.5 147.5t81 119t112 77.5t123.5 29q88 0 167.5 -48t130 -135t50.5 -190q0 -93 -45.5 -178.5t-127 -139.5t-175.5 -54q-147 0 -247.5 111.5t-100.5 260.5zM183 357q0 -185 53.5 -271.5t179.5 -86.5t179.5 86.5t53.5 271.5q0 76 -9.5 135t-33.5 112.5
t-72 82.5t-118 29t-118 -29t-72 -82.5t-33.5 -112.5t-9.5 -135zM285 912h14q6 -38 33.5 -68.5t84.5 -30.5t84.5 30.5t33.5 68.5h14q-6 -155 -132 -155t-132 155z" />
    <glyph glyph-name="obreve" unicode="&#x14f;" horiz-adv-x="556" 
d="M45 214q0 95 74 161.5t159 66.5t159 -66.5t74 -161.5q0 -93 -71.5 -160.5t-161.5 -67.5t-161.5 67.5t-71.5 160.5zM145 214q0 -55 7.5 -94.5t19 -62.5t29.5 -36t35.5 -17t41.5 -4t41.5 4t35.5 17t29.5 36t19 62.5t7.5 94.5q0 117 -32 165.5t-101 48.5t-101 -48.5
t-32 -165.5zM147 707h14q6 -38 33.5 -68.5t84.5 -30.5t84.5 30.5t33.5 68.5h14q-6 -155 -132 -155t-132 155z" />
    <glyph glyph-name="Ohungarumlaut" unicode="&#x150;" horiz-adv-x="832" 
d="M68 357q0 77 31.5 147.5t81 119t112 77.5t123.5 29q88 0 167.5 -48t130 -135t50.5 -190q0 -93 -45.5 -178.5t-127 -139.5t-175.5 -54q-147 0 -247.5 111.5t-100.5 260.5zM183 357q0 -185 53.5 -271.5t179.5 -86.5t179.5 86.5t53.5 271.5q0 76 -9.5 135t-33.5 112.5
t-72 82.5t-118 29t-118 -29t-72 -82.5t-33.5 -112.5t-9.5 -135zM485 757l118 144q21 26 29.5 33t21.5 7q14 0 24 -10.5t10 -24.5t-18 -27l-171 -122h-14zM327 757l118 144q21 26 29.5 33t21.5 7q14 0 24 -10.5t10 -24.5t-18 -27l-171 -122h-14z" />
    <glyph glyph-name="ohungarumlaut" unicode="&#x151;" horiz-adv-x="556" 
d="M45 214q0 95 74 161.5t159 66.5t159 -66.5t74 -161.5q0 -93 -71.5 -160.5t-161.5 -67.5t-161.5 67.5t-71.5 160.5zM145 214q0 -55 7.5 -94.5t19 -62.5t29.5 -36t35.5 -17t41.5 -4t41.5 4t35.5 17t29.5 36t19 62.5t7.5 94.5q0 117 -32 165.5t-101 48.5t-101 -48.5
t-32 -165.5zM338 552l118 144q21 26 29.5 33t21.5 7q14 0 24 -10.5t10 -24.5t-18 -27l-171 -122h-14zM180 552l118 144q21 26 29.5 33t21.5 7q14 0 24 -10.5t10 -24.5t-18 -27l-171 -122h-14z" />
    <glyph glyph-name="OE" unicode="&#x152;" horiz-adv-x="1074" 
d="M999 219v-219h-443q-33 0 -66 -3q-2 0 -28 -1.5t-39 -1.5q-76 0 -145 32q-88 41 -149 131t-61 202q0 99 57 184t127 125q88 50 184 50q30 0 61 -3q7 0 19 -1t22 -1.5t19 -0.5h420v-173h-11q-27 84 -66.5 121.5t-117.5 37.5h-150v-309h49q67 0 95.5 28.5t50.5 118.5h11
v-311h-11q-7 32 -11 46.5t-14.5 38.5t-22.5 35.5t-33 20.5t-49 9h-65v-361h169q43 0 79 23t57.5 57t34.5 66.5t16 58.5h11zM532 21v671q-50 12 -100 12q-72 0 -122.5 -26.5t-77 -77t-38 -111.5t-11.5 -142q0 -231 88 -293q64 -46 152 -46q57 0 109 13z" />
    <glyph glyph-name="oe" unicode="&#x153;" horiz-adv-x="852" 
d="M45 214q0 95 74 161.5t159 66.5q53 0 102.5 -27t69.5 -55q25 24 43 38.5t54 29t75 14.5q30 0 60.5 -10.5t59 -31.5t46.5 -60.5t18 -91.5h-308q0 -6 -0.5 -21t-0.5 -26q0 -40 4.5 -70t17 -62.5t40.5 -50.5t70 -18q41 0 71.5 12t47 33.5t23 35t12.5 32.5l15 -3
q-6 -20 -12.5 -33t-24.5 -38t-52 -39t-81 -14q-46 0 -83.5 13t-56.5 27.5t-41 37.5q-73 -78 -169 -78q-90 0 -161.5 67.5t-71.5 160.5zM499 262h205q2 19 2 51q0 64 -23 89.5t-65 25.5q-62 0 -88 -45t-31 -121zM145 214q0 -55 7.5 -94.5t19 -62.5t29.5 -36t35.5 -17t41.5 -4
t41.5 4t35.5 17t29.5 36t19 62.5t7.5 94.5q0 117 -32 165.5t-101 48.5t-101 -48.5t-32 -165.5z" />
    <glyph glyph-name="Racute" unicode="&#x154;" horiz-adv-x="722" 
d="M30 0v14h111v684h-111v14h190q16 0 48 2q8 0 24 0.5t24 0.5q69 0 110.5 -8t77.5 -36q64 -50 64 -125q0 -19 -6.5 -39.5t-23 -46.5t-54.5 -46t-92 -27v-2q159 -22 186 -116q8 -29 12.5 -101t8.5 -91q16 -68 61 -68q30 0 52 21l9 -11q-33 -26 -88 -26q-76 0 -106.5 36.5
t-36.5 117.5l-7 91q-3 38 -15 65.5t-25.5 41t-35 21t-34.5 8.5t-32 1h-100v-361h111v-14h-322zM241 698v-309h92q61 0 93 34t32 121q0 50 -12.5 83t-36.5 48t-46.5 20.5t-53.5 5.5q-43 0 -68 -3zM238 757l118 144q21 26 29.5 33t21.5 7q14 0 24 -10.5t10 -24.5t-18 -27
l-171 -122h-14z" />
    <glyph glyph-name="racute" unicode="&#x155;" horiz-adv-x="407" 
d="M27 0v14h77v401h-77v14h161v-101h2q12 41 43.5 76.5t87.5 35.5q43 0 66 -25t23 -58q0 -55 -50 -55q-44 0 -44 28q0 11 6.5 25.5t6.5 32.5q0 32 -35 32q-36 0 -70 -50t-34 -127v-229h87v-14h-250zM142 552l118 144q21 26 29.5 33t21.5 7q14 0 24 -10.5t10 -24.5t-18 -27
l-171 -122h-14z" />
    <glyph glyph-name="Rcommaaccent" unicode="&#x156;" horiz-adv-x="722" 
d="M30 0v14h111v684h-111v14h190q16 0 48 2q8 0 24 0.5t24 0.5q69 0 110.5 -8t77.5 -36q64 -50 64 -125q0 -19 -6.5 -39.5t-23 -46.5t-54.5 -46t-92 -27v-2q159 -22 186 -116q8 -29 12.5 -101t8.5 -91q16 -68 61 -68q30 0 52 21l9 -11q-33 -26 -88 -26q-76 0 -106.5 36.5
t-36.5 117.5l-7 91q-3 38 -15 65.5t-25.5 41t-35 21t-34.5 8.5t-32 1h-100v-361h111v-14h-322zM241 698v-309h92q61 0 93 34t32 121q0 50 -12.5 83t-36.5 48t-46.5 20.5t-53.5 5.5q-43 0 -68 -3zM341 -246l-10 10q62 50 62 91q0 17 -11 30q-14 -14 -28 -14q-16 0 -27.5 11
t-11.5 28q0 19 13.5 29.5t30.5 10.5q23 0 40.5 -19t17.5 -49q0 -67 -76 -128z" />
    <glyph glyph-name="rcommaaccent" unicode="&#x157;" horiz-adv-x="407" 
d="M27 0v14h77v401h-77v14h161v-101h2q12 41 43.5 76.5t87.5 35.5q43 0 66 -25t23 -58q0 -55 -50 -55q-44 0 -44 28q0 11 6.5 25.5t6.5 32.5q0 32 -35 32q-36 0 -70 -50t-34 -127v-229h87v-14h-250zM114 -246l-10 10q62 50 62 91q0 17 -11 30q-14 -14 -28 -14
q-16 0 -27.5 11t-11.5 28q0 19 13.5 29.5t30.5 10.5q23 0 40.5 -19t17.5 -49q0 -67 -76 -128z" />
    <glyph glyph-name="Rcaron" unicode="&#x158;" horiz-adv-x="722" 
d="M30 0v14h111v684h-111v14h190q16 0 48 2q8 0 24 0.5t24 0.5q69 0 110.5 -8t77.5 -36q64 -50 64 -125q0 -19 -6.5 -39.5t-23 -46.5t-54.5 -46t-92 -27v-2q159 -22 186 -116q8 -29 12.5 -101t8.5 -91q16 -68 61 -68q30 0 52 21l9 -11q-33 -26 -88 -26q-76 0 -106.5 36.5
t-36.5 117.5l-7 91q-3 38 -15 65.5t-25.5 41t-35 21t-34.5 8.5t-32 1h-100v-361h111v-14h-322zM241 698v-309h92q61 0 93 34t32 121q0 50 -12.5 83t-36.5 48t-46.5 20.5t-53.5 5.5q-43 0 -68 -3zM445 924l-113 -167h-56l-113 167h14l127 -105l127 105h14z" />
    <glyph glyph-name="rcaron" unicode="&#x159;" horiz-adv-x="407" 
d="M27 0v14h77v401h-77v14h161v-101h2q12 41 43.5 76.5t87.5 35.5q43 0 66 -25t23 -58q0 -55 -50 -55q-44 0 -44 28q0 11 6.5 25.5t6.5 32.5q0 32 -35 32q-36 0 -70 -50t-34 -127v-229h87v-14h-250zM337 719l-113 -167h-56l-113 167h14l127 -105l127 105h14z" />
    <glyph glyph-name="Sacute" unicode="&#x15a;" horiz-adv-x="667" 
d="M75 0v215h11q10 -45 25 -80t30 -57.5t37 -38.5t38 -23.5t41 -11.5t37 -4.5t35 -0.5q50 0 86.5 15.5t55 41.5t27 52t8.5 53q0 107 -134 148l-115 35q-83 25 -123.5 67t-40.5 109q0 91 61.5 150.5t157.5 59.5q53 0 99 -19.5t58 -19.5q13 0 18 3.5t12 17.5h14v-181h-12
q-13 79 -61 132t-128 53q-37 0 -72 -11t-64 -44t-29 -82q0 -31 12 -54t35.5 -39t44 -25t52.5 -19l121 -38q74 -24 106 -47q65 -49 65 -136q0 -97 -70 -166.5t-184 -69.5q-69 0 -126 15q-71 22 -83 22q-22 0 -30 -22h-15zM244 757l118 144q21 26 29.5 33t21.5 7
q14 0 24 -10.5t10 -24.5t-18 -27l-171 -122h-14z" />
    <glyph glyph-name="sacute" unicode="&#x15b;" horiz-adv-x="426" 
d="M56 0v140h11q40 -140 158 -140q35 0 58.5 21t23.5 62q0 34 -16.5 50.5t-48.5 27.5l-78 27q-21 7 -33.5 13t-30.5 19.5t-26.5 36t-8.5 53.5q0 56 41 94t103 38q33 0 59.5 -10.5t36.5 -10.5q11 0 16 8h11v-114h-11q-17 54 -41.5 83.5t-70.5 29.5q-48 0 -74.5 -21.5
t-26.5 -57.5q0 -30 21 -47t68 -32l73 -24q107 -36 107 -118q0 -58 -43 -100t-116 -42q-33 0 -74.5 14t-52.5 14q-16 0 -24 -14h-11zM158 552l118 144q21 26 29.5 33t21.5 7q14 0 24 -10.5t10 -24.5t-18 -27l-171 -122h-14z" />
    <glyph glyph-name="Scircumflex" unicode="&#x15c;" horiz-adv-x="667" 
d="M75 0v215h11q10 -45 25 -80t30 -57.5t37 -38.5t38 -23.5t41 -11.5t37 -4.5t35 -0.5q50 0 86.5 15.5t55 41.5t27 52t8.5 53q0 107 -134 148l-115 35q-83 25 -123.5 67t-40.5 109q0 91 61.5 150.5t157.5 59.5q53 0 99 -19.5t58 -19.5q13 0 18 3.5t12 17.5h14v-181h-12
q-13 79 -61 132t-128 53q-37 0 -72 -11t-64 -44t-29 -82q0 -31 12 -54t35.5 -39t44 -25t52.5 -19l121 -38q74 -24 106 -47q65 -49 65 -136q0 -97 -70 -166.5t-184 -69.5q-69 0 -126 15q-71 22 -83 22q-22 0 -30 -22h-15zM168 757l113 167h56l113 -167h-14l-127 105
l-127 -105h-14z" />
    <glyph glyph-name="scircumflex" unicode="&#x15d;" horiz-adv-x="426" 
d="M56 0v140h11q40 -140 158 -140q35 0 58.5 21t23.5 62q0 34 -16.5 50.5t-48.5 27.5l-78 27q-21 7 -33.5 13t-30.5 19.5t-26.5 36t-8.5 53.5q0 56 41 94t103 38q33 0 59.5 -10.5t36.5 -10.5q11 0 16 8h11v-114h-11q-17 54 -41.5 83.5t-70.5 29.5q-48 0 -74.5 -21.5
t-26.5 -57.5q0 -30 21 -47t68 -32l73 -24q107 -36 107 -118q0 -58 -43 -100t-116 -42q-33 0 -74.5 14t-52.5 14q-16 0 -24 -14h-11zM68 552l113 167h56l113 -167h-14l-127 105l-127 -105h-14z" />
    <glyph glyph-name="Scedilla" unicode="&#x15e;" horiz-adv-x="667" 
d="M260 -78l59 63q-62 1 -116 15q-71 22 -83 22q-22 0 -30 -22h-15v215h11q10 -45 25 -80t30 -57.5t37 -38.5t38 -23.5t41 -11.5t37 -4.5t35 -0.5q50 0 86.5 15.5t55 41.5t27 52t8.5 53q0 107 -134 148l-115 35q-83 25 -123.5 67t-40.5 109q0 91 61.5 150.5t157.5 59.5
q53 0 99 -19.5t58 -19.5q13 0 18 3.5t12 17.5h14v-181h-12q-13 79 -61 132t-128 53q-37 0 -72 -11t-64 -44t-29 -82q0 -31 12 -54t35.5 -39t44 -25t52.5 -19l121 -38q74 -24 106 -47q65 -49 65 -136q0 -95 -67 -163.5t-177 -72.5l-54 -57l2 -2q19 14 49 14q14 0 31 -5.5
t34 -27t17 -54.5q0 -43 -30.5 -69t-74.5 -26q-41 0 -77 30l8 12q35 -25 66 -25q51 0 51 79q0 66 -47 66q-20 0 -40 -13z" />
    <glyph glyph-name="scedilla" unicode="&#x15f;" horiz-adv-x="426" 
d="M150 -78l60 64q-30 2 -68.5 15t-50.5 13q-16 0 -24 -14h-11v140h11q40 -140 157 -140h1q35 0 58.5 21t23.5 62q0 34 -16.5 50.5t-48.5 27.5l-78 27q-21 7 -33.5 13t-30.5 19.5t-26.5 36t-8.5 53.5q0 56 41 94t103 38q33 0 59.5 -10.5t36.5 -10.5q11 0 16 8h11v-114h-11
q-17 54 -41.5 83.5t-70.5 29.5q-48 0 -74.5 -21.5t-26.5 -57.5q0 -30 21 -47t68 -32l73 -24q107 -36 107 -118q0 -55 -39.5 -96t-106.5 -45l-56 -59l2 -2q19 14 49 14q14 0 31 -5.5t34 -27t17 -54.5q0 -43 -30.5 -69t-74.5 -26q-41 0 -77 30l8 12q35 -25 66 -25q51 0 51 79
q0 66 -47 66q-20 0 -40 -13z" />
    <glyph glyph-name="Scaron" unicode="&#x160;" horiz-adv-x="667" 
d="M475 924l-113 -167h-56l-113 167h14l127 -105l127 105h14zM75 0v215h11q10 -45 25 -80t30 -57.5t37 -38.5t38 -23.5t41 -11.5t37 -4.5t35 -0.5q50 0 86.5 15.5t55 41.5t27 52t8.5 53q0 107 -134 148l-115 35q-83 25 -123.5 67t-40.5 109q0 91 61.5 150.5t157.5 59.5
q53 0 99 -19.5t58 -19.5q13 0 18 3.5t12 17.5h14v-181h-12q-13 79 -61 132t-128 53q-37 0 -72 -11t-64 -44t-29 -82q0 -31 12 -54t35.5 -39t44 -25t52.5 -19l121 -38q74 -24 106 -47q65 -49 65 -136q0 -97 -70 -166.5t-184 -69.5q-69 0 -126 15q-71 22 -83 22q-22 0 -30 -22
h-15z" />
    <glyph glyph-name="scaron" unicode="&#x161;" horiz-adv-x="426" 
d="M354 719l-113 -167h-56l-113 167h14l127 -105l127 105h14zM56 0v140h11q40 -140 158 -140q35 0 58.5 21t23.5 62q0 34 -16.5 50.5t-48.5 27.5l-78 27q-21 7 -33.5 13t-30.5 19.5t-26.5 36t-8.5 53.5q0 56 41 94t103 38q33 0 59.5 -10.5t36.5 -10.5q11 0 16 8h11v-114h-11
q-17 54 -41.5 83.5t-70.5 29.5q-48 0 -74.5 -21.5t-26.5 -57.5q0 -30 21 -47t68 -32l73 -24q107 -36 107 -118q0 -58 -43 -100t-116 -42q-33 0 -74.5 14t-52.5 14q-16 0 -24 -14h-11z" />
    <glyph glyph-name="Tcommaaccent" unicode="&#x162;" horiz-adv-x="684" 
d="M181 0v14h111v684h-58q-27 0 -46 -4t-47.5 -18.5t-52 -51.5t-39.5 -95h-11v183h608v-183h-11q-16 58 -39.5 95t-52 51.5t-47.5 18.5t-46 4h-58v-684h111v-14h-322zM308 -246l-10 10q62 50 62 91q0 17 -11 30q-14 -14 -28 -14q-16 0 -27.5 11t-11.5 28q0 19 13.5 29.5
t30.5 10.5q23 0 40.5 -19t17.5 -49q0 -67 -76 -128z" />
    <glyph glyph-name="tcommaaccent" unicode="&#x163;" horiz-adv-x="333" 
d="M17 415v14h77v129q18 -7 39 -7q28 0 47 15v-137h142v-14h-142v-327q0 -88 60 -88q33 0 55.5 24t28.5 60l14 -5q-19 -93 -110 -93q-72 0 -103 28t-31 83v318h-77zM148 -246l-10 10q62 50 62 91q0 17 -11 30q-14 -14 -28 -14q-16 0 -27.5 11t-11.5 28q0 19 13.5 29.5
t30.5 10.5q23 0 40.5 -19t17.5 -49q0 -67 -76 -128z" />
    <glyph glyph-name="Tcaron" unicode="&#x164;" horiz-adv-x="684" 
d="M181 0v14h111v684h-58q-27 0 -46 -4t-47.5 -18.5t-52 -51.5t-39.5 -95h-11v183h608v-183h-11q-16 58 -39.5 95t-52 51.5t-47.5 18.5t-46 4h-58v-684h111v-14h-322zM483 924l-113 -167h-56l-113 167h14l127 -105l127 105h14z" />
    <glyph glyph-name="tcaron" unicode="&#x165;" horiz-adv-x="333" 
d="M17 415v14h77v129q18 -7 39 -7q28 0 47 15v-137h142v-14h-142v-327q0 -88 60 -88q33 0 55.5 24t28.5 60l14 -5q-19 -93 -110 -93q-72 0 -103 28t-31 83v318h-77zM236 536l32 125q8 32 13 42t17 15q6 3 13 3q22 0 32 -20q3 -6 3 -11q0 -11 -8 -21l-89 -133h-13z" />
    <glyph glyph-name="Tbar" unicode="&#x166;" horiz-adv-x="684" 
d="M125 442v21h167v235h-58q-27 0 -46 -4t-47.5 -18.5t-52 -51.5t-39.5 -95h-11v183h608v-183h-11q-16 58 -39.5 95t-52 51.5t-47.5 18.5t-46 4h-58v-235h167v-21h-167v-428h111v-14h-322v14h111v428h-167z" />
    <glyph glyph-name="tbar" unicode="&#x167;" horiz-adv-x="333" 
d="M17 300v14h77v101h-77v14h77v129q18 -7 39 -7q28 0 47 15v-137h142v-14h-142v-101h142v-14h-142v-212q0 -88 60 -88q33 0 55.5 24t28.5 60l14 -5q-19 -93 -110 -93q-72 0 -103 28t-31 83v203h-77z" />
    <glyph glyph-name="Utilde" unicode="&#x168;" horiz-adv-x="759" 
d="M21 698v14h322v-14h-111v-483q0 -116 41 -166t124 -50q117 0 173 75q23 30 32.5 61.5t9.5 97.5v465h-111v14h237v-14h-111v-485q0 -87 -46 -148q-60 -80 -202 -80q-121 0 -184 60t-63 180v473h-111zM537 883h14q-2 -13 -10 -33.5t-32.5 -44.5t-58.5 -24q-28 0 -72 24
q-44 23 -63 23q-46 0 -62 -47h-14q8 44 36.5 71.5t59.5 27.5q19 0 69 -23q46 -24 68 -24q19 0 35 12t21.5 21t8.5 17z" />
    <glyph glyph-name="utilde" unicode="&#x169;" horiz-adv-x="593" 
d="M569 14v-14h-161v101h-2q-51 -115 -153 -115q-65 0 -104 28q-14 10 -22 18.5t-17 35t-9 63.5v284h-77v14h163v-307q0 -122 85 -122q48 0 91 52.5t43 130.5v232h-76v14h162v-415h77zM443 678h14q-2 -13 -10 -33.5t-32.5 -44.5t-58.5 -24q-28 0 -72 24q-44 23 -63 23
q-46 0 -62 -47h-14q8 44 36.5 71.5t59.5 27.5q19 0 69 -23q46 -24 68 -24q19 0 35 12t21.5 21t8.5 17z" />
    <glyph glyph-name="Umacron" unicode="&#x16a;" horiz-adv-x="759" 
d="M21 698v14h322v-14h-111v-483q0 -116 41 -166t124 -50q117 0 173 75q23 30 32.5 61.5t9.5 97.5v465h-111v14h237v-14h-111v-485q0 -87 -46 -148q-60 -80 -202 -80q-121 0 -184 60t-63 180v473h-111zM255 807v31h280v-31h-280z" />
    <glyph glyph-name="umacron" unicode="&#x16b;" horiz-adv-x="593" 
d="M569 14v-14h-161v101h-2q-51 -115 -153 -115q-65 0 -104 28q-14 10 -22 18.5t-17 35t-9 63.5v284h-77v14h163v-307q0 -122 85 -122q48 0 91 52.5t43 130.5v232h-76v14h162v-415h77zM161 602v31h280v-31h-280z" />
    <glyph glyph-name="Ubreve" unicode="&#x16c;" horiz-adv-x="759" 
d="M21 698v14h322v-14h-111v-483q0 -116 41 -166t124 -50q117 0 173 75q23 30 32.5 61.5t9.5 97.5v465h-111v14h237v-14h-111v-485q0 -87 -46 -148q-60 -80 -202 -80q-121 0 -184 60t-63 180v473h-111zM263 912h14q6 -38 33.5 -68.5t84.5 -30.5t84.5 30.5t33.5 68.5h14
q-6 -155 -132 -155t-132 155z" />
    <glyph glyph-name="ubreve" unicode="&#x16d;" horiz-adv-x="593" 
d="M569 14v-14h-161v101h-2q-51 -115 -153 -115q-65 0 -104 28q-14 10 -22 18.5t-17 35t-9 63.5v284h-77v14h163v-307q0 -122 85 -122q48 0 91 52.5t43 130.5v232h-76v14h162v-415h77zM169 707h14q6 -38 33.5 -68.5t84.5 -30.5t84.5 30.5t33.5 68.5h14q-6 -155 -132 -155
t-132 155z" />
    <glyph glyph-name="Uring" unicode="&#x16e;" horiz-adv-x="759" 
d="M21 698v14h322v-14h-111v-483q0 -116 41 -166t124 -50q117 0 173 75q23 30 32.5 61.5t9.5 97.5v465h-111v14h237v-14h-111v-485q0 -87 -46 -148q-60 -80 -202 -80q-121 0 -184 60t-63 180v473h-111zM395 934q29 0 60.5 -23.5t31.5 -67.5q0 -36 -28 -63t-64 -27t-64 27
t-28 63q0 44 31.5 67.5t60.5 23.5zM395 923q-29 0 -38.5 -21t-9.5 -59q0 -44 11.5 -61.5t36.5 -17.5t36.5 17.5t11.5 61.5q0 38 -9.5 59t-38.5 21z" />
    <glyph glyph-name="uring" unicode="&#x16f;" horiz-adv-x="593" 
d="M569 14v-14h-161v101h-2q-51 -115 -153 -115q-65 0 -104 28q-14 10 -22 18.5t-17 35t-9 63.5v284h-77v14h163v-307q0 -122 85 -122q48 0 91 52.5t43 130.5v232h-76v14h162v-415h77zM301 741q29 0 60.5 -23.5t31.5 -67.5q0 -36 -28 -63t-64 -27t-64 27t-28 63
q0 44 31.5 67.5t60.5 23.5zM301 730q-29 0 -38.5 -21t-9.5 -59q0 -44 11.5 -61.5t36.5 -17.5t36.5 17.5t11.5 61.5q0 38 -9.5 59t-38.5 21z" />
    <glyph glyph-name="Uhungarumlaut" unicode="&#x170;" horiz-adv-x="759" 
d="M21 698v14h322v-14h-111v-483q0 -116 41 -166t124 -50q117 0 173 75q23 30 32.5 61.5t9.5 97.5v465h-111v14h237v-14h-111v-485q0 -87 -46 -148q-60 -80 -202 -80q-121 0 -184 60t-63 180v473h-111zM457 757l118 144q21 26 29.5 33t21.5 7q14 0 24 -10.5t10 -24.5
t-18 -27l-171 -122h-14zM299 757l118 144q21 26 29.5 33t21.5 7q14 0 24 -10.5t10 -24.5t-18 -27l-171 -122h-14z" />
    <glyph glyph-name="uhungarumlaut" unicode="&#x171;" horiz-adv-x="593" 
d="M569 14v-14h-161v101h-2q-51 -115 -153 -115q-65 0 -104 28q-14 10 -22 18.5t-17 35t-9 63.5v284h-77v14h163v-307q0 -122 85 -122q48 0 91 52.5t43 130.5v232h-76v14h162v-415h77zM338 552l118 144q21 26 29.5 33t21.5 7q14 0 24 -10.5t10 -24.5t-18 -27l-171 -122h-14z
M180 552l118 144q21 26 29.5 33t21.5 7q14 0 24 -10.5t10 -24.5t-18 -27l-171 -122h-14z" />
    <glyph glyph-name="Uogonek" unicode="&#x172;" horiz-adv-x="759" 
d="M451 -156l8 -12q-40 -32 -87 -32q-37 0 -63.5 17t-26.5 49q0 34 33.5 62.5t93.5 57.5q-4 0 -14.5 -0.5t-15.5 -0.5q-121 0 -184 60t-63 180v473h-111v14h322v-14h-111v-483q0 -116 41 -166t124 -50q117 0 173 75q23 30 32.5 61.5t9.5 97.5v465h-111v14h237v-14h-111v-485
q0 -87 -46 -148t-137 -75q-53 -39 -72.5 -64t-19.5 -47q0 -20 14.5 -36t40.5 -16q20 0 44 17z" />
    <glyph glyph-name="uogonek" unicode="&#x173;" horiz-adv-x="593" 
d="M460 -156l8 -12q-40 -32 -87 -32q-37 0 -63.5 17t-26.5 49q0 38 40.5 68.5t116.5 65.5h-40v101h-2q-51 -115 -153 -115q-65 0 -104 28q-14 10 -22 18.5t-17 35t-9 63.5v284h-77v14h163v-307q0 -122 85 -122q48 0 91 52.5t43 130.5v232h-76v14h162v-415h77v-14h-101
q-62 -44 -84.5 -71t-22.5 -50q0 -20 14.5 -36t40.5 -16q20 0 44 17z" />
    <glyph glyph-name="Wcircumflex" unicode="&#x174;" horiz-adv-x="1074" 
d="M-10 698v14h301v-14h-104l206 -580h2l133 369l-76 211h-84v14h300v-14h-109l206 -580h2l210 580h-107v14h214v-14h-90l-259 -713h-25l-172 480h-2l-174 -480h-27l-255 713h-90zM376 757l113 167h56l113 -167h-14l-127 105l-127 -105h-14z" />
    <glyph glyph-name="wcircumflex" unicode="&#x175;" horiz-adv-x="741" 
d="M-4 415v14h241v-14h-83l112 -312l104 247l-25 65h-42v14h199v-14h-67l116 -310l125 310h-94v14h163v-14h-53l-179 -448l-136 363l-152 -363l-161 448h-68zM256 552l113 167h56l113 -167h-14l-127 105l-127 -105h-14z" />
    <glyph glyph-name="Ycircumflex" unicode="&#x176;" horiz-adv-x="704" 
d="M203 0v14h111v287l-225 397h-91v14h306v-14h-100l200 -352l189 352h-101v14h214v-14h-97l-195 -365v-319h111v-14h-322zM224 757l113 167h56l113 -167h-14l-127 105l-127 -105h-14z" />
    <glyph glyph-name="ycircumflex" unicode="&#x177;" horiz-adv-x="481" 
d="M-5 415v14h245v-14h-84l129 -314l135 314h-83v14h153v-14h-54l-165 -386q-10 -24 -70 -174q-30 -76 -59 -108.5t-74 -32.5q-50 0 -70 25t-20 52q0 24 13.5 37t34.5 13q18 0 32.5 -8t14.5 -27q0 -9 -8.5 -26.5t-8.5 -27.5q0 -21 26 -21q32 0 54.5 30.5t56.5 113.5l44 112
l-173 428h-69zM109 552l113 167h56l113 -167h-14l-127 105l-127 -105h-14z" />
    <glyph glyph-name="Ydieresis" unicode="&#x178;" horiz-adv-x="704" 
d="M419 847q0 19 13.5 32.5t32.5 13.5t32.5 -13.5t13.5 -32.5t-13.5 -32.5t-32.5 -13.5t-32.5 13.5t-13.5 32.5zM233 847q0 19 13.5 32.5t32.5 13.5t32.5 -13.5t13.5 -32.5t-13.5 -32.5t-32.5 -13.5t-32.5 13.5t-13.5 32.5zM203 0v14h111v287l-225 397h-91v14h306v-14h-100
l200 -352l189 352h-101v14h214v-14h-97l-195 -365v-319h111v-14h-322z" />
    <glyph glyph-name="Zacute" unicode="&#x179;" horiz-adv-x="648" 
d="M105 538v174h477l-419 -698h220q46 0 73 12.5t52 36.5q58 54 79 156h11v-219h-553l417 698h-155q-149 0 -191 -160h-11zM277 757l118 144q21 26 29.5 33t21.5 7q14 0 24 -10.5t10 -24.5t-18 -27l-171 -122h-14z" />
    <glyph glyph-name="zacute" unicode="&#x17a;" horiz-adv-x="426" 
d="M58 317l14 112h317l-249 -415h141q14 0 26.5 3.5t21 7.5t17 13.5t13 15.5t10 19t7.5 18.5t7 20.5l6 18h8l-13 -130h-348l249 415h-86q-31 0 -44.5 -1.5t-31.5 -10.5t-30.5 -29.5t-26.5 -56.5h-8zM165 552l118 144q21 26 29.5 33t21.5 7q14 0 24 -10.5t10 -24.5t-18 -27
l-171 -122h-14z" />
    <glyph glyph-name="Zdotaccent" unicode="&#x17b;" horiz-adv-x="648" 
d="M105 538v174h477l-419 -698h220q46 0 73 12.5t52 36.5q58 54 79 156h11v-219h-553l417 698h-155q-149 0 -191 -160h-11zM293 867q0 19 13.5 32.5t32.5 13.5t32.5 -13.5t13.5 -32.5t-13.5 -32.5t-32.5 -13.5t-32.5 13.5t-13.5 32.5z" />
    <glyph glyph-name="zdotaccent" unicode="&#x17c;" horiz-adv-x="426" 
d="M58 317l14 112h317l-249 -415h141q14 0 26.5 3.5t21 7.5t17 13.5t13 15.5t10 19t7.5 18.5t7 20.5l6 18h8l-13 -130h-348l249 415h-86q-31 0 -44.5 -1.5t-31.5 -10.5t-30.5 -29.5t-26.5 -56.5h-8zM167 662q0 19 13.5 32.5t32.5 13.5t32.5 -13.5t13.5 -32.5t-13.5 -32.5
t-32.5 -13.5t-32.5 13.5t-13.5 32.5z" />
    <glyph glyph-name="Zcaron" unicode="&#x17d;" horiz-adv-x="648" 
d="M465 924l-113 -167h-56l-113 167h14l127 -105l127 105h14zM105 538v174h477l-419 -698h220q46 0 73 12.5t52 36.5q58 54 79 156h11v-219h-553l417 698h-155q-149 0 -191 -160h-11z" />
    <glyph glyph-name="zcaron" unicode="&#x17e;" horiz-adv-x="426" 
d="M354 719l-113 -167h-56l-113 167h14l127 -105l127 105h14zM58 317l14 112h317l-249 -415h141q14 0 26.5 3.5t21 7.5t17 13.5t13 15.5t10 19t7.5 18.5t7 20.5l6 18h8l-13 -130h-348l249 415h-86q-31 0 -44.5 -1.5t-31.5 -10.5t-30.5 -29.5t-26.5 -56.5h-8z" />
    <glyph glyph-name="florin" unicode="&#x192;" horiz-adv-x="520" 
d="M57 341v14h135q6 59 20 117.5t40 119t69.5 98t98.5 37.5q42 0 77 -24.5t35 -72.5q0 -20 -12.5 -31.5t-32.5 -11.5q-41 0 -41 38q0 14 8.5 28t8.5 24q0 36 -49 36q-87 0 -111 -194q-14 -111 -18 -164h131v-14h-132q-49 -341 -90 -469q-25 -78 -57 -115t-80 -37
q-38 0 -66.5 22.5t-28.5 58.5q0 40 43 40q15 0 25.5 -8t10.5 -18q0 -7 -8 -25.5t-8 -26.5q0 -29 39 -29q43 0 63.5 40t28.5 134q5 69 14 176.5t15 178.5t6 78h-134z" />
    <glyph glyph-name="Aringacute" unicode="&#x1fa;" horiz-adv-x="741" 
d="M290 840l113 81q29 20 38 20q10 0 18 -7.5t8 -17.5q0 -17 -19 -24l-143 -52h-15zM369 842q25 0 52 -19.5t27 -57.5q0 -24 -15 -44.5t-38 -28.5l258 -678h89v-14h-308v14h111l-105 278h-232l-105 -278h111v-14h-215v14h88l256 679q-22 8 -37 28t-15 44q0 38 27 57.5
t51 19.5zM369 833q-24 0 -32 -18t-8 -50q0 -37 9.5 -52.5t30.5 -15.5q22 0 31.5 15.5t9.5 52.5q0 32 -8 50t-33 18zM434 306l-110 291l-110 -291h220z" />
    <glyph glyph-name="aringacute" unicode="&#x1fb;" horiz-adv-x="481" 
d="M151 711l113 81q29 20 38 20q10 0 18 -7.5t8 -17.5q0 -17 -19 -24l-143 -52h-15zM230 653q25 0 52 -19.5t27 -57.5q0 -31 -24 -54t-55 -23q-30 0 -54 23.5t-24 53.5q0 38 27 57.5t51 19.5zM230 644q-24 0 -32 -18t-8 -50q0 -37 9.5 -52.5t30.5 -15.5q22 0 31.5 15.5
t9.5 52.5q0 32 -8 50t-33 18zM470 22l8 -11q-33 -25 -75 -25q-46 0 -68 19.5t-31 58.5h-2q-31 -78 -132 -78q-129 0 -129 97q0 20 4.5 35.5t14 27t19 19.5t26.5 15t28 10.5t32.5 10t31.5 9.5q72 23 90.5 40.5t18.5 74.5q0 53 -15.5 78t-61.5 25q-76 0 -76 -49q0 -13 3 -33.5
t3 -24.5q0 -14 -10.5 -23.5t-28.5 -9.5q-30 0 -39.5 10.5t-9.5 32.5q0 47 41.5 79t114.5 32q86 0 124 -39t38 -99v-249q0 -49 35 -49q24 0 46 16zM303 145v100h-2q-2 -13 -33 -26l-75 -30q-66 -27 -66 -95q0 -88 74 -88q102 0 102 139z" />
    <glyph glyph-name="AEacute" unicode="&#x1fc;" horiz-adv-x="944" 
d="M-9 0v14h60l399 684h-98v14h493v-165h-11q-16 57 -51 102q-20 26 -43.5 37.5t-63.5 11.5h-110v-309h40q89 0 112 132h11v-278h-11q-23 132 -112 132h-40v-361h105q52 0 76 9t45 31q48 51 74 146h11v-200h-522v14h111v281h-235l-163 -281h111v-14h-188zM466 309v389h-2
l-225 -389h227zM496 757l118 144q21 26 29.5 33t21.5 7q14 0 24 -10.5t10 -24.5t-18 -27l-171 -122h-14z" />
    <glyph glyph-name="aeacute" unicode="&#x1fd;" horiz-adv-x="722" 
d="M676 248h-280q0 -7 -0.5 -20.5t-0.5 -20.5q0 -49 4 -81.5t15.5 -63.5t36 -46.5t63.5 -15.5q46 0 88 27t54 82l15 -4q-31 -119 -167 -119q-144 0 -185 117h-2q-2 -18 -10 -35.5t-24 -37t-47 -32t-72 -12.5q-129 0 -129 97q0 48 25 71t79 40l98 31q39 12 57.5 35t18.5 67
q0 101 -90 101q-76 0 -76 -49q0 -13 3 -33.5t3 -24.5q0 -14 -10.5 -23.5t-28.5 -9.5q-30 0 -39.5 10.5t-9.5 32.5q0 47 41.5 79t114.5 32q100 0 141 -59q63 59 144 59q22 0 47.5 -8.5t55 -28t48.5 -60.5t19 -97zM397 262h182q3 63 3 68q0 98 -73 98q-52 0 -78.5 -40
t-33.5 -126zM309 199v58h-2q-14 -24 -45 -37l-75 -31q-66 -27 -66 -95q0 -88 74 -88q114 0 114 193zM304 552l118 144q21 26 29.5 33t21.5 7q14 0 24 -10.5t10 -24.5t-18 -27l-171 -122h-14z" />
    <glyph glyph-name="Oslashacute" unicode="&#x1fe;" horiz-adv-x="832" 
d="M194 -71l52 105q-81 48 -129.5 135.5t-48.5 187.5q0 75 30.5 145t79.5 119.5t112 79t126 29.5q82 0 156 -43l53 105l13 -6l-53 -106q80 -49 129.5 -134.5t49.5 -188.5q0 -93 -45.5 -178.5t-127 -139.5t-175.5 -54q-84 0 -158 41l-51 -103zM258 58l303 606q-54 52 -145 52
q-70 0 -118 -29t-72 -82.5t-33.5 -112.5t-9.5 -135q0 -220 75 -299zM572 654l-303 -606q52 -49 147 -49q126 0 179.5 86.5t53.5 271.5q0 213 -77 297zM350 757l118 144q21 26 29.5 33t21.5 7q14 0 24 -10.5t10 -24.5t-18 -27l-171 -122h-14z" />
    <glyph glyph-name="oslashacute" unicode="&#x1ff;" horiz-adv-x="556" 
d="M127 -72l44 88q-56 29 -91 82t-35 116q0 95 74 161.5t159 66.5q46 0 94 -24l44 88l13 -6l-44 -88q55 -30 90.5 -82.5t35.5 -115.5q0 -93 -71.5 -160.5t-161.5 -67.5q-51 0 -95 23l-43 -87zM183 40l179 358q-29 30 -84 30q-69 0 -101 -48.5t-32 -165.5q0 -126 38 -174z
M373 387l-180 -358q28 -29 85 -29q24 0 41.5 4t35.5 17t29.5 36t19 62.5t7.5 94.5q0 127 -38 173zM234 552l118 144q21 26 29.5 33t21.5 7q14 0 24 -10.5t10 -24.5t-18 -27l-171 -122h-14z" />
    <glyph glyph-name="Scommaaccent" unicode="&#x218;" horiz-adv-x="667" 
d="M75 0v215h11q10 -45 25 -80t30 -57.5t37 -38.5t38 -23.5t41 -11.5t37 -4.5t35 -0.5q50 0 86.5 15.5t55 41.5t27 52t8.5 53q0 107 -134 148l-115 35q-83 25 -123.5 67t-40.5 109q0 91 61.5 150.5t157.5 59.5q53 0 99 -19.5t58 -19.5q13 0 18 3.5t12 17.5h14v-181h-12
q-13 79 -61 132t-128 53q-37 0 -72 -11t-64 -44t-29 -82q0 -31 12 -54t35.5 -39t44 -25t52.5 -19l121 -38q74 -24 106 -47q65 -49 65 -136q0 -97 -70 -166.5t-184 -69.5q-69 0 -126 15q-71 22 -83 22q-22 0 -30 -22h-15zM294 -246l-10 10q62 50 62 91q0 17 -11 30
q-14 -14 -28 -14q-16 0 -27.5 11t-11.5 28q0 19 13.5 29.5t30.5 10.5q23 0 40.5 -19t17.5 -49q0 -67 -76 -128z" />
    <glyph glyph-name="scommaaccent" unicode="&#x219;" horiz-adv-x="426" 
d="M56 0v140h11q40 -140 158 -140q35 0 58.5 21t23.5 62q0 34 -16.5 50.5t-48.5 27.5l-78 27q-21 7 -33.5 13t-30.5 19.5t-26.5 36t-8.5 53.5q0 56 41 94t103 38q33 0 59.5 -10.5t36.5 -10.5q11 0 16 8h11v-114h-11q-17 54 -41.5 83.5t-70.5 29.5q-48 0 -74.5 -21.5
t-26.5 -57.5q0 -30 21 -47t68 -32l73 -24q107 -36 107 -118q0 -58 -43 -100t-116 -42q-33 0 -74.5 14t-52.5 14q-16 0 -24 -14h-11zM178 -246l-10 10q62 50 62 91q0 17 -11 30q-14 -14 -28 -14q-16 0 -27.5 11t-11.5 28q0 19 13.5 29.5t30.5 10.5q23 0 40.5 -19t17.5 -49
q0 -67 -76 -128z" />
    <glyph glyph-name="uni021A" unicode="&#x21a;" horiz-adv-x="684" 
d="M181 0v14h111v684h-58q-27 0 -46 -4t-47.5 -18.5t-52 -51.5t-39.5 -95h-11v183h608v-183h-11q-16 58 -39.5 95t-52 51.5t-47.5 18.5t-46 4h-58v-684h111v-14h-322zM308 -246l-10 10q62 50 62 91q0 17 -11 30q-14 -14 -28 -14q-16 0 -27.5 11t-11.5 28q0 19 13.5 29.5
t30.5 10.5q23 0 40.5 -19t17.5 -49q0 -67 -76 -128z" />
    <glyph glyph-name="uni021B" unicode="&#x21b;" horiz-adv-x="333" 
d="M17 415v14h77v129q18 -7 39 -7q28 0 47 15v-137h142v-14h-142v-327q0 -88 60 -88q33 0 55.5 24t28.5 60l14 -5q-19 -93 -110 -93q-72 0 -103 28t-31 83v318h-77zM148 -246l-10 10q62 50 62 91q0 17 -11 30q-14 -14 -28 -14q-16 0 -27.5 11t-11.5 28q0 19 13.5 29.5
t30.5 10.5q23 0 40.5 -19t17.5 -49q0 -67 -76 -128z" />
    <glyph glyph-name="dotlessj" unicode="&#x237;" horiz-adv-x="296" 
d="M28 415v14h163v-449q0 -60 -5 -100t-9.5 -53t-13.5 -31q-40 -82 -124 -82q-38 0 -74 24.5t-36 66.5q0 23 12.5 35.5t32.5 12.5q36 0 36 -35q0 -7 -3.5 -23t-3.5 -28q0 -19 12.5 -29t29.5 -10q60 0 60 99v588h-77z" />
    <glyph glyph-name="circumflex" unicode="&#x2c6;" 
d="M-2 552l113 167h56l113 -167h-14l-127 105l-127 -105h-14z" />
    <glyph glyph-name="caron" unicode="&#x2c7;" 
d="M280 719l-113 -167h-56l-113 167h14l127 -105l127 105h14z" />
    <glyph glyph-name="uni02C9" unicode="&#x2c9;" 
d="M-1 602v31h280v-31h-280z" />
    <glyph glyph-name="breve" unicode="&#x2d8;" 
d="M7 707h14q6 -38 33.5 -68.5t84.5 -30.5t84.5 30.5t33.5 68.5h14q-6 -155 -132 -155t-132 155z" />
    <glyph glyph-name="dotaccent" unicode="&#x2d9;" 
d="M93 662q0 19 13.5 32.5t32.5 13.5t32.5 -13.5t13.5 -32.5t-13.5 -32.5t-32.5 -13.5t-32.5 13.5t-13.5 32.5z" />
    <glyph glyph-name="ring" unicode="&#x2da;" 
d="M139 741q29 0 60.5 -23.5t31.5 -67.5q0 -36 -28 -63t-64 -27t-64 27t-28 63q0 44 31.5 67.5t60.5 23.5zM139 730q-29 0 -38.5 -21t-9.5 -59q0 -44 11.5 -61.5t36.5 -17.5t36.5 17.5t11.5 61.5q0 38 -9.5 59t-38.5 21z" />
    <glyph glyph-name="ogonek" unicode="&#x2db;" 
d="M237 -156l8 -12q-40 -32 -87 -32q-37 0 -63.5 17t-26.5 49q0 38 40.5 68.5t116.5 65.5h20q-62 -44 -84.5 -71t-22.5 -50q0 -20 14.5 -36t40.5 -16q20 0 44 17z" />
    <glyph glyph-name="tilde" unicode="&#x2dc;" 
d="M281 678h14q-2 -13 -10 -33.5t-32.5 -44.5t-58.5 -24q-28 0 -72 24q-44 23 -63 23q-46 0 -62 -47h-14q8 44 36.5 71.5t59.5 27.5q19 0 69 -23q46 -24 68 -24q19 0 35 12t21.5 21t8.5 17z" />
    <glyph glyph-name="hungarumlaut" unicode="&#x2dd;" 
d="M176 552l118 144q21 26 29.5 33t21.5 7q14 0 24 -10.5t10 -24.5t-18 -27l-171 -122h-14zM18 552l118 144q21 26 29.5 33t21.5 7q14 0 24 -10.5t10 -24.5t-18 -27l-171 -122h-14z" />
    <glyph glyph-name="uni0394" unicode="&#x394;" horiz-adv-x="600" 
d="M570 0h-537v21l250 651q5 2 15 5.5t15 4.5l257 -661v-21zM483 41l-203 527l-201 -527h404z" />
    <glyph glyph-name="uni03A9" unicode="&#x3a9;" horiz-adv-x="671" 
d="M638 130l-21 -130h-214q-1 3 -3 8.5t-3 8.5q4 8 28 51.5t35.5 68t28.5 67t25 83.5t8 82q0 145 -54.5 215.5t-133.5 70.5q-82 0 -134 -71t-52 -220q0 -60 23 -131t43 -110t58 -106q-2 -3 -4.5 -8.5t-3.5 -8.5h-212q-3 21 -9.5 65t-10.5 65q4 0 10 0.5t10 0.5
q14 -46 28.5 -60t42.5 -14h100q-31 31 -49.5 52t-47.5 62.5t-44 91.5t-15 107q0 140 77 226t192 86q117 0 191.5 -82t74.5 -223q0 -66 -28.5 -132.5t-57 -103.5t-72.5 -84h102q31 0 43 12.5t27 61.5q4 0 11 -0.5t11 -0.5z" />
    <glyph glyph-name="uni03BC" unicode="&#x3bc;" horiz-adv-x="593" 
d="M101 -280v695h-77v14h163v-307q0 -122 85 -122q48 0 91 52.5t43 130.5v232h-77v14h163v-415h77v-14h-161v101h-2q-20 -49 -58 -82t-86 -33q-47 0 -73 44h-2v-310h-86z" />
    <glyph glyph-name="pi" unicode="&#x3c0;" horiz-adv-x="523" 
d="M474 527l21 -9q-10 -45 -32 -77q-15 -4 -66 -4q-4 -43 -4 -227q0 -111 5 -133q8 -38 38 -38q12 0 25 8q10 7 23 23q2 -3 6.5 -9t6.5 -9q-36 -64 -93 -64q-44 0 -62 34t-18 127q1 120 11 290q-112 2 -153 2v-21q0 -102 -13 -201.5t-27 -151.5t-22 -62q-29 -13 -54 -17
l-6 15q47 59 67.5 193.5t20.5 246.5q-30 0 -53.5 -7t-36.5 -15.5t-31 -24.5q-2 4 -6.5 10.5t-6.5 9.5q21 25 35 39t47 28.5t74 14.5q31 0 114.5 -2t133.5 -2q22 0 33 6t23 27z" />
    <glyph glyph-name="Wgrave" unicode="&#x1e80;" horiz-adv-x="1074" 
d="M-10 698v14h301v-14h-104l206 -580h2l133 369l-76 211h-84v14h300v-14h-109l206 -580h2l210 580h-107v14h214v-14h-90l-259 -713h-25l-172 480h-2l-174 -480h-27l-255 713h-90zM600 757l-171 122q-18 13 -18 27t10 24.5t24 10.5q13 0 21.5 -7t29.5 -33l118 -144h-14z" />
    <glyph glyph-name="wgrave" unicode="&#x1e81;" horiz-adv-x="741" 
d="M-4 415v14h241v-14h-83l112 -312l104 247l-25 65h-42v14h199v-14h-67l116 -310l125 310h-94v14h163v-14h-53l-179 -448l-136 363l-152 -363l-161 448h-68zM464 552l-171 122q-18 13 -18 27t10 24.5t24 10.5q13 0 21.5 -7t29.5 -33l118 -144h-14z" />
    <glyph glyph-name="Wacute" unicode="&#x1e82;" horiz-adv-x="1074" 
d="M-10 698v14h301v-14h-104l206 -580h2l133 369l-76 211h-84v14h300v-14h-109l206 -580h2l210 580h-107v14h214v-14h-90l-259 -713h-25l-172 480h-2l-174 -480h-27l-255 713h-90zM479 757l118 144q21 26 29.5 33t21.5 7q14 0 24 -10.5t10 -24.5t-18 -27l-171 -122h-14z" />
    <glyph glyph-name="wacute" unicode="&#x1e83;" horiz-adv-x="741" 
d="M-4 415v14h241v-14h-83l112 -312l104 247l-25 65h-42v14h199v-14h-67l116 -310l125 310h-94v14h163v-14h-53l-179 -448l-136 363l-152 -363l-161 448h-68zM346 552l118 144q21 26 29.5 33t21.5 7q14 0 24 -10.5t10 -24.5t-18 -27l-171 -122h-14z" />
    <glyph glyph-name="Wdieresis" unicode="&#x1e84;" horiz-adv-x="1074" 
d="M-10 698v14h301v-14h-104l206 -580h2l133 369l-76 211h-84v14h300v-14h-109l206 -580h2l210 580h-107v14h214v-14h-90l-259 -713h-25l-172 480h-2l-174 -480h-27l-255 713h-90zM568 867q0 19 13.5 32.5t32.5 13.5t32.5 -13.5t13.5 -32.5t-13.5 -32.5t-32.5 -13.5
t-32.5 13.5t-13.5 32.5zM382 867q0 19 13.5 32.5t32.5 13.5t32.5 -13.5t13.5 -32.5t-13.5 -32.5t-32.5 -13.5t-32.5 13.5t-13.5 32.5z" />
    <glyph glyph-name="wdieresis" unicode="&#x1e85;" horiz-adv-x="741" 
d="M-4 415v14h241v-14h-83l112 -312l104 247l-25 65h-42v14h199v-14h-67l116 -310l125 310h-94v14h163v-14h-53l-179 -448l-136 363l-152 -363l-161 448h-68zM446 662q0 19 13.5 32.5t32.5 13.5t32.5 -13.5t13.5 -32.5t-13.5 -32.5t-32.5 -13.5t-32.5 13.5t-13.5 32.5z
M260 662q0 19 13.5 32.5t32.5 13.5t32.5 -13.5t13.5 -32.5t-13.5 -32.5t-32.5 -13.5t-32.5 13.5t-13.5 32.5z" />
    <glyph glyph-name="Ygrave" unicode="&#x1ef2;" horiz-adv-x="704" 
d="M203 0v14h111v287l-225 397h-91v14h306v-14h-100l200 -352l189 352h-101v14h214v-14h-97l-195 -365v-319h111v-14h-322zM413 757l-171 122q-18 13 -18 27t10 24.5t24 10.5q13 0 21.5 -7t29.5 -33l118 -144h-14z" />
    <glyph glyph-name="ygrave" unicode="&#x1ef3;" horiz-adv-x="481" 
d="M-5 415v14h245v-14h-84l129 -314l135 314h-83v14h153v-14h-54l-165 -386q-10 -24 -70 -174q-30 -76 -59 -108.5t-74 -32.5q-50 0 -70 25t-20 52q0 24 13.5 37t34.5 13q18 0 32.5 -8t14.5 -27q0 -9 -8.5 -26.5t-8.5 -27.5q0 -21 26 -21q32 0 54.5 30.5t56.5 113.5l44 112
l-173 428h-69zM301 552l-171 122q-18 13 -18 27t10 24.5t24 10.5q13 0 21.5 -7t29.5 -33l118 -144h-14z" />
    <glyph glyph-name="endash" unicode="&#x2013;" horiz-adv-x="500" 
d="M0 211v14h500v-14h-500z" />
    <glyph glyph-name="emdash" unicode="&#x2014;" horiz-adv-x="1000" 
d="M130 211v14h740v-14h-740z" />
    <glyph glyph-name="quoteleft" unicode="&#x2018;" 
d="M180 730l9 -12q-94 -67 -94 -133q0 -33 18 -52q17 25 43 25q21 0 38 -15t17 -39q0 -23 -18 -40t-43 -17q-37 0 -60 31t-23 72q0 53 37 104.5t76 75.5z" />
    <glyph glyph-name="quoteright" unicode="&#x2019;" 
d="M98 447l-9 12q94 67 94 133q0 32 -18 52q-17 -25 -43 -25q-21 0 -38 15t-17 39q0 23 18 40t43 17q37 0 60 -31t23 -72q0 -53 -37 -104.5t-76 -75.5z" />
    <glyph glyph-name="quotesinglbase" unicode="&#x201a;" 
d="M99 -177l-8 10q90 72 90 132q0 25 -16 49q-22 -25 -44 -25t-37 14.5t-15 37.5q0 21 16.5 38t41.5 17q44 0 63 -32.5t19 -63.5q0 -98 -110 -177z" />
    <glyph glyph-name="quotedblleft" unicode="&#x201c;" horiz-adv-x="444" 
d="M355 730l8 -10q-90 -72 -90 -132q0 -25 16 -49q22 25 44 25t37 -14.5t15 -37.5q0 -21 -16.5 -38t-41.5 -17q-44 0 -63 32.5t-19 63.5q0 98 110 177zM169 730l8 -10q-90 -72 -90 -132q0 -25 16 -49q22 25 44 25t37 -14.5t15 -37.5q0 -21 -16.5 -38t-41.5 -17
q-44 0 -63 32.5t-19 63.5q0 98 110 177z" />
    <glyph glyph-name="quotedblright" unicode="&#x201d;" horiz-adv-x="444" 
d="M275 457l-8 10q90 72 90 132q0 25 -16 49q-22 -25 -44 -25t-37 14.5t-15 37.5q0 21 16.5 38t41.5 17q44 0 63 -32.5t19 -63.5q0 -98 -110 -177zM89 457l-8 10q90 72 90 132q0 25 -16 49q-22 -25 -44 -25t-37 14.5t-15 37.5q0 21 16.5 38t41.5 17q44 0 63 -32.5t19 -63.5
q0 -98 -110 -177z" />
    <glyph glyph-name="quotedblbase" unicode="&#x201e;" horiz-adv-x="444" 
d="M275 -177l-8 10q90 72 90 132q0 25 -16 49q-22 -25 -44 -25t-37 14.5t-15 37.5q0 21 16.5 38t41.5 17q44 0 63 -32.5t19 -63.5q0 -98 -110 -177zM89 -177l-8 10q90 72 90 132q0 25 -16 49q-22 -25 -44 -25t-37 14.5t-15 37.5q0 21 16.5 38t41.5 17q44 0 63 -32.5
t19 -63.5q0 -98 -110 -177z" />
    <glyph glyph-name="dagger" unicode="&#x2020;" horiz-adv-x="520" 
d="M253 -280v283q0 58 -6.5 99.5t-19.5 64t-21 31.5t-20 18q40 30 53.5 79.5t13.5 156.5q-90 0 -125 -20q-4 -2 -12.5 -7t-12.5 -7.5t-11.5 -4.5t-14.5 -2q-21 0 -34 14.5t-13 33.5t13 33.5t34 14.5q7 0 14.5 -2t11.5 -4.5t12.5 -7.5t12.5 -7q35 -20 125 -20q0 84 -8 116
q-4 19 -18.5 53t-14.5 48q0 19 13 33t35 14t35 -14t13 -33q0 -14 -14.5 -48t-18.5 -53q-8 -32 -8 -116q90 0 125 20q4 2 12.5 7t12.5 7.5t11.5 4.5t14.5 2q21 0 34 -14.5t13 -33.5t-13 -33.5t-34 -14.5q-7 0 -14.5 2t-11.5 4.5t-12.5 7.5t-12.5 7q-35 20 -125 20
q0 -107 13.5 -156.5t53.5 -79.5q-12 -9 -20 -18t-21 -31.5t-19.5 -64t-6.5 -99.5v-283h-14z" />
    <glyph glyph-name="daggerdbl" unicode="&#x2021;" horiz-adv-x="520" 
d="M260 730q22 0 35 -14t13 -33q0 -14 -14.5 -48t-18.5 -53q-8 -32 -8 -116q90 0 125 20q4 2 12.5 7t12.5 7.5t11.5 4.5t14.5 2q21 0 34 -14.5t13 -33.5t-13 -33.5t-34 -14.5q-7 0 -14.5 2t-11.5 4.5t-12.5 7.5t-12.5 7q-35 20 -125 20q0 -102 13.5 -151t53.5 -79
q-40 -30 -53.5 -79t-13.5 -151q90 0 125 20q4 2 12.5 7t12.5 7.5t11.5 4.5t14.5 2q21 0 34 -14.5t13 -33.5t-13 -33.5t-34 -14.5q-7 0 -14.5 2t-11.5 4.5t-12.5 7.5t-12.5 7q-35 20 -125 20q0 -84 8 -116q4 -19 18.5 -53t14.5 -48q0 -19 -13 -33t-35 -14t-35 14t-13 33
q0 14 14.5 48t18.5 53q8 32 8 116q-90 0 -125 -20q-4 -2 -12.5 -7t-12.5 -7.5t-11.5 -4.5t-14.5 -2q-21 0 -34 14.5t-13 33.5t13 33.5t34 14.5q7 0 14.5 -2t11.5 -4.5t12.5 -7.5t12.5 -7q35 -20 125 -20q0 102 -13.5 151t-53.5 79q40 30 53.5 79t13.5 151q-90 0 -125 -20
q-4 -2 -12.5 -7t-12.5 -7.5t-11.5 -4.5t-14.5 -2q-21 0 -34 14.5t-13 33.5t13 33.5t34 14.5q7 0 14.5 -2t11.5 -4.5t12.5 -7.5t12.5 -7q35 -20 125 -20q0 84 -8 116q-4 19 -18.5 53t-14.5 48q0 19 13 33t35 14z" />
    <glyph glyph-name="bullet" unicode="&#x2022;" horiz-adv-x="500" 
d="M72 356q0 74 52 126t126 52t126 -52t52 -126t-52 -126t-126 -52t-126 52t-52 126z" />
    <glyph glyph-name="ellipsis" unicode="&#x2026;" horiz-adv-x="1000" 
d="M780 42q0 22 15.5 37.5t37.5 15.5t37.5 -15.5t15.5 -37.5t-15.5 -37.5t-37.5 -15.5t-37.5 15.5t-15.5 37.5zM447 42q0 22 15.5 37.5t37.5 15.5t37.5 -15.5t15.5 -37.5t-15.5 -37.5t-37.5 -15.5t-37.5 15.5t-15.5 37.5zM114 42q0 22 15.5 37.5t37.5 15.5t37.5 -15.5
t15.5 -37.5t-15.5 -37.5t-37.5 -15.5t-37.5 15.5t-15.5 37.5z" />
    <glyph glyph-name="perthousand" unicode="&#x2030;" horiz-adv-x="1000" 
d="M127 -5l380 732l18 -9l-380 -732zM191 434q-51 0 -98.5 43.5t-47.5 103.5q0 56 48 101t98 45q60 0 106 -47t46 -100t-46 -99.5t-106 -46.5zM195 448q40 0 62.5 29.5t22.5 110.5q0 125 -87 125q-85 0 -85 -127q0 -79 21 -108.5t66 -29.5zM803 -14q-51 0 -98.5 43.5
t-47.5 103.5q0 56 48 101t98 45q60 0 106 -47t46 -100t-46 -99.5t-106 -46.5zM457 -14q-51 0 -98.5 43.5t-47.5 103.5q0 56 48 101t98 45q60 0 106 -47t46 -100t-46 -99.5t-106 -46.5zM807 0q40 0 62.5 29.5t22.5 110.5q0 125 -87 125q-85 0 -85 -127q0 -79 21 -108.5
t66 -29.5zM461 0q40 0 62.5 29.5t22.5 110.5q0 125 -87 125q-85 0 -85 -127q0 -79 21 -108.5t66 -29.5z" />
    <glyph glyph-name="guilsinglleft" unicode="&#x2039;" 
d="M213 359l3 -11q-45 -12 -68.5 -42t-23.5 -88t23.5 -88t68.5 -42l-3 -11q-66 9 -108.5 44t-42.5 97t42.5 97t108.5 44z" />
    <glyph glyph-name="guilsinglright" unicode="&#x203a;" 
d="M65 77l-3 11q45 12 68.5 42t23.5 88t-23.5 88t-68.5 42l3 11q66 -9 108.5 -44t42.5 -97t-42.5 -97t-108.5 -44z" />
    <glyph glyph-name="fraction" unicode="&#x2044;" horiz-adv-x="74" 
d="M-162 -5l380 732l18 -9l-380 -732z" />
    <glyph glyph-name="Euro" unicode="&#x20ac;" horiz-adv-x="520" 
d="M479 193v-193h-12q-12 21 -30 21q-6 0 -33 -12l-12 -6t-15 -7t-15.5 -5.5t-22 -4.5t-25.5 -1q-109 0 -170 78q-33 42 -55.5 107.5t-27.5 131.5h-56l4 14h51v5q0 9 -0.5 25t-0.5 25q0 25 4 52h-58l4 14h56q6 40 11 59q17 73 49 124q38 57 93 85q44 22 97 22q43 0 81 -24
q2 -1 5.5 -3.5t5.5 -3.5q10 -8 20 -8t15 4q9 7 12 17h13v-180h-9q-9 64 -38 117q-38 67 -106 67q-67 0 -106 -56q-18 -26 -28 -63q-18 -65 -20 -157h262l-4 -14h-258v-8q0 -8 -0.5 -23t-0.5 -23q0 -7 0.5 -20t0.5 -19v-14h226l-3 -14h-223q0 -133 21 -202q14 -43 39 -67
q36 -34 94 -34q40 0 71 18q32 19 52 57q26 49 33 119h9z" />
    <glyph glyph-name="afii61289" unicode="&#x2113;" horiz-adv-x="420" 
d="M380 111q3 -3 9 -7t9 -7q-57 -108 -156 -108q-70 0 -100 43t-30 145v49l-57 -46q-7 9 -13 22l70 59v130q0 114 7 171.5t27 93.5q17 31 44 50t52 19q40 0 62.5 -38.5t22.5 -96.5q0 -160 -144 -315v-61q0 -98 22 -136t67 -38q60 0 108 71zM183 453v-135q74 94 93 215
q5 48 5 56q0 105 -47 105q-28 0 -39.5 -56t-11.5 -185z" />
    <glyph glyph-name="trademark" unicode="&#x2122;" horiz-adv-x="981" 
d="M495 333v368h-56v11h122l99 -289l100 289h119v-11h-56v-368h56v-11h-171v11h57v355l-130 -371l-128 368v-352h57v-11h-125v11h56zM212 333v368h-30q-19 0 -32.5 -3t-34.5 -25t-32 -64h-9v103h334v-103h-9q-8 32 -21 52t-28.5 28t-25.5 10t-24 2h-30v-368h57v-11h-171v11
h56z" />
    <glyph glyph-name="Omega" unicode="&#x2126;" horiz-adv-x="671" 
d="M638 130l-21 -130h-214q-1 3 -3 8.5t-3 8.5q4 8 28 51.5t35.5 68t28.5 67t25 83.5t8 82q0 145 -54.5 215.5t-133.5 70.5q-82 0 -134 -71t-52 -220q0 -60 23 -131t43 -110t58 -106q-2 -3 -4.5 -8.5t-3.5 -8.5h-212q-3 21 -9.5 65t-10.5 65q4 0 10 0.5t10 0.5
q14 -46 28.5 -60t42.5 -14h100q-31 31 -49.5 52t-47.5 62.5t-44 91.5t-15 107q0 140 77 226t192 86q117 0 191.5 -82t74.5 -223q0 -66 -28.5 -132.5t-57 -103.5t-72.5 -84h102q31 0 43 12.5t27 61.5q4 0 11 -0.5t11 -0.5z" />
    <glyph glyph-name="estimated" unicode="&#x212e;" horiz-adv-x="742" 
d="M698 340h-511v-230q75 -75 183 -75q79 0 138 36.5t106 115.5l44 -26q-58 -92 -123.5 -131.5t-164.5 -39.5q-146 0 -236 100t-90 250t90 250t236 100q145 0 235.5 -97.5t92.5 -252.5zM187 386h368v183q-79 76 -186 76q-108 0 -182 -76v-183z" />
    <glyph glyph-name="onethird" unicode="&#x2153;" horiz-adv-x="834" 
d="M209 -5l380 732l18 -9l-380 -732zM117 291v14h70v368q-31 -21 -91 -50l-7 11q94 47 140 93h16v-422h70v-14h-198zM466 89l15 2q9 -44 37.5 -65.5t66.5 -21.5q53 0 72.5 30.5t19.5 91.5q0 57 -18.5 82.5t-60.5 25.5q-29 0 -74 -24l-9 13q3 1 12 6t19 8.5t21 6.5
q24 6 37 11t29.5 16.5t24.5 31.5t8 49q0 70 -62 70q-31 0 -46.5 -13.5t-15.5 -27.5q0 -6 6 -19t6 -18q0 -21 -30 -21q-29 0 -29 29q0 32 31.5 58t83.5 26q56 0 87 -29t31 -64q0 -63 -107 -98v-2q60 -10 92 -43t32 -73q0 -54 -45.5 -95.5t-109.5 -41.5q-102 0 -124 99z" />
    <glyph glyph-name="twothirds" unicode="&#x2154;" horiz-adv-x="834" 
d="M244 -5l380 732l18 -9l-380 -732zM53 291v11q52 42 83 69.5t66 68t51 82.5t16 89q0 44 -18.5 73t-58.5 29q-31 0 -49 -12.5t-18 -32.5q0 -5 4 -17t4 -21q0 -22 -25 -22q-37 0 -37 34t38 59.5t87 25.5q60 0 99.5 -38t39.5 -87q0 -72 -100 -163l-106 -95h147q47 0 54 59h12
v-112h-289zM501 89l15 2q9 -44 37.5 -65.5t66.5 -21.5q53 0 72.5 30.5t19.5 91.5q0 57 -18.5 82.5t-60.5 25.5q-29 0 -74 -24l-9 13q3 1 12 6t19 8.5t21 6.5q24 6 37 11t29.5 16.5t24.5 31.5t8 49q0 70 -62 70q-31 0 -46.5 -13.5t-15.5 -27.5q0 -6 6 -19t6 -18
q0 -21 -30 -21q-29 0 -29 29q0 32 31.5 58t83.5 26q56 0 87 -29t31 -64q0 -63 -107 -98v-2q60 -10 92 -43t32 -73q0 -54 -45.5 -95.5t-109.5 -41.5q-102 0 -124 99z" />
    <glyph glyph-name="oneeighth" unicode="&#x215b;" horiz-adv-x="834" 
d="M183 -5l380 732l18 -9l-380 -732zM91 291v14h70v368q-31 -21 -91 -50l-7 11q94 47 140 93h16v-422h70v-14h-198zM496 108q0 76 97 116q-77 38 -77 110q0 48 37.5 79.5t85.5 31.5q45 0 79 -26t34 -66q0 -36 -19.5 -58t-57.5 -46q96 -45 96 -120q0 -56 -40 -97t-105 -41
q-55 0 -92.5 33t-37.5 84zM564 354q0 -34 20 -56q13 -11 75 -41q41 24 41 83q0 91 -61 91q-35 0 -55 -21.5t-20 -55.5zM552 104q0 -42 20 -70t61 -28q36 0 59.5 32t23.5 67q0 22 -6.5 38t-21.5 28.5t-26 18.5t-35 18l-17 9q-58 -30 -58 -113z" />
    <glyph glyph-name="threeeighths" unicode="&#x215c;" horiz-adv-x="834" 
d="M198 -5l380 732l18 -9l-380 -732zM47 380l15 2q9 -44 37.5 -65.5t66.5 -21.5q53 0 72.5 30.5t19.5 91.5q0 57 -18.5 82.5t-60.5 25.5q-29 0 -74 -24l-9 13q3 1 12 6t19 8.5t21 6.5q24 6 37 11t29.5 16.5t24.5 31.5t8 49q0 70 -62 70q-31 0 -46.5 -13.5t-15.5 -27.5
q0 -6 6 -19t6 -18q0 -21 -30 -21q-29 0 -29 29q0 32 31.5 58t83.5 26q56 0 87 -29t31 -64q0 -63 -107 -98v-2q60 -10 92 -43t32 -73q0 -54 -45.5 -95.5t-109.5 -41.5q-102 0 -124 99zM511 108q0 76 97 116q-77 38 -77 110q0 48 37.5 79.5t85.5 31.5q45 0 79 -26t34 -66
q0 -36 -19.5 -58t-57.5 -46q96 -45 96 -120q0 -56 -40 -97t-105 -41q-55 0 -92.5 33t-37.5 84zM579 354q0 -34 20 -56q13 -11 75 -41q41 24 41 83q0 91 -61 91q-35 0 -55 -21.5t-20 -55.5zM567 104q0 -42 20 -70t61 -28q36 0 59.5 32t23.5 67q0 22 -6.5 38t-21.5 28.5
t-26 18.5t-35 18l-17 9q-58 -30 -58 -113z" />
    <glyph glyph-name="fiveeighths" unicode="&#x215d;" horiz-adv-x="834" 
d="M61 477l38 257h24q45 -49 95 -49q24 0 41.5 10.5t41.5 39.5l12 -7q-38 -53 -62 -73t-59 -20q-33 0 -88 26l-19 -132q30 35 89 35q64 0 100.5 -40t36.5 -93q0 -21 -7.5 -44.5t-23 -48.5t-47 -41.5t-72.5 -16.5q-57 0 -83 25t-26 48q0 29 34 29q31 0 31 -28v-17
q0 -25 13 -33.5t39 -8.5q40 0 58.5 31.5t18.5 114.5q0 54 -16 81t-59 27q-75 0 -99 -74zM194 -5l380 732l18 -9l-380 -732zM507 108q0 76 97 116q-77 38 -77 110q0 48 37.5 79.5t85.5 31.5q45 0 79 -26t34 -66q0 -36 -19.5 -58t-57.5 -46q96 -45 96 -120q0 -56 -40 -97
t-105 -41q-55 0 -92.5 33t-37.5 84zM575 354q0 -34 20 -56q13 -11 75 -41q41 24 41 83q0 91 -61 91q-35 0 -55 -21.5t-20 -55.5zM563 104q0 -42 20 -70t61 -28q36 0 59.5 32t23.5 67q0 22 -6.5 38t-21.5 28.5t-26 18.5t-35 18l-17 9q-58 -30 -58 -113z" />
    <glyph glyph-name="seveneighths" unicode="&#x215e;" horiz-adv-x="834" 
d="M169 -5l380 732l18 -9l-380 -732zM77 602v118h242q-8 -139 -88 -322q0 -3 -3 -6q-34 -71 -54.5 -94t-39.5 -23q-11 0 -21 6.5t-10 17.5q0 15 18 30q3 2 9 8q47 46 70 79t45 80q44 92 53 171h-147q-53 0 -61 -65h-13zM482 108q0 76 97 116q-77 38 -77 110q0 48 37.5 79.5
t85.5 31.5q45 0 79 -26t34 -66q0 -36 -19.5 -58t-57.5 -46q96 -45 96 -120q0 -56 -40 -97t-105 -41q-55 0 -92.5 33t-37.5 84zM550 354q0 -34 20 -56q13 -11 75 -41q41 24 41 83q0 91 -61 91q-35 0 -55 -21.5t-20 -55.5zM538 104q0 -42 20 -70t61 -28q36 0 59.5 32t23.5 67
q0 22 -6.5 38t-21.5 28.5t-26 18.5t-35 18l-17 9q-58 -30 -58 -113z" />
    <glyph glyph-name="partialdiff" unicode="&#x2202;" horiz-adv-x="460" 
d="M230 417q78 0 121 -67q6 63 7 109v4q0 37 -7 76t-22 79.5t-45.5 66t-72.5 25.5q-61 0 -116 -48q-9 0 -17 13.5t-8 26.5q0 19 43.5 34.5t78.5 15.5q57 0 102 -37t69.5 -94t37 -116.5t12.5 -114.5q0 -68 -12 -135t-36 -128.5t-68 -100t-101 -38.5q-71 0 -114 52t-43 144
q0 99 55 166t136 67zM246 383q-68 0 -104.5 -69t-36.5 -167q0 -53 25 -92.5t65 -39.5q112 0 150 295q-11 26 -38.5 49.5t-60.5 23.5z" />
    <glyph glyph-name="Delta" unicode="&#x2206;" horiz-adv-x="600" 
d="M570 0h-537v21l250 651q5 2 15 5.5t15 4.5l257 -661v-21zM483 41l-203 527l-201 -527h404z" />
    <glyph glyph-name="product" unicode="&#x220f;" horiz-adv-x="707" 
d="M681 740v-23q-59 -4 -71.5 -13.5t-12.5 -48.5v-77v-613q0 -44 13 -56t69 -16v-23h-229v23q17 1 27.5 2t20 4.5t14.5 5.5t9.5 10t5.5 12.5t2 19.5t1 24.5t-0.5 33t-0.5 40.5v636q0 20 -6 24.5t-27 4.5h-36h-35h-215q-20 0 -25.5 -4t-5.5 -22v-719q0 -45 10 -56t62 -16v-23
h-222v23q56 5 68.5 16t12.5 56v77v613q0 39 -12.5 48.5t-71.5 13.5v23h655z" />
    <glyph glyph-name="summation" unicode="&#x2211;" horiz-adv-x="630" 
d="M608 41l-39 -171h-541v21l211 397l-206 431v21h537q0 -36 10 -149q-4 -1 -11.5 -2.5t-11.5 -2.5q-10 59 -30 96q-10 18 -28 23.5t-69 5.5h-39h-38h-232l180 -377l-210 -401h364q62 0 82 17t46 98q4 -1 12.5 -3.5t12.5 -3.5z" />
    <glyph glyph-name="minus" unicode="&#x2212;" horiz-adv-x="593" 
d="M56 231v18h480v-18h-480z" />
    <glyph glyph-name="uni2215" unicode="&#x2215;" horiz-adv-x="74" 
d="M-162 -5l380 732l18 -9l-380 -732z" />
    <glyph glyph-name="uni2219" unicode="&#x2219;" 
d="M86 264q0 22 15.5 37.5t37.5 15.5t37.5 -15.5t15.5 -37.5t-15.5 -37.5t-37.5 -15.5t-37.5 15.5t-15.5 37.5z" />
    <glyph glyph-name="radical" unicode="&#x221a;" horiz-adv-x="544" 
d="M509 791l-175 -910q-3 -1 -8.5 -4.5t-8.5 -5.5l-203 538l-81 -38q-1 5 -4.5 14t-5.5 14l138 65l161 -440h2l152 775q5 -1 16 -3.5t17 -4.5z" />
    <glyph glyph-name="infinity" unicode="&#x221e;" horiz-adv-x="722" 
d="M21 0v14h111v684h-111v14h214l338 -545h2v531h-111v14h237v-14h-111v-712h-20l-421 671h-2v-643h111v-14h-237z" />
    <glyph glyph-name="integral" unicode="&#x222b;" horiz-adv-x="345" 
d="M152 68q0 -1 -3.5 66t-8.5 156.5t-8 141.5q-1 8 -1 22q0 100 11 168.5t31.5 104t44 49.5t54.5 14q19 0 36 -10.5t17 -29.5q0 -18 -11 -27.5t-26 -9.5q-16 0 -27.5 19.5t-21.5 19.5q-11 0 -20.5 -10t-17 -40t-7.5 -77q-1 -2 1.5 -27.5t7.5 -122t10 -231.5v-24
q0 -4 0.5 -11t0.5 -10q0 -100 -11 -169.5t-32 -104.5t-44 -49t-53 -14q-24 0 -38.5 12t-14.5 30t12.5 29t30.5 11q13 0 24.5 -20.5t21.5 -20.5q20 0 31.5 35.5t11.5 96.5q0 21 -1 33z" />
    <glyph glyph-name="approxequal" unicode="&#x2248;" horiz-adv-x="600" 
d="M515 405l25 -30q-20 -27 -55 -46.5t-76 -19.5q-47 0 -80 17.5t-64.5 35t-73.5 17.5q-62 0 -106 -56l-25 30q22 28 56 47t75 19q55 0 111 -35t107 -35q31 0 60 16t46 40zM515 215l25 -30q-20 -27 -55 -46.5t-76 -19.5q-47 0 -80 17.5t-64.5 35t-73.5 17.5q-62 0 -106 -56
l-25 30q22 28 56 47t75 19q55 0 111 -35t107 -35q31 0 60 16t46 40z" />
    <glyph glyph-name="notequal" unicode="&#x2260;" horiz-adv-x="600" 
d="M528 155h-280l-85 -134h-44l86 134h-133v40h158l97 150h-255v40h280l85 134h44l-86 -134h133v-40h-158l-97 -150h255v-40z" />
    <glyph glyph-name="lessequal" unicode="&#x2264;" horiz-adv-x="600" 
d="M527 88l-454 203v38l454 203v-45l-401 -176v-2l401 -175v-46zM527 0h-454v40h454v-40z" />
    <glyph glyph-name="greaterequal" unicode="&#x2265;" horiz-adv-x="600" 
d="M527 291l-454 -203v46l401 175v2l-401 176v45l454 -203v-38zM527 0h-454v40h454v-40z" />
    <glyph glyph-name="lozenge" unicode="&#x25ca;" horiz-adv-x="490" 
d="M442 331l-176 -358h-43l-176 358l176 359h43zM395 330q-12 25 -60.5 124t-72.5 154l-18 40h-2q-2 -7 -8 -19q-28 -57 -140 -297l122 -256q3 -7 14 -28t14 -33h3q2 7 8 19q29 58 81 169.5t59 126.5z" />
    <glyph glyph-name="grave.cap" unicode="&#xe000;" 
d="M191 757l-171 122q-18 13 -18 27t10 24.5t24 10.5q13 0 21.5 -7t29.5 -33l118 -144h-14z" />
    <glyph glyph-name="grave.sc" unicode="&#xe001;" 
d="M191 487l-171 122q-18 13 -18 27t10 24.5t24 10.5q13 0 21.5 -7t29.5 -33l118 -144h-14z" />
    <glyph glyph-name="acute.cap" unicode="&#xe002;" 
d="M97 757l118 144q21 26 29.5 33t21.5 7q14 0 24 -10.5t10 -24.5t-18 -27l-171 -122h-14z" />
    <glyph glyph-name="acute.sc" unicode="&#xe003;" 
d="M97 487l118 144q21 26 29.5 33t21.5 7q14 0 24 -10.5t10 -24.5t-18 -27l-171 -122h-14z" />
    <glyph glyph-name="circumflex.cap" unicode="&#xe004;" 
d="M-2 757l113 167h56l113 -167h-14l-127 105l-127 -105h-14z" />
    <glyph glyph-name="circumflex.sc" unicode="&#xe005;" 
d="M-2 487l113 167h56l113 -167h-14l-127 105l-127 -105h-14z" />
    <glyph glyph-name="caron.cap" unicode="&#xe006;" 
d="M280 924l-113 -167h-56l-113 167h14l127 -105l127 105h14z" />
    <glyph glyph-name="caron.sc" unicode="&#xe007;" 
d="M280 654l-113 -167h-56l-113 167h14l127 -105l127 105h14z" />
    <glyph glyph-name="caron.alt" unicode="&#xe008;" 
d="M77 536l32 125q8 32 13 42t17 15q6 3 13 3q22 0 32 -20q3 -6 3 -11q0 -11 -8 -21l-89 -133h-13z" />
    <glyph glyph-name="tilde.cap" unicode="&#xe009;" 
d="M281 883h14q-2 -13 -10 -33.5t-32.5 -44.5t-58.5 -24q-28 0 -72 24q-44 23 -63 23q-46 0 -62 -47h-14q8 44 36.5 71.5t59.5 27.5q19 0 69 -23q46 -24 68 -24q19 0 35 12t21.5 21t8.5 17z" />
    <glyph glyph-name="tilde.sc" unicode="&#xe00a;" 
d="M281 613h14q-2 -13 -10 -33.5t-32.5 -44.5t-58.5 -24q-28 0 -72 24q-44 23 -63 23q-46 0 -62 -47h-14q8 44 36.5 71.5t59.5 27.5q19 0 69 -23q46 -24 68 -24q19 0 35 12t21.5 21t8.5 17z" />
    <glyph glyph-name="dieresis.cap" unicode="&#xe00b;" 
d="M186 867q0 19 13.5 32.5t32.5 13.5t32.5 -13.5t13.5 -32.5t-13.5 -32.5t-32.5 -13.5t-32.5 13.5t-13.5 32.5zM0 867q0 19 13.5 32.5t32.5 13.5t32.5 -13.5t13.5 -32.5t-13.5 -32.5t-32.5 -13.5t-32.5 13.5t-13.5 32.5z" />
    <glyph glyph-name="dieresis.sc" unicode="&#xe00c;" 
d="M186 597q0 19 13.5 32.5t32.5 13.5t32.5 -13.5t13.5 -32.5t-13.5 -32.5t-32.5 -13.5t-32.5 13.5t-13.5 32.5zM0 597q0 19 13.5 32.5t32.5 13.5t32.5 -13.5t13.5 -32.5t-13.5 -32.5t-32.5 -13.5t-32.5 13.5t-13.5 32.5z" />
    <glyph glyph-name="macron.cap" unicode="&#xe00d;" 
d="M-1 807v31h280v-31h-280z" />
    <glyph glyph-name="macron.sc" unicode="&#xe00e;" 
d="M-1 537v31h280v-31h-280z" />
    <glyph glyph-name="breve.cap" unicode="&#xe00f;" 
d="M7 912h14q6 -38 33.5 -68.5t84.5 -30.5t84.5 30.5t33.5 68.5h14q-6 -155 -132 -155t-132 155z" />
    <glyph glyph-name="breve.sc" unicode="&#xe010;" 
d="M7 642h14q6 -38 33.5 -68.5t84.5 -30.5t84.5 30.5t33.5 68.5h14q-6 -155 -132 -155t-132 155z" />
    <glyph glyph-name="ring.cap" unicode="&#xe011;" 
d="M139 934q29 0 60.5 -23.5t31.5 -67.5q0 -36 -28 -63t-64 -27t-64 27t-28 63q0 44 31.5 67.5t60.5 23.5zM139 923q-29 0 -38.5 -21t-9.5 -59q0 -44 11.5 -61.5t36.5 -17.5t36.5 17.5t11.5 61.5q0 38 -9.5 59t-38.5 21z" />
    <glyph glyph-name="ring.sc" unicode="&#xe012;" 
d="M139 676q29 0 60.5 -23.5t31.5 -67.5q0 -36 -28 -63t-64 -27t-64 27t-28 63q0 44 31.5 67.5t60.5 23.5zM139 665q-29 0 -38.5 -21t-9.5 -59q0 -44 11.5 -61.5t36.5 -17.5t36.5 17.5t11.5 61.5q0 38 -9.5 59t-38.5 21z" />
    <glyph glyph-name="hungarumlaut.cap" unicode="&#xe013;" 
d="M176 757l118 144q21 26 29.5 33t21.5 7q14 0 24 -10.5t10 -24.5t-18 -27l-171 -122h-14zM18 757l118 144q21 26 29.5 33t21.5 7q14 0 24 -10.5t10 -24.5t-18 -27l-171 -122h-14z" />
    <glyph glyph-name="hungarumlaut.sc" unicode="&#xe014;" 
d="M176 487l118 144q21 26 29.5 33t21.5 7q14 0 24 -10.5t10 -24.5t-18 -27l-171 -122h-14zM18 487l118 144q21 26 29.5 33t21.5 7q14 0 24 -10.5t10 -24.5t-18 -27l-171 -122h-14z" />
    <glyph glyph-name="dotaccent.cap" unicode="&#xe015;" 
d="M93 867q0 19 13.5 32.5t32.5 13.5t32.5 -13.5t13.5 -32.5t-13.5 -32.5t-32.5 -13.5t-32.5 13.5t-13.5 32.5z" />
    <glyph glyph-name="dotaccent.sc" unicode="&#xe016;" 
d="M93 597q0 19 13.5 32.5t32.5 13.5t32.5 -13.5t13.5 -32.5t-13.5 -32.5t-32.5 -13.5t-32.5 13.5t-13.5 32.5z" />
    <glyph glyph-name="commaaccent" unicode="&#xe017;" 
d="M106 -246l-10 10q62 50 62 91q0 17 -11 30q-14 -14 -28 -14q-16 0 -27.5 11t-11.5 28q0 19 13.5 29.5t30.5 10.5q23 0 40.5 -19t17.5 -49q0 -67 -76 -128z" />
    <glyph glyph-name="commaaccent.alt" unicode="&#xe01a;" 
d="M163 747l10 -10q-62 -50 -62 -91q0 -17 11 -30q14 14 28 14q16 0 27.5 -11t11.5 -28q0 -19 -13.5 -29.5t-30.5 -10.5q-23 0 -40.5 19t-17.5 49q0 67 76 128z" />
    <glyph glyph-name="a.sc" unicode="&#xe5ec;" horiz-adv-x="500" 
d="M131 14v-14h-139v14h55l185 428h19l199 -428h58v-14h-226v14h71l-75 164h-145l-72 -164h70zM202 344l-64 -152h133z" />
    <glyph glyph-name="b.sc" unicode="&#xe5f5;" horiz-adv-x="500" 
d="M112 14v401h-73v14h56q27 0 79 2q13 0 39.5 0.5t39.5 0.5q26 0 52 -4t53 -14t43.5 -30.5t16.5 -49.5q0 -20 -9 -36t-20.5 -25.5t-31 -17.5t-31 -11.5t-29.5 -7.5v-3q54 -3 99.5 -30.5t45.5 -80.5q0 -125 -193 -125q-17 0 -49 2q-8 0 -25 0.5t-25 0.5h-111v14h73zM198 415
v-177h37q44 0 68.5 18.5t24.5 66.5q0 54 -25 74.5t-66 20.5q-23 0 -39 -3zM198 224v-210q24 -3 49 -3q49 0 74 23t25 85q0 46 -20.5 75.5t-66.5 29.5h-61z" />
    <glyph glyph-name="c.sc" unicode="&#xe5ff;" horiz-adv-x="481" 
d="M434 429v-120h-13q-5 21 -11.5 36.5t-20 37t-39 33.5t-59.5 12q-79 0 -111 -53t-32 -160q0 -68 11 -113t31.5 -65.5t41.5 -28t49 -7.5q56 0 88.5 28t55.5 99h11v-128h-15q-5 15 -19 15q-2 0 -43.5 -14t-77.5 -14q-90 0 -161.5 67.5t-71.5 160.5q0 92 75.5 159.5
t167.5 67.5q33 0 70.5 -12t43.5 -12q9 0 15 11h14z" />
    <glyph glyph-name="d.sc" unicode="&#xe609;" horiz-adv-x="574" 
d="M114 14v401h-73v14h121q17 0 51 2q9 0 26 0.5t26 0.5q117 0 190 -63t73 -152q0 -58 -27 -102.5t-68.5 -69t-84.5 -36.5t-82 -12q-19 0 -57 2q-9 0 -26 0.5t-23 0.5h-119v14h73zM200 415v-401q38 -3 61 -3q47 0 81 19.5t50 43.5t25 59.5t10 52t1 35.5q0 87 -40 142
t-125 55z" />
    <glyph glyph-name="e.sc" unicode="&#xe613;" horiz-adv-x="500" 
d="M107 14v401h-73v14h392v-103h-11q-6 18 -12 30t-16.5 27.5t-26.5 23.5t-37 8h-130v-177h48q39 0 61 25t24 65h11v-191h-11q-4 47 -25 67t-65 20h-43v-210h100q65 0 101.5 32t48.5 98h11v-144h-420v14h73z" />
    <glyph glyph-name="f.sc" unicode="&#xe61c;" horiz-adv-x="463" 
d="M108 14v401h-74v14h392v-112h-11q-26 98 -93 98h-128v-187h44q25 0 41.5 7t25.5 22.5t12.5 27t8.5 33.5h11v-191h-11q-5 21 -9 32t-11.5 26t-18 22t-25.5 7h-68v-200h73v-14h-233v14h74z" />
    <glyph glyph-name="g.sc" unicode="&#xe626;" horiz-adv-x="519" 
d="M301 165h199v-14h-48v-136h-16q0 16 -16 16q-10 0 -56.5 -22t-85.5 -22q-90 0 -161.5 67.5t-71.5 160.5q0 92 75.5 159.5t167.5 67.5q33 0 70.5 -12t43.5 -12q10 0 15 11h14v-120h-13q-5 21 -11.5 36.5t-20 37t-39 33.5t-59.5 12q-79 0 -111 -53t-32 -160q0 -68 11 -113
t31.5 -65.5t41.5 -28t49 -7.5q26 0 44.5 8t27 18t13.5 26.5t5.5 25.5t0.5 23v49h-68v14z" />
    <glyph glyph-name="h.sc" unicode="&#xe630;" horiz-adv-x="611" 
d="M196 228h219v187h-74v14h234v-14h-74v-401h74v-14h-234v14h74v200h-219v-200h74v-14h-234v14h74v401h-74v14h234v-14h-74v-187z" />
    <glyph glyph-name="i.sc" unicode="&#xe63a;" horiz-adv-x="314" 
d="M114 14v401h-72v14h230v-14h-72v-401h72v-14h-230v14h72z" />
    <glyph glyph-name="j.sc" unicode="&#xe643;" horiz-adv-x="352" 
d="M248 415v-306q0 -35 -11 -59.5t-24.5 -36.5t-35 -18t-33.5 -7t-29 -1q-33 0 -64 17t-31 55q0 21 14 33t35 12q37 0 37 -37q0 -3 -4 -22t-4 -22q0 -22 31 -22q33 0 33 50v364h-73v14h233v-14h-74z" />
    <glyph glyph-name="k.sc" unicode="&#xe64d;" horiz-adv-x="537" 
d="M110 415h-74v14h232v-14h-72v-185h7l205 185h-73v14h154v-14h-61l-161 -145l235 -256h44v-14h-230v14h73l-186 205h-7v-205h53v-14h-213v14h74v401z" />
    <glyph glyph-name="l.sc" unicode="&#xe657;" horiz-adv-x="481" 
d="M110 14v401h-74v14h234v-14h-74v-401h86q29 0 48.5 4t42.5 16.5t39.5 42t26.5 76.5h11v-153h-414v14h74z" />
    <glyph glyph-name="m.sc" unicode="&#xe661;" horiz-adv-x="648" 
d="M105 14v401h-74v14h176l121 -303l118 303h171v-14h-74v-401h74v-14h-229v14h69v401h-2l-159 -415h-8l-167 415h-2v-401h69v-14h-157v14h74z" />
    <glyph glyph-name="n.sc" unicode="&#xe66b;" horiz-adv-x="537" 
d="M104 14v401h-70v14h156l227 -294h2v280h-68v14h152v-14h-70v-415h-14l-299 382h-2v-368h68v-14h-152v14h70z" />
    <glyph glyph-name="o.sc" unicode="&#xe674;" horiz-adv-x="556" 
d="M278 442q84 0 158.5 -66.5t74.5 -160.5q0 -93 -71.5 -160.5t-161.5 -67.5t-161.5 67.5t-71.5 160.5q0 94 74.5 160.5t158.5 66.5zM278 428q-69 0 -101 -48.5t-32 -164.5q0 -55 7.5 -94.5t19 -62.5t29.5 -36t35.5 -17t41.5 -4t41.5 4t35.5 17t29.5 36t19 62.5t7.5 94.5
q0 116 -32 164.5t-101 48.5z" />
    <glyph glyph-name="p.sc" unicode="&#xe67d;" horiz-adv-x="463" 
d="M111 14v401h-73v14h114q17 0 47 2q8 0 22.5 0.5t20.5 0.5q102 0 144.5 -34.5t42.5 -82.5q0 -36 -19 -61.5t-50.5 -36.5t-60 -15.5t-60.5 -4.5q-19 0 -42 3v-186h74v-14h-233v14h73zM197 415v-201q16 -3 39 -3q34 0 55.5 9t29.5 28t10 31.5t2 35.5q0 54 -20 78.5t-77 24.5
q-22 0 -39 -3z" />
    <glyph glyph-name="q.sc" unicode="&#xe687;" horiz-adv-x="556" 
d="M477 -132v-14q-32 0 -50.5 1t-48 5.5t-51 17t-34.5 32.5q-3 4 -15 22.5t-19.5 29t-20.5 22t-26 15.5q-70 21 -118.5 81t-48.5 135q0 94 74.5 160.5t158.5 66.5t158.5 -66.5t74.5 -160.5q0 -93 -71.5 -160.5t-161.5 -67.5h-24v-2q16 -16 25.5 -20.5t34.5 -8.5l22 -3
q28 -4 41 -12.5t29 -32.5q20 -29 30 -34.5t41 -5.5zM145 215q0 -55 7.5 -94.5t19 -62.5t29.5 -36t35.5 -17t41.5 -4t41.5 4t35.5 17t29.5 36t19 62.5t7.5 94.5q0 116 -32 164.5t-101 48.5t-101 -48.5t-32 -164.5z" />
    <glyph glyph-name="r.sc" unicode="&#xe691;" horiz-adv-x="519" 
d="M110 14v401h-74v14h56q27 0 79 2q13 0 39.5 0.5t39.5 0.5q68 0 120 -24.5t52 -79.5q0 -26 -9 -44t-31 -29.5t-32 -14.5t-39 -10q-5 -1 -7 -2v-2q67 -13 96 -33.5t34 -74.5q6 -69 12.5 -91.5t28.5 -22.5q15 0 32 19l12 -8q-8 -10 -13.5 -14.5t-19.5 -9t-35 -4.5
q-32 0 -53 9.5t-31 28.5t-14 36t-7 45q-7 67 -19 88q-19 30 -64 30h-67v-210h72v-14h-232v14h74zM196 415v-177h41q25 0 36.5 1.5t26 9t20.5 26t6 49.5q0 52 -23 73t-69 21q-23 0 -38 -3z" />
    <glyph glyph-name="s.sc" unicode="&#xe69b;" horiz-adv-x="426" 
d="M56 0v140h11q12 -30 19 -45.5t21 -37t28.5 -31.5t37.5 -17.5t53 -7.5q36 0 58.5 21t22.5 61q0 29 -15.5 46t-49.5 30l-90 31q-43 16 -65 42.5t-22 77.5q0 56 41 94t103 38q26 0 56.5 -10.5t34.5 -10.5q15 0 21 8h11v-114h-11q-11 30 -17.5 44.5t-19.5 33.5t-31.5 27
t-43.5 8q-42 0 -71.5 -19t-29.5 -59q0 -31 21 -48.5t68 -31.5l73 -24q107 -35 107 -118q0 -54 -41 -97.5t-123 -43.5q-30 0 -70 13.5t-53 13.5q-11 0 -23 -14h-11z" />
    <glyph glyph-name="t.sc" unicode="&#xe6a5;" horiz-adv-x="464" 
d="M189 14v401h-29q-52 0 -79.5 -28t-38.5 -83h-11v125h402v-125h-11q-11 55 -38.5 83t-79.5 28h-29v-401h73v-14h-232v14h73z" />
    <glyph glyph-name="u.sc" unicode="&#xe6af;" horiz-adv-x="537" 
d="M23 415v14h234v-14h-74v-266q0 -148 113 -148q67 0 101.5 39.5t34.5 99.5v275h-68v14h150v-14h-68v-275q0 -29 -7 -53.5t-24.5 -48.5t-52 -37.5t-83.5 -13.5q-95 0 -138.5 43.5t-43.5 138.5v246h-74z" />
    <glyph glyph-name="v.sc" unicode="&#xe6b9;" horiz-adv-x="481" 
d="M245 -30l-182 445h-69v14h243v-14h-82l129 -315l135 315h-83v14h151v-14h-52z" />
    <glyph glyph-name="w.sc" unicode="&#xe6c3;" horiz-adv-x="741" 
d="M225 -30l-160 445h-69v14h241v-14h-83l112 -313l104 247l-25 66h-42v14h199v-14h-67l117 -312l124 312h-94v14h163v-14h-53l-179 -445l-136 359z" />
    <glyph glyph-name="x.sc" unicode="&#xe6cd;" horiz-adv-x="481" 
d="M202 194l-149 221h-56v14h236v-14h-80l103 -151l109 151h-74v14h147v-14h-53l-121 -165l165 -236h55v-14h-234v14h79l-118 169l-125 -169h74v-14h-147v14h53z" />
    <glyph glyph-name="y.sc" unicode="&#xe6d6;" horiz-adv-x="463" 
d="M195 167l-150 248h-49v14h226v-14h-77l129 -214l124 214h-80v14h149v-14h-55l-131 -230v-171h73v-14h-232v14h73v153z" />
    <glyph glyph-name="z.sc" unicode="&#xe6e0;" horiz-adv-x="426" 
d="M36 0l249 415h-124q-24 0 -44.5 -18t-29.5 -35t-21 -45h-8l14 112h317l-249 -415h125q58 0 81 26t43 90h8l-13 -130h-348z" />
    <glyph glyph-name="eng.sc" unicode="&#xe6ea;" horiz-adv-x="537" 
d="M433 415v-415q0 -94 -18.5 -138.5t-75.5 -44.5q-21 0 -38.5 11t-22.5 27q-2 8 -2 12q0 26 35 39q13 5 26 5q19 0 26 -15q2 -6 3 -19t2 -18q5 -10 12 -10q2 0 6 2q33 26 33 134v15l-299 382h-2v-368h68v-14h-152v14h70v401h-70v14h156l227 -294h2v280h-68v14h152v-14h-70z
" />
    <glyph glyph-name="agrave.sc" unicode="&#xeb35;" horiz-adv-x="500" 
d="M131 14v-14h-139v14h55l185 428h19l199 -428h58v-14h-226v14h71l-75 164h-145l-72 -164h70zM202 344l-64 -152h133zM294 487l-171 122q-18 13 -18 27t10 24.5t24 10.5q13 0 21.5 -7t29.5 -33l118 -144h-14z" />
    <glyph glyph-name="aacute.sc" unicode="&#xeb3f;" horiz-adv-x="500" 
d="M131 14v-14h-139v14h55l185 428h19l199 -428h58v-14h-226v14h71l-75 164h-145l-72 -164h70zM202 344l-64 -152h133zM200 487l118 144q21 26 29.5 33t21.5 7q14 0 24 -10.5t10 -24.5t-18 -27l-171 -122h-14z" />
    <glyph glyph-name="acircumflex.sc" unicode="&#xeb49;" horiz-adv-x="500" 
d="M131 14v-14h-139v14h55l185 428h19l199 -428h58v-14h-226v14h71l-75 164h-145l-72 -164h70zM202 344l-64 -152h133zM101 487l113 167h56l113 -167h-14l-127 105l-127 -105h-14z" />
    <glyph glyph-name="atilde.sc" unicode="&#xeb53;" horiz-adv-x="500" 
d="M131 14v-14h-139v14h55l185 428h19l199 -428h58v-14h-226v14h71l-75 164h-145l-72 -164h70zM202 344l-64 -152h133zM384 613h14q-2 -13 -10 -33.5t-32.5 -44.5t-58.5 -24q-28 0 -72 24q-44 23 -63 23q-46 0 -62 -47h-14q8 44 36.5 71.5t59.5 27.5q19 0 69 -23
q46 -24 68 -24q19 0 35 12t21.5 21t8.5 17z" />
    <glyph glyph-name="adieresis.sc" unicode="&#xeb5d;" horiz-adv-x="500" 
d="M131 14v-14h-139v14h55l185 428h19l199 -428h58v-14h-226v14h71l-75 164h-145l-72 -164h70zM202 344l-64 -152h133zM289 597q0 19 13.5 32.5t32.5 13.5t32.5 -13.5t13.5 -32.5t-13.5 -32.5t-32.5 -13.5t-32.5 13.5t-13.5 32.5zM103 597q0 19 13.5 32.5t32.5 13.5
t32.5 -13.5t13.5 -32.5t-13.5 -32.5t-32.5 -13.5t-32.5 13.5t-13.5 32.5z" />
    <glyph glyph-name="amacron.sc" unicode="&#xeb67;" horiz-adv-x="500" 
d="M131 14v-14h-139v14h55l185 428h19l199 -428h58v-14h-226v14h71l-75 164h-145l-72 -164h70zM202 344l-64 -152h133zM109 537v31h280v-31h-280z" />
    <glyph glyph-name="abreve.sc" unicode="&#xeb71;" horiz-adv-x="500" 
d="M131 14v-14h-139v14h55l185 428h19l199 -428h58v-14h-226v14h71l-75 164h-145l-72 -164h70zM202 344l-64 -152h133zM117 642h14q6 -38 33.5 -68.5t84.5 -30.5t84.5 30.5t33.5 68.5h14q-6 -155 -132 -155t-132 155z" />
    <glyph glyph-name="aring.sc" unicode="&#xeb7b;" horiz-adv-x="500" 
d="M131 14v-14h-139v14h55l185 428h19l199 -428h58v-14h-226v14h71l-75 164h-145l-72 -164h70zM202 344l-64 -152h133zM242 676q29 0 60.5 -23.5t31.5 -67.5q0 -36 -28 -63t-64 -27t-64 27t-28 63q0 44 31.5 67.5t60.5 23.5zM242 665q-29 0 -38.5 -21t-9.5 -59
q0 -44 11.5 -61.5t36.5 -17.5t36.5 17.5t11.5 61.5q0 38 -9.5 59t-38.5 21z" />
    <glyph glyph-name="aringacute.sc" unicode="&#xeb85;" horiz-adv-x="500" 
d="M131 14v-14h-139v14h55l185 428h19l199 -428h58v-14h-226v14h71l-75 164h-145l-72 -164h70zM202 344l-64 -152h133zM243 676q29 0 60.5 -23.5t31.5 -67.5q0 -36 -28 -63t-64 -27t-64 27t-28 63q0 44 31.5 67.5t60.5 23.5zM243 665q-29 0 -38.5 -21t-9.5 -59
q0 -44 11.5 -61.5t36.5 -17.5t36.5 17.5t11.5 61.5q0 38 -9.5 59t-38.5 21zM199 709l118 144q21 26 29.5 33t21.5 7q14 0 24 -10.5t10 -24.5t-18 -27l-171 -122h-14z" />
    <glyph glyph-name="aogonek.sc" unicode="&#xeb8f;" horiz-adv-x="500" 
d="M416 -150l8 -12q-40 -32 -87 -32q-37 0 -63.5 17t-26.5 49q0 37 38 66.5t106 61.5h-109v14h71l-75 164h-145l-72 -164h70v-14h-139v14h55l185 428h19l199 -428h58v-14h-93q-56 -41 -77 -67t-21 -48q0 -20 14.5 -36t40.5 -16q20 0 44 17zM202 344l-64 -152h133z" />
    <glyph glyph-name="ae.sc" unicode="&#xeb99;" horiz-adv-x="648" 
d="M121 14v-14h-142v14h56l241 401h-77v14h385v-112h-11q-6 41 -33.5 69.5t-67.5 28.5h-93v-177h21q25 0 42.5 8t27 23t13.5 25.5t8 26.5h11v-182h-11q-8 25 -13 37t-14.5 25.5t-24 18t-36.5 4.5h-24v-210h70q40 0 63.5 6t38 24t20.5 35t15 55h11v-134h-378v14h74v210h-115
l-126 -210h69zM291 415l-105 -177h107v177h-2z" />
    <glyph glyph-name="aeacute.sc" unicode="&#xeba3;" horiz-adv-x="648" 
d="M121 14v-14h-142v14h56l241 401h-77v14h385v-112h-11q-6 41 -33.5 69.5t-67.5 28.5h-93v-177h21q25 0 42.5 8t27 23t13.5 25.5t8 26.5h11v-182h-11q-8 25 -13 37t-14.5 25.5t-24 18t-36.5 4.5h-24v-210h70q40 0 63.5 6t38 24t20.5 35t15 55h11v-134h-378v14h74v210h-115
l-126 -210h69zM291 415l-105 -177h107v177h-2zM330 487l118 144q21 26 29.5 33t21.5 7q14 0 24 -10.5t10 -24.5t-18 -27l-171 -122h-14z" />
    <glyph glyph-name="cacute.sc" unicode="&#xebad;" horiz-adv-x="481" 
d="M434 429v-120h-13q-5 21 -11.5 36.5t-20 37t-39 33.5t-59.5 12q-79 0 -111 -53t-32 -160q0 -68 11 -113t31.5 -65.5t41.5 -28t49 -7.5q56 0 88.5 28t55.5 99h11v-128h-15q-5 15 -19 15q-2 0 -43.5 -14t-77.5 -14q-90 0 -161.5 67.5t-71.5 160.5q0 92 75.5 159.5
t167.5 67.5q33 0 70.5 -12t43.5 -12q9 0 15 11h14zM193 487l118 144q21 26 29.5 33t21.5 7q14 0 24 -10.5t10 -24.5t-18 -27l-171 -122h-14z" />
    <glyph glyph-name="ccircumflex.sc" unicode="&#xebb7;" horiz-adv-x="481" 
d="M434 429v-120h-13q-5 21 -11.5 36.5t-20 37t-39 33.5t-59.5 12q-79 0 -111 -53t-32 -160q0 -68 11 -113t31.5 -65.5t41.5 -28t49 -7.5q56 0 88.5 28t55.5 99h11v-128h-15q-5 15 -19 15q-2 0 -43.5 -14t-77.5 -14q-90 0 -161.5 67.5t-71.5 160.5q0 92 75.5 159.5
t167.5 67.5q33 0 70.5 -12t43.5 -12q9 0 15 11h14zM129 487l113 167h56l113 -167h-14l-127 105l-127 -105h-14z" />
    <glyph glyph-name="ccaron.sc" unicode="&#xebc1;" horiz-adv-x="481" 
d="M434 429v-120h-13q-5 21 -11.5 36.5t-20 37t-39 33.5t-59.5 12q-79 0 -111 -53t-32 -160q0 -68 11 -113t31.5 -65.5t41.5 -28t49 -7.5q56 0 88.5 28t55.5 99h11v-128h-15q-5 15 -19 15q-2 0 -43.5 -14t-77.5 -14q-90 0 -161.5 67.5t-71.5 160.5q0 92 75.5 159.5
t167.5 67.5q33 0 70.5 -12t43.5 -12q9 0 15 11h14zM417 654l-113 -167h-56l-113 167h14l127 -105l127 105h14z" />
    <glyph glyph-name="cdotaccent.sc" unicode="&#xebcb;" horiz-adv-x="481" 
d="M434 429v-120h-13q-5 21 -11.5 36.5t-20 37t-39 33.5t-59.5 12q-79 0 -111 -53t-32 -160q0 -68 11 -113t31.5 -65.5t41.5 -28t49 -7.5q56 0 88.5 28t55.5 99h11v-128h-15q-5 15 -19 15q-2 0 -43.5 -14t-77.5 -14q-90 0 -161.5 67.5t-71.5 160.5q0 92 75.5 159.5
t167.5 67.5q33 0 70.5 -12t43.5 -12q9 0 15 11h14zM238 597q0 19 13.5 32.5t32.5 13.5t32.5 -13.5t13.5 -32.5t-13.5 -32.5t-32.5 -13.5t-32.5 13.5t-13.5 32.5z" />
    <glyph glyph-name="ccedilla.sc" unicode="&#xebd5;" horiz-adv-x="481" 
d="M434 429v-120h-13q-5 21 -11.5 36.5t-20 37t-39 33.5t-59.5 12q-79 0 -111 -53t-32 -160q0 -68 11 -113t31.5 -65.5t41.5 -28t49 -7.5q56 0 88.5 28t55.5 99h11v-128h-15q-5 15 -19 15q-3 0 -43 -13.5t-75 -14.5l-57 -59l2 -2q19 14 49 14q14 0 31 -5.5t34 -27t17 -54.5
q0 -43 -30.5 -69t-74.5 -26q-41 0 -77 30l8 12q35 -25 66 -25q51 0 51 79q0 66 -47 66q-20 0 -40 -13l-14 15l63 65q-85 7 -151 73.5t-66 154.5q0 92 75.5 159.5t167.5 67.5q33 0 70.5 -12t43.5 -12q9 0 15 11h14z" />
    <glyph glyph-name="dcaron.sc" unicode="&#xebdf;" horiz-adv-x="574" 
d="M114 14v401h-73v14h121q17 0 51 2q9 0 26 0.5t26 0.5q117 0 190 -63t73 -152q0 -58 -27 -102.5t-68.5 -69t-84.5 -36.5t-82 -12q-19 0 -57 2q-9 0 -26 0.5t-23 0.5h-119v14h73zM200 415v-401q38 -3 61 -3q47 0 81 19.5t50 43.5t25 59.5t10 52t1 35.5q0 87 -40 142
t-125 55zM392 654l-113 -167h-56l-113 167h14l127 -105l127 105h14z" />
    <glyph glyph-name="dcroat.sc" unicode="&#xebe9;" horiz-adv-x="574" 
d="M114 228v187h-73v14h121q17 0 51 2q9 0 26 0.5t26 0.5q117 0 190 -63t73 -152q0 -58 -27 -102.5t-68.5 -69t-83.5 -36.5t-81 -12q-22 0 -58 2q-10 0 -27 0.5t-23 0.5h-119v14h73v200h-73v14h73zM200 415v-187h112v-14h-112v-200q38 -3 61 -3q47 0 81 19.5t50 43.5
t25 59.5t10 52t1 35.5q0 87 -40 142t-125 55z" />
    <glyph glyph-name="eth.sc" unicode="&#xebf3;" horiz-adv-x="574" 
d="M114 228v187h-73v14h121q17 0 51 2q9 0 26 0.5t26 0.5q117 0 190 -63t73 -152q0 -58 -27 -102.5t-68.5 -69t-83.5 -36.5t-81 -12q-22 0 -58 2q-10 0 -27 0.5t-23 0.5h-119v14h73v200h-73v14h73zM200 415v-187h112v-14h-112v-200q38 -3 61 -3q47 0 81 19.5t50 43.5
t25 59.5t10 52t1 35.5q0 87 -40 142t-125 55z" />
    <glyph glyph-name="egrave.sc" unicode="&#xebfd;" horiz-adv-x="500" 
d="M107 14v401h-73v14h392v-103h-11q-6 18 -12 30t-16.5 27.5t-26.5 23.5t-37 8h-130v-177h48q39 0 61 25t24 65h11v-191h-11q-4 47 -25 67t-65 20h-43v-210h100q65 0 101.5 32t48.5 98h11v-144h-420v14h73zM302 487l-171 122q-18 13 -18 27t10 24.5t24 10.5q13 0 21.5 -7
t29.5 -33l118 -144h-14z" />
    <glyph glyph-name="eacute.sc" unicode="&#xec07;" horiz-adv-x="500" 
d="M107 14v401h-73v14h392v-103h-11q-6 18 -12 30t-16.5 27.5t-26.5 23.5t-37 8h-130v-177h48q39 0 61 25t24 65h11v-191h-11q-4 47 -25 67t-65 20h-43v-210h100q65 0 101.5 32t48.5 98h11v-144h-420v14h73zM208 487l118 144q21 26 29.5 33t21.5 7q14 0 24 -10.5t10 -24.5
t-18 -27l-171 -122h-14z" />
    <glyph glyph-name="ecircumflex.sc" unicode="&#xec11;" horiz-adv-x="500" 
d="M107 14v401h-73v14h392v-103h-11q-6 18 -12 30t-16.5 27.5t-26.5 23.5t-37 8h-130v-177h48q39 0 61 25t24 65h11v-191h-11q-4 47 -25 67t-65 20h-43v-210h100q65 0 101.5 32t48.5 98h11v-144h-420v14h73zM109 487l113 167h56l113 -167h-14l-127 105l-127 -105h-14z" />
    <glyph glyph-name="ecaron.sc" unicode="&#xec1b;" horiz-adv-x="500" 
d="M107 14v401h-73v14h392v-103h-11q-6 18 -12 30t-16.5 27.5t-26.5 23.5t-37 8h-130v-177h48q39 0 61 25t24 65h11v-191h-11q-4 47 -25 67t-65 20h-43v-210h100q65 0 101.5 32t48.5 98h11v-144h-420v14h73zM406 654l-113 -167h-56l-113 167h14l127 -105l127 105h14z" />
    <glyph glyph-name="edieresis.sc" unicode="&#xec25;" horiz-adv-x="500" 
d="M107 14v401h-73v14h392v-103h-11q-6 18 -12 30t-16.5 27.5t-26.5 23.5t-37 8h-130v-177h48q39 0 61 25t24 65h11v-191h-11q-4 47 -25 67t-65 20h-43v-210h100q65 0 101.5 32t48.5 98h11v-144h-420v14h73zM297 597q0 19 13.5 32.5t32.5 13.5t32.5 -13.5t13.5 -32.5
t-13.5 -32.5t-32.5 -13.5t-32.5 13.5t-13.5 32.5zM111 597q0 19 13.5 32.5t32.5 13.5t32.5 -13.5t13.5 -32.5t-13.5 -32.5t-32.5 -13.5t-32.5 13.5t-13.5 32.5z" />
    <glyph glyph-name="emacron.sc" unicode="&#xec2f;" horiz-adv-x="500" 
d="M107 14v401h-73v14h392v-103h-11q-6 18 -12 30t-16.5 27.5t-26.5 23.5t-37 8h-130v-177h48q39 0 61 25t24 65h11v-191h-11q-4 47 -25 67t-65 20h-43v-210h100q65 0 101.5 32t48.5 98h11v-144h-420v14h73zM108 537v31h280v-31h-280z" />
    <glyph glyph-name="ebreve.sc" unicode="&#xec39;" horiz-adv-x="500" 
d="M107 14v401h-73v14h392v-103h-11q-6 18 -12 30t-16.5 27.5t-26.5 23.5t-37 8h-130v-177h48q39 0 61 25t24 65h11v-191h-11q-4 47 -25 67t-65 20h-43v-210h100q65 0 101.5 32t48.5 98h11v-144h-420v14h73zM129 642h14q6 -38 33.5 -68.5t84.5 -30.5t84.5 30.5t33.5 68.5h14
q-6 -155 -132 -155t-132 155z" />
    <glyph glyph-name="edotaccent.sc" unicode="&#xec43;" horiz-adv-x="500" 
d="M107 14v401h-73v14h392v-103h-11q-6 18 -12 30t-16.5 27.5t-26.5 23.5t-37 8h-130v-177h48q39 0 61 25t24 65h11v-191h-11q-4 47 -25 67t-65 20h-43v-210h100q65 0 101.5 32t48.5 98h11v-144h-420v14h73zM213 597q0 19 13.5 32.5t32.5 13.5t32.5 -13.5t13.5 -32.5
t-13.5 -32.5t-32.5 -13.5t-32.5 13.5t-13.5 32.5z" />
    <glyph glyph-name="eogonek.sc" unicode="&#xec4d;" horiz-adv-x="500" 
d="M377 -151l8 -12q-40 -32 -87 -32q-37 0 -63.5 17t-26.5 49q0 37 38.5 67t107.5 62h-320v14h73v401h-73v14h392v-103h-11q-6 18 -12 30t-16.5 27.5t-26.5 23.5t-37 8h-130v-177h48q39 0 61 25t24 65h11v-191h-11q-4 47 -25 67t-65 20h-43v-210h100q65 0 101.5 32t48.5 98
h11v-144h-76q-100 -72 -100 -116q0 -20 14.5 -36t40.5 -16q20 0 44 17z" />
    <glyph glyph-name="gcircumflex.sc" unicode="&#xec57;" horiz-adv-x="519" 
d="M301 165h199v-14h-48v-136h-16q0 16 -16 16q-10 0 -56.5 -22t-85.5 -22q-90 0 -161.5 67.5t-71.5 160.5q0 92 75.5 159.5t167.5 67.5q33 0 70.5 -12t43.5 -12q10 0 15 11h14v-120h-13q-5 21 -11.5 36.5t-20 37t-39 33.5t-59.5 12q-79 0 -111 -53t-32 -160q0 -68 11 -113
t31.5 -65.5t41.5 -28t49 -7.5q26 0 44.5 8t27 18t13.5 26.5t5.5 25.5t0.5 23v49h-68v14zM118 487l113 167h56l113 -167h-14l-127 105l-127 -105h-14z" />
    <glyph glyph-name="gbreve.sc" unicode="&#xec61;" horiz-adv-x="519" 
d="M301 165h199v-14h-48v-136h-16q0 16 -16 16q-10 0 -56.5 -22t-85.5 -22q-90 0 -161.5 67.5t-71.5 160.5q0 92 75.5 159.5t167.5 67.5q33 0 70.5 -12t43.5 -12q10 0 15 11h14v-120h-13q-5 21 -11.5 36.5t-20 37t-39 33.5t-59.5 12q-79 0 -111 -53t-32 -160q0 -68 11 -113
t31.5 -65.5t41.5 -28t49 -7.5q26 0 44.5 8t27 18t13.5 26.5t5.5 25.5t0.5 23v49h-68v14zM129 642h14q6 -38 33.5 -68.5t84.5 -30.5t84.5 30.5t33.5 68.5h14q-6 -155 -132 -155t-132 155z" />
    <glyph glyph-name="gdotaccent.sc" unicode="&#xec6b;" horiz-adv-x="519" 
d="M301 165h199v-14h-48v-136h-16q0 16 -16 16q-10 0 -56.5 -22t-85.5 -22q-90 0 -161.5 67.5t-71.5 160.5q0 92 75.5 159.5t167.5 67.5q33 0 70.5 -12t43.5 -12q10 0 15 11h14v-120h-13q-5 21 -11.5 36.5t-20 37t-39 33.5t-59.5 12q-79 0 -111 -53t-32 -160q0 -68 11 -113
t31.5 -65.5t41.5 -28t49 -7.5q26 0 44.5 8t27 18t13.5 26.5t5.5 25.5t0.5 23v49h-68v14zM214 597q0 19 13.5 32.5t32.5 13.5t32.5 -13.5t13.5 -32.5t-13.5 -32.5t-32.5 -13.5t-32.5 13.5t-13.5 32.5z" />
    <glyph glyph-name="gcommaaccent.sc" unicode="&#xec75;" horiz-adv-x="519" 
d="M301 165h199v-14h-48v-136h-16q0 16 -16 16q-10 0 -56.5 -22t-85.5 -22q-90 0 -161.5 67.5t-71.5 160.5q0 92 75.5 159.5t167.5 67.5q33 0 70.5 -12t43.5 -12q10 0 15 11h14v-120h-13q-5 21 -11.5 36.5t-20 37t-39 33.5t-59.5 12q-79 0 -111 -53t-32 -160q0 -68 11 -113
t31.5 -65.5t41.5 -28t49 -7.5q26 0 44.5 8t27 18t13.5 26.5t5.5 25.5t0.5 23v49h-68v14zM250 -246l-10 10q62 50 62 91q0 17 -11 30q-14 -14 -28 -14q-16 0 -27.5 11t-11.5 28q0 19 13.5 29.5t30.5 10.5q23 0 40.5 -19t17.5 -49q0 -67 -76 -128z" />
    <glyph glyph-name="hcircumflex.sc" unicode="&#xec7f;" horiz-adv-x="611" 
d="M196 228h219v187h-74v14h234v-14h-74v-401h74v-14h-234v14h74v200h-219v-200h74v-14h-234v14h74v401h-74v14h234v-14h-74v-187zM162 487l113 167h56l113 -167h-14l-127 105l-127 -105h-14z" />
    <glyph glyph-name="hbar.sc" unicode="&#xec89;" horiz-adv-x="611" 
d="M196 415v-86h219v86h-74v14h234v-14h-74v-401h74v-14h-234v14h74v200h-219v-200h74v-14h-234v14h74v401h-74v14h234v-14h-74zM196 228h219v87h-219v-87z" />
    <glyph glyph-name="igrave.sc" unicode="&#xec93;" horiz-adv-x="314" 
d="M209 487l-171 122q-18 13 -18 27t10 24.5t24 10.5q13 0 21.5 -7t29.5 -33l118 -144h-14zM114 14v401h-72v14h230v-14h-72v-401h72v-14h-230v14h72z" />
    <glyph glyph-name="iacute.sc" unicode="&#xec9d;" horiz-adv-x="314" 
d="M75 487l118 144q21 26 29.5 33t21.5 7q14 0 24 -10.5t10 -24.5t-18 -27l-171 -122h-14zM114 14v401h-72v14h230v-14h-72v-401h72v-14h-230v14h72z" />
    <glyph glyph-name="ibreve.sc" unicode="&#xeca7;" horiz-adv-x="314" 
d="M28 642h14q6 -38 33.5 -68.5t84.5 -30.5t84.5 30.5t33.5 68.5h14q-6 -155 -132 -155t-132 155zM114 14v401h-72v14h230v-14h-72v-401h72v-14h-230v14h72z" />
    <glyph glyph-name="icircumflex.sc" unicode="&#xecb1;" horiz-adv-x="314" 
d="M16 487l113 167h56l113 -167h-14l-127 105l-127 -105h-14zM114 14v401h-72v14h230v-14h-72v-401h72v-14h-230v14h72z" />
    <glyph glyph-name="itilde.sc" unicode="&#xecbb;" horiz-adv-x="314" 
d="M114 14v401h-72v14h230v-14h-72v-401h72v-14h-230v14h72zM298 613h14q-2 -13 -10 -33.5t-32.5 -44.5t-58.5 -24q-28 0 -72 24q-44 23 -63 23q-46 0 -62 -47h-14q8 44 36.5 71.5t59.5 27.5q19 0 69 -23q46 -24 68 -24q19 0 35 12t21.5 21t8.5 17z" />
    <glyph glyph-name="idieresis.sc" unicode="&#xecc5;" horiz-adv-x="314" 
d="M194 597q0 19 13.5 32.5t32.5 13.5t32.5 -13.5t13.5 -32.5t-13.5 -32.5t-32.5 -13.5t-32.5 13.5t-13.5 32.5zM8 597q0 19 13.5 32.5t32.5 13.5t32.5 -13.5t13.5 -32.5t-13.5 -32.5t-32.5 -13.5t-32.5 13.5t-13.5 32.5zM114 14v401h-72v14h230v-14h-72v-401h72v-14h-230
v14h72z" />
    <glyph glyph-name="idotaccent.sc" unicode="&#xeccf;" horiz-adv-x="314" 
d="M114 14v401h-72v14h230v-14h-72v-401h72v-14h-230v14h72zM113 597q0 19 13.5 32.5t32.5 13.5t32.5 -13.5t13.5 -32.5t-13.5 -32.5t-32.5 -13.5t-32.5 13.5t-13.5 32.5z" />
    <glyph glyph-name="imacron.sc" unicode="&#xecd0;" horiz-adv-x="314" 
d="M14 537v31h280v-31h-280zM114 14v401h-72v14h230v-14h-72v-401h72v-14h-230v14h72z" />
    <glyph glyph-name="iogonek.sc" unicode="&#xecda;" horiz-adv-x="314" 
d="M204 -147l8 -12q-40 -32 -87 -32q-37 0 -63.5 17t-26.5 49q0 36 36 65t101 60h-130v14h72v401h-72v14h230v-14h-72v-401h72v-14h-73q-54 -40 -74 -65t-20 -47q0 -20 14.5 -36t40.5 -16q20 0 44 17z" />
    <glyph glyph-name="jcircumflex.sc" unicode="&#xece4;" horiz-adv-x="352" 
d="M62 487l113 167h56l113 -167h-14l-127 105l-127 -105h-14zM248 415v-306q0 -35 -11 -59.5t-24.5 -36.5t-35 -18t-33.5 -7t-29 -1q-33 0 -64 17t-31 55q0 21 14 33t35 12q37 0 37 -37q0 -3 -4 -22t-4 -22q0 -22 31 -22q33 0 33 50v364h-73v14h233v-14h-74z" />
    <glyph glyph-name="kcommaaccent.sc" unicode="&#xecee;" horiz-adv-x="537" 
d="M110 415h-74v14h232v-14h-72v-185h7l205 185h-73v14h154v-14h-61l-161 -145l235 -256h44v-14h-230v14h73l-186 205h-7v-205h53v-14h-213v14h74v401zM224 -246l-10 10q62 50 62 91q0 17 -11 30q-14 -14 -28 -14q-16 0 -27.5 11t-11.5 28q0 19 13.5 29.5t30.5 10.5
q23 0 40.5 -19t17.5 -49q0 -67 -76 -128z" />
    <glyph glyph-name="lacute.sc" unicode="&#xed02;" horiz-adv-x="481" 
d="M110 14v401h-74v14h234v-14h-74v-401h86q29 0 48.5 4t42.5 16.5t39.5 42t26.5 76.5h11v-153h-414v14h74zM79 487l118 144q21 26 29.5 33t21.5 7q14 0 24 -10.5t10 -24.5t-18 -27l-171 -122h-14z" />
    <glyph glyph-name="lcaron.sc" unicode="&#xed0c;" horiz-adv-x="481" 
d="M110 14v401h-74v14h234v-14h-74v-401h86q29 0 48.5 4t42.5 16.5t39.5 42t26.5 76.5h11v-153h-414v14h74zM274 252l32 125q8 32 13 42t17 15q6 3 13 3q22 0 32 -20q3 -6 3 -11q0 -11 -8 -21l-89 -133h-13z" />
    <glyph glyph-name="lcommaaccent.sc" unicode="&#xed16;" horiz-adv-x="481" 
d="M110 14v401h-74v14h234v-14h-74v-401h86q29 0 48.5 4t42.5 16.5t39.5 42t26.5 76.5h11v-153h-414v14h74zM210 -246l-10 10q62 50 62 91q0 17 -11 30q-14 -14 -28 -14q-16 0 -27.5 11t-11.5 28q0 19 13.5 29.5t30.5 10.5q23 0 40.5 -19t17.5 -49q0 -67 -76 -128z" />
    <glyph glyph-name="lslash.sc" unicode="&#xed20;" horiz-adv-x="481" 
d="M110 171v244h-74v14h234v-14h-74v-202l142 79v-14l-142 -79v-185h86q29 0 48.5 4t42.5 16.5t39.5 42t26.5 76.5h11v-153h-414v14h74v143l-74 -42v14z" />
    <glyph glyph-name="ldot.sc" unicode="&#xed2a;" horiz-adv-x="481" 
d="M110 14v401h-74v14h234v-14h-74v-401h86q29 0 48.5 4t42.5 16.5t39.5 42t26.5 76.5h11v-153h-414v14h74zM297 177q0 19 13.5 32.5t32.5 13.5t32.5 -13.5t13.5 -32.5t-13.5 -32.5t-32.5 -13.5t-32.5 13.5t-13.5 32.5z" />
    <glyph glyph-name="nacute.sc" unicode="&#xed34;" horiz-adv-x="537" 
d="M104 14v401h-70v14h156l227 -294h2v280h-68v14h152v-14h-70v-415h-14l-299 382h-2v-368h68v-14h-152v14h70zM198 487l118 144q21 26 29.5 33t21.5 7q14 0 24 -10.5t10 -24.5t-18 -27l-171 -122h-14z" />
    <glyph glyph-name="ncaron.sc" unicode="&#xed3e;" horiz-adv-x="537" 
d="M104 14v401h-70v14h156l227 -294h2v280h-68v14h152v-14h-70v-415h-14l-299 382h-2v-368h68v-14h-152v14h70zM413 654l-113 -167h-56l-113 167h14l127 -105l127 105h14z" />
    <glyph glyph-name="ntilde.sc" unicode="&#xed48;" horiz-adv-x="537" 
d="M104 14v401h-70v14h156l227 -294h2v280h-68v14h152v-14h-70v-415h-14l-299 382h-2v-368h68v-14h-152v14h70zM411 613h14q-2 -13 -10 -33.5t-32.5 -44.5t-58.5 -24q-28 0 -72 24q-44 23 -63 23q-46 0 -62 -47h-14q8 44 36.5 71.5t59.5 27.5q19 0 69 -23q46 -24 68 -24
q19 0 35 12t21.5 21t8.5 17z" />
    <glyph glyph-name="ncommaaccent.sc" unicode="&#xed52;" horiz-adv-x="537" 
d="M104 14v401h-70v14h156l227 -294h2v280h-68v14h152v-14h-70v-415h-14l-299 382h-2v-368h68v-14h-152v14h70zM242 -246l-10 10q62 50 62 91q0 17 -11 30q-14 -14 -28 -14q-16 0 -27.5 11t-11.5 28q0 19 13.5 29.5t30.5 10.5q23 0 40.5 -19t17.5 -49q0 -67 -76 -128z" />
    <glyph glyph-name="ograve.sc" unicode="&#xed66;" horiz-adv-x="556" 
d="M278 442q84 0 158.5 -66.5t74.5 -160.5q0 -93 -71.5 -160.5t-161.5 -67.5t-161.5 67.5t-71.5 160.5q0 94 74.5 160.5t158.5 66.5zM278 428q-69 0 -101 -48.5t-32 -164.5q0 -55 7.5 -94.5t19 -62.5t29.5 -36t35.5 -17t41.5 -4t41.5 4t35.5 17t29.5 36t19 62.5t7.5 94.5
q0 116 -32 164.5t-101 48.5zM330 487l-171 122q-18 13 -18 27t10 24.5t24 10.5q13 0 21.5 -7t29.5 -33l118 -144h-14z" />
    <glyph glyph-name="oacute.sc" unicode="&#xed70;" horiz-adv-x="556" 
d="M278 442q84 0 158.5 -66.5t74.5 -160.5q0 -93 -71.5 -160.5t-161.5 -67.5t-161.5 67.5t-71.5 160.5q0 94 74.5 160.5t158.5 66.5zM278 428q-69 0 -101 -48.5t-32 -164.5q0 -55 7.5 -94.5t19 -62.5t29.5 -36t35.5 -17t41.5 -4t41.5 4t35.5 17t29.5 36t19 62.5t7.5 94.5
q0 116 -32 164.5t-101 48.5zM236 487l118 144q21 26 29.5 33t21.5 7q14 0 24 -10.5t10 -24.5t-18 -27l-171 -122h-14z" />
    <glyph glyph-name="ocircumflex.sc" unicode="&#xed7a;" horiz-adv-x="556" 
d="M278 442q84 0 158.5 -66.5t74.5 -160.5q0 -93 -71.5 -160.5t-161.5 -67.5t-161.5 67.5t-71.5 160.5q0 94 74.5 160.5t158.5 66.5zM278 428q-69 0 -101 -48.5t-32 -164.5q0 -55 7.5 -94.5t19 -62.5t29.5 -36t35.5 -17t41.5 -4t41.5 4t35.5 17t29.5 36t19 62.5t7.5 94.5
q0 116 -32 164.5t-101 48.5zM137 487l113 167h56l113 -167h-14l-127 105l-127 -105h-14z" />
    <glyph glyph-name="otilde.sc" unicode="&#xed84;" horiz-adv-x="556" 
d="M278 442q84 0 158.5 -66.5t74.5 -160.5q0 -93 -71.5 -160.5t-161.5 -67.5t-161.5 67.5t-71.5 160.5q0 94 74.5 160.5t158.5 66.5zM278 428q-69 0 -101 -48.5t-32 -164.5q0 -55 7.5 -94.5t19 -62.5t29.5 -36t35.5 -17t41.5 -4t41.5 4t35.5 17t29.5 36t19 62.5t7.5 94.5
q0 116 -32 164.5t-101 48.5zM428 613h14q-2 -13 -10 -33.5t-32.5 -44.5t-58.5 -24q-28 0 -72 24q-44 23 -63 23q-46 0 -62 -47h-14q8 44 36.5 71.5t59.5 27.5q19 0 69 -23q46 -24 68 -24q19 0 35 12t21.5 21t8.5 17z" />
    <glyph glyph-name="odieresis.sc" unicode="&#xed8e;" horiz-adv-x="556" 
d="M278 442q84 0 158.5 -66.5t74.5 -160.5q0 -93 -71.5 -160.5t-161.5 -67.5t-161.5 67.5t-71.5 160.5q0 94 74.5 160.5t158.5 66.5zM278 428q-69 0 -101 -48.5t-32 -164.5q0 -55 7.5 -94.5t19 -62.5t29.5 -36t35.5 -17t41.5 -4t41.5 4t35.5 17t29.5 36t19 62.5t7.5 94.5
q0 116 -32 164.5t-101 48.5zM325 597q0 19 13.5 32.5t32.5 13.5t32.5 -13.5t13.5 -32.5t-13.5 -32.5t-32.5 -13.5t-32.5 13.5t-13.5 32.5zM139 597q0 19 13.5 32.5t32.5 13.5t32.5 -13.5t13.5 -32.5t-13.5 -32.5t-32.5 -13.5t-32.5 13.5t-13.5 32.5z" />
    <glyph glyph-name="omacron.sc" unicode="&#xed98;" horiz-adv-x="556" 
d="M278 442q84 0 158.5 -66.5t74.5 -160.5q0 -93 -71.5 -160.5t-161.5 -67.5t-161.5 67.5t-71.5 160.5q0 94 74.5 160.5t158.5 66.5zM278 428q-69 0 -101 -48.5t-32 -164.5q0 -55 7.5 -94.5t19 -62.5t29.5 -36t35.5 -17t41.5 -4t41.5 4t35.5 17t29.5 36t19 62.5t7.5 94.5
q0 116 -32 164.5t-101 48.5zM139 537v31h280v-31h-280z" />
    <glyph glyph-name="obreve.sc" unicode="&#xeda2;" horiz-adv-x="556" 
d="M278 442q84 0 158.5 -66.5t74.5 -160.5q0 -93 -71.5 -160.5t-161.5 -67.5t-161.5 67.5t-71.5 160.5q0 94 74.5 160.5t158.5 66.5zM278 428q-69 0 -101 -48.5t-32 -164.5q0 -55 7.5 -94.5t19 -62.5t29.5 -36t35.5 -17t41.5 -4t41.5 4t35.5 17t29.5 36t19 62.5t7.5 94.5
q0 116 -32 164.5t-101 48.5zM147 642h14q6 -38 33.5 -68.5t84.5 -30.5t84.5 30.5t33.5 68.5h14q-6 -155 -132 -155t-132 155z" />
    <glyph glyph-name="ohungarumlaut.sc" unicode="&#xedac;" horiz-adv-x="556" 
d="M278 442q84 0 158.5 -66.5t74.5 -160.5q0 -93 -71.5 -160.5t-161.5 -67.5t-161.5 67.5t-71.5 160.5q0 94 74.5 160.5t158.5 66.5zM278 428q-69 0 -101 -48.5t-32 -164.5q0 -55 7.5 -94.5t19 -62.5t29.5 -36t35.5 -17t41.5 -4t41.5 4t35.5 17t29.5 36t19 62.5t7.5 94.5
q0 116 -32 164.5t-101 48.5zM338 487l118 144q21 26 29.5 33t21.5 7q14 0 24 -10.5t10 -24.5t-18 -27l-171 -122h-14zM180 487l118 144q21 26 29.5 33t21.5 7q14 0 24 -10.5t10 -24.5t-18 -27l-171 -122h-14z" />
    <glyph glyph-name="oslash.sc" unicode="&#xedb6;" horiz-adv-x="556" 
d="M127 -72l44 88q-56 29 -91 82.5t-35 116.5q0 94 74.5 160.5t158.5 66.5q49 0 94 -24l44 88l13 -6l-44 -88q55 -30 90.5 -82.5t35.5 -114.5q0 -93 -71.5 -160.5t-161.5 -67.5q-52 0 -95 22l-43 -87zM183 40l179 358q-29 30 -84 30q-69 0 -101 -48.5t-32 -164.5
q0 -127 38 -175zM373 387l-180 -358q28 -28 85 -28q24 0 41.5 4t35.5 17t29.5 36t19 62.5t7.5 94.5q0 126 -38 172z" />
    <glyph glyph-name="oslashacute.sc" unicode="&#xedc0;" horiz-adv-x="556" 
d="M127 -72l44 88q-56 29 -91 82.5t-35 116.5q0 94 74.5 160.5t158.5 66.5q49 0 94 -24l44 88l13 -6l-44 -88q55 -30 90.5 -82.5t35.5 -114.5q0 -93 -71.5 -160.5t-161.5 -67.5q-52 0 -95 22l-43 -87zM183 40l179 358q-29 30 -84 30q-69 0 -101 -48.5t-32 -164.5
q0 -127 38 -175zM373 387l-180 -358q28 -28 85 -28q24 0 41.5 4t35.5 17t29.5 36t19 62.5t7.5 94.5q0 126 -38 172zM254 487l118 144q21 26 29.5 33t21.5 7q14 0 24 -10.5t10 -24.5t-18 -27l-171 -122h-14z" />
    <glyph glyph-name="oe.sc" unicode="&#xedca;" horiz-adv-x="722" 
d="M572 326v-184h-11q-6 23 -10.5 34.5t-13.5 24.5t-25 18t-40 5h-44v-210h84q77 0 106.5 23.5t48.5 97.5h11v-135h-254q-12 0 -35 -0.5t-35 -0.5q-46 -2 -70 -2q-96 0 -167 65t-71 157q0 97 73.5 155t162.5 58q10 0 28 -0.5t27 -0.5q36 -2 55 -2h267v-99h-11q-4 35 -32 60
t-60 25h-128v-177h40q41 0 62 18t31 70h11zM342 14v401q-15 3 -54 3q-40 0 -68.5 -11.5t-43.5 -28.5t-23.5 -46t-10.5 -53t-2 -60q0 -107 31 -157.5t120 -50.5q34 0 51 3z" />
    <glyph glyph-name="racute.sc" unicode="&#xedd4;" horiz-adv-x="519" 
d="M110 14v401h-74v14h56q27 0 79 2q13 0 39.5 0.5t39.5 0.5q68 0 120 -24.5t52 -79.5q0 -26 -9 -44t-31 -29.5t-32 -14.5t-39 -10q-5 -1 -7 -2v-2q67 -13 96 -33.5t34 -74.5q6 -69 12.5 -91.5t28.5 -22.5q15 0 32 19l12 -8q-8 -10 -13.5 -14.5t-19.5 -9t-35 -4.5
q-32 0 -53 9.5t-31 28.5t-14 36t-7 45q-7 67 -19 88q-19 30 -64 30h-67v-210h72v-14h-232v14h74zM196 415v-177h41q25 0 36.5 1.5t26 9t20.5 26t6 49.5q0 52 -23 73t-69 21q-23 0 -38 -3zM171 487l118 144q21 26 29.5 33t21.5 7q14 0 24 -10.5t10 -24.5t-18 -27l-171 -122
h-14z" />
    <glyph glyph-name="rcaron.sc" unicode="&#xedde;" horiz-adv-x="519" 
d="M110 14v401h-74v14h56q27 0 79 2q13 0 39.5 0.5t39.5 0.5q68 0 120 -24.5t52 -79.5q0 -26 -9 -44t-31 -29.5t-32 -14.5t-39 -10q-5 -1 -7 -2v-2q67 -13 96 -33.5t34 -74.5q6 -69 12.5 -91.5t28.5 -22.5q15 0 32 19l12 -8q-8 -10 -13.5 -14.5t-19.5 -9t-35 -4.5
q-32 0 -53 9.5t-31 28.5t-14 36t-7 45q-7 67 -19 88q-19 30 -64 30h-67v-210h72v-14h-232v14h74zM196 415v-177h41q25 0 36.5 1.5t26 9t20.5 26t6 49.5q0 52 -23 73t-69 21q-23 0 -38 -3zM386 654l-113 -167h-56l-113 167h14l127 -105l127 105h14z" />
    <glyph glyph-name="rcommaaccent.sc" unicode="&#xede8;" horiz-adv-x="519" 
d="M110 14v401h-74v14h56q27 0 79 2q13 0 39.5 0.5t39.5 0.5q68 0 120 -24.5t52 -79.5q0 -26 -9 -44t-31 -29.5t-32 -14.5t-39 -10q-5 -1 -7 -2v-2q67 -13 96 -33.5t34 -74.5q6 -69 12.5 -91.5t28.5 -22.5q15 0 32 19l12 -8q-8 -10 -13.5 -14.5t-19.5 -9t-35 -4.5
q-32 0 -53 9.5t-31 28.5t-14 36t-7 45q-7 67 -19 88q-19 30 -64 30h-67v-210h72v-14h-232v14h74zM196 415v-177h41q25 0 36.5 1.5t26 9t20.5 26t6 49.5q0 52 -23 73t-69 21q-23 0 -38 -3zM243 -246l-10 10q62 50 62 91q0 17 -11 30q-14 -14 -28 -14q-16 0 -27.5 11t-11.5 28
q0 19 13.5 29.5t30.5 10.5q23 0 40.5 -19t17.5 -49q0 -67 -76 -128z" />
    <glyph glyph-name="sacute.sc" unicode="&#xedf2;" horiz-adv-x="426" 
d="M56 0v140h11q12 -30 19 -45.5t21 -37t28.5 -31.5t37.5 -17.5t53 -7.5q36 0 58.5 21t22.5 61q0 29 -15.5 46t-49.5 30l-90 31q-43 16 -65 42.5t-22 77.5q0 56 41 94t103 38q26 0 56.5 -10.5t34.5 -10.5q15 0 21 8h11v-114h-11q-11 30 -17.5 44.5t-19.5 33.5t-31.5 27
t-43.5 8q-42 0 -71.5 -19t-29.5 -59q0 -31 21 -48.5t68 -31.5l73 -24q107 -35 107 -118q0 -54 -41 -97.5t-123 -43.5q-30 0 -70 13.5t-53 13.5q-11 0 -23 -14h-11zM128 487l118 144q21 26 29.5 33t21.5 7q14 0 24 -10.5t10 -24.5t-18 -27l-171 -122h-14z" />
    <glyph glyph-name="scircumflex.sc" unicode="&#xedfc;" horiz-adv-x="426" 
d="M56 0v140h11q12 -30 19 -45.5t21 -37t28.5 -31.5t37.5 -17.5t53 -7.5q36 0 58.5 21t22.5 61q0 29 -15.5 46t-49.5 30l-90 31q-43 16 -65 42.5t-22 77.5q0 56 41 94t103 38q26 0 56.5 -10.5t34.5 -10.5q15 0 21 8h11v-114h-11q-11 30 -17.5 44.5t-19.5 33.5t-31.5 27
t-43.5 8q-42 0 -71.5 -19t-29.5 -59q0 -31 21 -48.5t68 -31.5l73 -24q107 -35 107 -118q0 -54 -41 -97.5t-123 -43.5q-30 0 -70 13.5t-53 13.5q-11 0 -23 -14h-11zM54 487l113 167h56l113 -167h-14l-127 105l-127 -105h-14z" />
    <glyph glyph-name="scaron.sc" unicode="&#xee06;" horiz-adv-x="426" 
d="M56 0v140h11q12 -30 19 -45.5t21 -37t28.5 -31.5t37.5 -17.5t53 -7.5q36 0 58.5 21t22.5 61q0 29 -15.5 46t-49.5 30l-90 31q-43 16 -65 42.5t-22 77.5q0 56 41 94t103 38q26 0 56.5 -10.5t34.5 -10.5q15 0 21 8h11v-114h-11q-11 30 -17.5 44.5t-19.5 33.5t-31.5 27
t-43.5 8q-42 0 -71.5 -19t-29.5 -59q0 -31 21 -48.5t68 -31.5l73 -24q107 -35 107 -118q0 -54 -41 -97.5t-123 -43.5q-30 0 -70 13.5t-53 13.5q-11 0 -23 -14h-11zM354 654l-113 -167h-56l-113 167h14l127 -105l127 105h14z" />
    <glyph glyph-name="scedilla.sc" unicode="&#xee10;" horiz-adv-x="426" 
d="M150 -78l61 65q-29 1 -69 14t-52 13q-11 0 -23 -14h-11v140h11q12 -30 19 -45.5t21 -37t28.5 -31.5t37.5 -17.5t53 -7.5q36 0 58.5 21t22.5 61q0 29 -15.5 46t-49.5 30l-90 31q-43 16 -65 42.5t-22 77.5q0 56 41 94t103 38q26 0 56.5 -10.5t34.5 -10.5q15 0 21 8h11v-114
h-11q-11 30 -17.5 44.5t-19.5 33.5t-31.5 27t-43.5 8q-42 0 -71.5 -19t-29.5 -59q0 -31 21 -48.5t68 -31.5l73 -24q107 -35 107 -118q0 -51 -36.5 -92.5t-108.5 -47.5l-57 -60l2 -2q19 14 49 14q14 0 31 -5.5t34 -27t17 -54.5q0 -43 -30.5 -69t-74.5 -26q-41 0 -77 30l8 12
q35 -25 66 -25q51 0 51 79q0 66 -47 66q-20 0 -40 -13z" />
    <glyph glyph-name="scommaaccent.sc" unicode="&#xee1a;" horiz-adv-x="426" 
d="M56 0v140h11q12 -30 19 -45.5t21 -37t28.5 -31.5t37.5 -17.5t53 -7.5q36 0 58.5 21t22.5 61q0 29 -15.5 46t-49.5 30l-90 31q-43 16 -65 42.5t-22 77.5q0 56 41 94t103 38q26 0 56.5 -10.5t34.5 -10.5q15 0 21 8h11v-114h-11q-11 30 -17.5 44.5t-19.5 33.5t-31.5 27
t-43.5 8q-42 0 -71.5 -19t-29.5 -59q0 -31 21 -48.5t68 -31.5l73 -24q107 -35 107 -118q0 -54 -41 -97.5t-123 -43.5q-30 0 -70 13.5t-53 13.5q-11 0 -23 -14h-11zM178 -246l-10 10q62 50 62 91q0 17 -11 30q-14 -14 -28 -14q-16 0 -27.5 11t-11.5 28q0 19 13.5 29.5
t30.5 10.5q23 0 40.5 -19t17.5 -49q0 -67 -76 -128z" />
    <glyph glyph-name="germandbls.sc" unicode="&#xee24;" horiz-adv-x="852" 
d="M482 0v140h11q12 -30 19 -45.5t21 -37t28.5 -31.5t37.5 -17.5t53 -7.5q36 0 58.5 21t22.5 61q0 29 -15.5 46t-49.5 30l-90 31q-43 16 -65 42.5t-22 77.5q0 56 41 94t103 38q26 0 56.5 -10.5t34.5 -10.5q15 0 21 8h11v-114h-11q-11 30 -17.5 44.5t-19.5 33.5t-31.5 27
t-43.5 8q-42 0 -71.5 -19t-29.5 -59q0 -31 21 -48.5t68 -31.5l73 -24q107 -35 107 -118q0 -54 -41 -97.5t-123 -43.5q-30 0 -70 13.5t-53 13.5q-11 0 -23 -14h-11zM56 0v140h11q12 -30 19 -45.5t21 -37t28.5 -31.5t37.5 -17.5t53 -7.5q36 0 58.5 21t22.5 61q0 29 -15.5 46
t-49.5 30l-90 31q-43 16 -65 42.5t-22 77.5q0 56 41 94t103 38q26 0 56.5 -10.5t34.5 -10.5q15 0 21 8h11v-114h-11q-11 30 -17.5 44.5t-19.5 33.5t-31.5 27t-43.5 8q-42 0 -71.5 -19t-29.5 -59q0 -31 21 -48.5t68 -31.5l73 -24q107 -35 107 -118q0 -54 -41 -97.5
t-123 -43.5q-30 0 -70 13.5t-53 13.5q-11 0 -23 -14h-11z" />
    <glyph glyph-name="tcaron.sc" unicode="&#xee2e;" horiz-adv-x="464" 
d="M189 14v401h-29q-52 0 -79.5 -28t-38.5 -83h-11v125h402v-125h-11q-11 55 -38.5 83t-79.5 28h-29v-401h73v-14h-232v14h73zM374 654l-113 -167h-56l-113 167h14l127 -105l127 105h14z" />
    <glyph glyph-name="tcommaaccent.sc" unicode="&#xee38;" horiz-adv-x="464" 
d="M189 14v401h-29q-52 0 -79.5 -28t-38.5 -83h-11v125h402v-125h-11q-11 55 -38.5 83t-79.5 28h-29v-401h73v-14h-232v14h73zM203 -246l-10 10q62 50 62 91q0 17 -11 30q-14 -14 -28 -14q-16 0 -27.5 11t-11.5 28q0 19 13.5 29.5t30.5 10.5q23 0 40.5 -19t17.5 -49
q0 -67 -76 -128z" />
    <glyph glyph-name="tbar.sc" unicode="&#xee42;" horiz-adv-x="464" 
d="M100 247v15h89v153h-29q-52 0 -79.5 -28t-38.5 -83h-11v125h402v-125h-11q-11 55 -38.5 83t-79.5 28h-29v-153h88v-15h-88v-233h73v-14h-232v14h73v233h-89z" />
    <glyph glyph-name="thorn.sc" unicode="&#xee4c;" horiz-adv-x="463" 
d="M111 14v401h-73v14h231v-14h-72v-80q18 3 45 3q102 0 144.5 -34.5t42.5 -82.5q0 -36 -19 -61.5t-50.5 -36.5t-60 -15.5t-60.5 -4.5q-19 0 -42 3v-92h72v-14h-231v14h73zM197 321v-201q16 -3 39 -3q34 0 55.5 9t29.5 28t10 31.5t2 35.5q0 54 -20 78.5t-77 24.5
q-27 0 -39 -3z" />
    <glyph glyph-name="ugrave.sc" unicode="&#xee56;" horiz-adv-x="537" 
d="M23 415v14h234v-14h-74v-266q0 -148 113 -148q67 0 101.5 39.5t34.5 99.5v275h-68v14h150v-14h-68v-275q0 -29 -7 -53.5t-24.5 -48.5t-52 -37.5t-83.5 -13.5q-95 0 -138.5 43.5t-43.5 138.5v246h-74zM333 487l-171 122q-18 13 -18 27t10 24.5t24 10.5q13 0 21.5 -7
t29.5 -33l118 -144h-14z" />
    <glyph glyph-name="uacute.sc" unicode="&#xee60;" horiz-adv-x="537" 
d="M23 415v14h234v-14h-74v-266q0 -148 113 -148q67 0 101.5 39.5t34.5 99.5v275h-68v14h150v-14h-68v-275q0 -29 -7 -53.5t-24.5 -48.5t-52 -37.5t-83.5 -13.5q-95 0 -138.5 43.5t-43.5 138.5v246h-74zM239 487l118 144q21 26 29.5 33t21.5 7q14 0 24 -10.5t10 -24.5
t-18 -27l-171 -122h-14z" />
    <glyph glyph-name="ucircumflex.sc" unicode="&#xee6a;" horiz-adv-x="537" 
d="M23 415v14h234v-14h-74v-266q0 -148 113 -148q67 0 101.5 39.5t34.5 99.5v275h-68v14h150v-14h-68v-275q0 -29 -7 -53.5t-24.5 -48.5t-52 -37.5t-83.5 -13.5q-95 0 -138.5 43.5t-43.5 138.5v246h-74zM140 487l113 167h56l113 -167h-14l-127 105l-127 -105h-14z" />
    <glyph glyph-name="utilde.sc" unicode="&#xee74;" horiz-adv-x="537" 
d="M23 415v14h234v-14h-74v-266q0 -148 113 -148q67 0 101.5 39.5t34.5 99.5v275h-68v14h150v-14h-68v-275q0 -29 -7 -53.5t-24.5 -48.5t-52 -37.5t-83.5 -13.5q-95 0 -138.5 43.5t-43.5 138.5v246h-74zM411 678h14q-2 -13 -10 -33.5t-32.5 -44.5t-58.5 -24q-28 0 -72 24
q-44 23 -63 23q-46 0 -62 -47h-14q8 44 36.5 71.5t59.5 27.5q19 0 69 -23q46 -24 68 -24q19 0 35 12t21.5 21t8.5 17z" />
    <glyph glyph-name="udieresis.sc" unicode="&#xee7e;" horiz-adv-x="537" 
d="M23 415v14h234v-14h-74v-266q0 -148 113 -148q67 0 101.5 39.5t34.5 99.5v275h-68v14h150v-14h-68v-275q0 -29 -7 -53.5t-24.5 -48.5t-52 -37.5t-83.5 -13.5q-95 0 -138.5 43.5t-43.5 138.5v246h-74zM337 597q0 19 13.5 32.5t32.5 13.5t32.5 -13.5t13.5 -32.5
t-13.5 -32.5t-32.5 -13.5t-32.5 13.5t-13.5 32.5zM151 597q0 19 13.5 32.5t32.5 13.5t32.5 -13.5t13.5 -32.5t-13.5 -32.5t-32.5 -13.5t-32.5 13.5t-13.5 32.5z" />
    <glyph glyph-name="umacron.sc" unicode="&#xee88;" horiz-adv-x="537" 
d="M23 415v14h234v-14h-74v-266q0 -148 113 -148q67 0 101.5 39.5t34.5 99.5v275h-68v14h150v-14h-68v-275q0 -29 -7 -53.5t-24.5 -48.5t-52 -37.5t-83.5 -13.5q-95 0 -138.5 43.5t-43.5 138.5v246h-74zM150 537v31h280v-31h-280z" />
    <glyph glyph-name="ubreve.sc" unicode="&#xee92;" horiz-adv-x="537" 
d="M23 415v14h234v-14h-74v-266q0 -148 113 -148q67 0 101.5 39.5t34.5 99.5v275h-68v14h150v-14h-68v-275q0 -29 -7 -53.5t-24.5 -48.5t-52 -37.5t-83.5 -13.5q-95 0 -138.5 43.5t-43.5 138.5v246h-74zM160 642h14q6 -38 33.5 -68.5t84.5 -30.5t84.5 30.5t33.5 68.5h14
q-6 -155 -132 -155t-132 155z" />
    <glyph glyph-name="uring.sc" unicode="&#xee9c;" horiz-adv-x="537" 
d="M23 415v14h234v-14h-74v-266q0 -148 113 -148q67 0 101.5 39.5t34.5 99.5v275h-68v14h150v-14h-68v-275q0 -29 -7 -53.5t-24.5 -48.5t-52 -37.5t-83.5 -13.5q-95 0 -138.5 43.5t-43.5 138.5v246h-74zM290 676q29 0 60.5 -23.5t31.5 -67.5q0 -36 -28 -63t-64 -27t-64 27
t-28 63q0 44 31.5 67.5t60.5 23.5zM290 665q-29 0 -38.5 -21t-9.5 -59q0 -44 11.5 -61.5t36.5 -17.5t36.5 17.5t11.5 61.5q0 38 -9.5 59t-38.5 21z" />
    <glyph glyph-name="uhungarumlaut.sc" unicode="&#xeea6;" horiz-adv-x="537" 
d="M23 415v14h234v-14h-74v-266q0 -148 113 -148q67 0 101.5 39.5t34.5 99.5v275h-68v14h150v-14h-68v-275q0 -29 -7 -53.5t-24.5 -48.5t-52 -37.5t-83.5 -13.5q-95 0 -138.5 43.5t-43.5 138.5v246h-74zM322 487l118 144q21 26 29.5 33t21.5 7q14 0 24 -10.5t10 -24.5
t-18 -27l-171 -122h-14zM164 487l118 144q21 26 29.5 33t21.5 7q14 0 24 -10.5t10 -24.5t-18 -27l-171 -122h-14z" />
    <glyph glyph-name="uogonek.sc" unicode="&#xeeb0;" horiz-adv-x="537" 
d="M343 -156l8 -12q-40 -32 -87 -32q-37 0 -63.5 17t-26.5 49q0 35 35 64t97 59q-18 -2 -27 -2q-95 0 -138.5 43.5t-43.5 138.5v246h-74v14h234v-14h-74v-266q0 -148 113 -148q67 0 101.5 39.5t34.5 99.5v275h-68v14h150v-14h-68v-275q0 -119 -103 -145q-57 -41 -78 -67
t-21 -49q0 -20 14.5 -36t40.5 -16q20 0 44 17z" />
    <glyph glyph-name="wacute.sc" unicode="&#xeeba;" horiz-adv-x="741" 
d="M225 -30l-160 445h-69v14h241v-14h-83l112 -313l104 247l-25 66h-42v14h199v-14h-67l117 -312l124 312h-94v14h163v-14h-53l-179 -445l-136 359zM349 487l118 144q21 26 29.5 33t21.5 7q14 0 24 -10.5t10 -24.5t-18 -27l-171 -122h-14z" />
    <glyph glyph-name="wcircumflex.sc" unicode="&#xeec4;" horiz-adv-x="741" 
d="M225 -30l-160 445h-69v14h241v-14h-83l112 -313l104 247l-25 66h-42v14h199v-14h-67l117 -312l124 312h-94v14h163v-14h-53l-179 -445l-136 359zM240 487l113 167h56l113 -167h-14l-127 105l-127 -105h-14z" />
    <glyph glyph-name="wdieresis.sc" unicode="&#xeece;" horiz-adv-x="741" 
d="M225 -30l-160 445h-69v14h241v-14h-83l112 -313l104 247l-25 66h-42v14h199v-14h-67l117 -312l124 312h-94v14h163v-14h-53l-179 -445l-136 359zM443 597q0 19 13.5 32.5t32.5 13.5t32.5 -13.5t13.5 -32.5t-13.5 -32.5t-32.5 -13.5t-32.5 13.5t-13.5 32.5zM257 597
q0 19 13.5 32.5t32.5 13.5t32.5 -13.5t13.5 -32.5t-13.5 -32.5t-32.5 -13.5t-32.5 13.5t-13.5 32.5z" />
    <glyph glyph-name="wgrave.sc" unicode="&#xeed8;" horiz-adv-x="741" 
d="M225 -30l-160 445h-69v14h241v-14h-83l112 -313l104 247l-25 66h-42v14h199v-14h-67l117 -312l124 312h-94v14h163v-14h-53l-179 -445l-136 359zM438 487l-171 122q-18 13 -18 27t10 24.5t24 10.5q13 0 21.5 -7t29.5 -33l118 -144h-14z" />
    <glyph glyph-name="yacute.sc" unicode="&#xeee2;" horiz-adv-x="463" 
d="M195 167l-150 248h-49v14h226v-14h-77l129 -214l124 214h-80v14h149v-14h-55l-131 -230v-171h73v-14h-232v14h73v153zM190 487l118 144q21 26 29.5 33t21.5 7q14 0 24 -10.5t10 -24.5t-18 -27l-171 -122h-14z" />
    <glyph glyph-name="ycircumflex.sc" unicode="&#xeeec;" horiz-adv-x="463" 
d="M195 167l-150 248h-49v14h226v-14h-77l129 -214l124 214h-80v14h149v-14h-55l-131 -230v-171h73v-14h-232v14h73v153zM106 487l113 167h56l113 -167h-14l-127 105l-127 -105h-14z" />
    <glyph glyph-name="ydieresis.sc" unicode="&#xeef6;" horiz-adv-x="463" 
d="M195 167l-150 248h-49v14h226v-14h-77l129 -214l124 214h-80v14h149v-14h-55l-131 -230v-171h73v-14h-232v14h73v153zM295 597q0 19 13.5 32.5t32.5 13.5t32.5 -13.5t13.5 -32.5t-13.5 -32.5t-32.5 -13.5t-32.5 13.5t-13.5 32.5zM109 597q0 19 13.5 32.5t32.5 13.5
t32.5 -13.5t13.5 -32.5t-13.5 -32.5t-32.5 -13.5t-32.5 13.5t-13.5 32.5z" />
    <glyph glyph-name="ygrave.sc" unicode="&#xef00;" horiz-adv-x="463" 
d="M195 167l-150 248h-49v14h226v-14h-77l129 -214l124 214h-80v14h149v-14h-55l-131 -230v-171h73v-14h-232v14h73v153zM299 487l-171 122q-18 13 -18 27t10 24.5t24 10.5q13 0 21.5 -7t29.5 -33l118 -144h-14z" />
    <glyph glyph-name="zacute.sc" unicode="&#xef0a;" horiz-adv-x="426" 
d="M36 0l249 415h-124q-24 0 -44.5 -18t-29.5 -35t-21 -45h-8l14 112h317l-249 -415h125q58 0 81 26t43 90h8l-13 -130h-348zM155 487l118 144q21 26 29.5 33t21.5 7q14 0 24 -10.5t10 -24.5t-18 -27l-171 -122h-14z" />
    <glyph glyph-name="zcaron.sc" unicode="&#xef14;" horiz-adv-x="426" 
d="M36 0l249 415h-124q-24 0 -44.5 -18t-29.5 -35t-21 -45h-8l14 112h317l-249 -415h125q58 0 81 26t43 90h8l-13 -130h-348zM364 654l-113 -167h-56l-113 167h14l127 -105l127 105h14z" />
    <glyph glyph-name="zdotaccent.sc" unicode="&#xef1e;" horiz-adv-x="426" 
d="M36 0l249 415h-124q-24 0 -44.5 -18t-29.5 -35t-21 -45h-8l14 112h317l-249 -415h125q58 0 81 26t43 90h8l-13 -130h-348zM197 597q0 19 13.5 32.5t32.5 13.5t32.5 -13.5t13.5 -32.5t-13.5 -32.5t-32.5 -13.5t-32.5 13.5t-13.5 32.5z" />
    <glyph glyph-name="exclam.sc" unicode="&#xef32;" horiz-adv-x="240" 
d="M113 121l-32 238q-1 8 -2 17l-1.5 13.5t-0.5 6.5q0 18 12 29.5t31 11.5t31 -11.5t12 -29.5q0 -4 -5 -37l-31 -238h-14zM73 37q0 17 14 29.5t33 12.5t32.5 -12.5t13.5 -29.5q0 -18 -13.5 -30.5t-32.5 -12.5q-20 0 -33.5 12.5t-13.5 30.5z" />
    <glyph glyph-name="ampersand.sc" unicode="&#xef3a;" horiz-adv-x="519" 
d="M256 295l110 -187q21 32 21 102q0 50 -11.5 60.5t-48.5 10.5v14h132v-14q-41 0 -49.5 -12.5t-8.5 -67.5q0 -36 -4.5 -57t-21.5 -50q31 -57 51 -57q29 0 29 30q0 15 -4 27h15q3 -11 3 -33q0 -31 -24.5 -52.5t-55.5 -21.5q-39 0 -74 45q-52 -45 -116 -45q-61 0 -100 36.5
t-39 88.5q0 29 10.5 53.5t31 44t35.5 30.5t39 26q-22 46 -22 74q0 44 28 73t64 29q26 0 45.5 -15.5t19.5 -49.5q0 -24 -10.5 -42t-19 -24t-25.5 -16zM250 305q16 9 23.5 14.5t15.5 20.5t8 35q0 28 -14 40.5t-29 12.5q-16 0 -25.5 -10t-9.5 -27q0 -19 5.5 -33.5t25.5 -52.5z
M308 44l-125 212q-9 -4 -19 -11.5t-22 -26.5t-12 -42q0 -46 39.5 -103t80.5 -57q30 0 58 28z" />
    <glyph glyph-name="question.sc" unicode="&#xef82;" horiz-adv-x="337" 
d="M97 115v141h17q17 -22 42 -22t34 23.5t9 78.5q0 53 -8.5 72.5t-32.5 19.5q-16 0 -25 -7t-9 -15q0 -7 7.5 -16.5t7.5 -18.5q0 -27 -37 -27q-36 0 -36 28q0 32 29.5 50.5t66.5 18.5q56 0 87.5 -31.5t31.5 -81.5q0 -54 -39 -82t-74 -28q-36 0 -52 20h-2v-123h-17zM62 37
q0 17 14 29.5t33 12.5t32.5 -12.5t13.5 -29.5q0 -18 -13.5 -30.5t-32.5 -12.5q-20 0 -33.5 12.5t-13.5 30.5z" />
    <glyph glyph-name="exclamdown.sc" unicode="&#xefc2;" horiz-adv-x="240" 
d="M165 393q0 -17 -14 -29.5t-33 -12.5t-32.5 12.5t-13.5 29.5q0 18 13.5 30.5t32.5 12.5q20 0 33.5 -12.5t13.5 -30.5zM124 309l32 -238q1 -8 2 -16.5t2 -13.5t1 -7q0 -18 -12 -29.5t-31 -11.5t-31 11.5t-12 29.5q0 2 0.5 6.5l1.5 13.5t2 17l32 238h13z" />
    <glyph glyph-name="questiondown.sc" unicode="&#xefc6;" horiz-adv-x="337" 
d="M257 397q0 -17 -13.5 -29.5t-33.5 -12.5q-19 0 -32.5 12.5t-13.5 29.5q0 18 13.5 30.5t32.5 12.5q20 0 33.5 -12.5t13.5 -30.5zM222 319v-141h-17q-17 22 -42 22t-34 -23.5t-9 -78.5q0 -53 8.5 -72.5t32.5 -19.5q16 0 25 7t9 15q0 7 -7.5 16.5t-7.5 18.5q0 27 37 27
q36 0 36 -28q0 -32 -29.5 -50.5t-66.5 -18.5q-56 0 -87 31.5t-31 81.5q0 54 38.5 82t73.5 28t53 -20h1v123h17z" />
    <glyph glyph-name="zero.onum" unicode="&#xf055;" horiz-adv-x="556" 
d="M46 214q0 94 73 161t159 67t159 -67t73 -161q0 -91 -71 -159.5t-161 -68.5t-161 68.5t-71 159.5zM143 214q0 -125 36.5 -169.5t98.5 -44.5t98.5 44.5t36.5 169.5t-36.5 169.5t-98.5 44.5t-98.5 -44.5t-36.5 -169.5z" />
    </font>
</defs>
</svg>
